<?xml version="1.0" encoding="UTF-8" standalone="no"?>
<!-- Created with Inkscape (http://www.inkscape.org/) -->

<svg
   width="86.423836mm"
   height="17.381487mm"
   viewBox="0 0 86.423836 17.381487"
   version="1.1"
   id="svg1"
   xml:space="preserve"
   inkscape:version="1.3.2 (091e20e, 2023-11-25, custom)"
   sodipodi:docname="odmf.svg"
   xmlns:inkscape="http://www.inkscape.org/namespaces/inkscape"
   xmlns:sodipodi="http://sodipodi.sourceforge.net/DTD/sodipodi-0.dtd"
   xmlns="http://www.w3.org/2000/svg"
   xmlns:svg="http://www.w3.org/2000/svg"><sodipodi:namedview
     id="namedview1"
     pagecolor="#ffffff"
     bordercolor="#666666"
     borderopacity="1.0"
     inkscape:showpageshadow="2"
     inkscape:pageopacity="0.0"
     inkscape:pagecheckerboard="0"
     inkscape:deskcolor="#d1d1d1"
     inkscape:document-units="mm"
     inkscape:zoom="6.9594465"
     inkscape:cx="164.09351"
     inkscape:cy="60.565161"
     inkscape:window-width="3747"
     inkscape:window-height="1577"
     inkscape:window-x="85"
     inkscape:window-y="-8"
     inkscape:window-maximized="1"
     inkscape:current-layer="layer1" /><defs
     id="defs1" /><g
     inkscape:label="Ebene 1"
     inkscape:groupmode="layer"
     id="layer1"
     transform="translate(-58.037815,-69.486892)"><rect
       style="fill:#d5f6ff;stroke:none;stroke-width:0.264583"
       id="rect1"
       width="86.338585"
       height="17.412184"
       x="58.11385"
       y="69.486893" /><path
       style="fill:#b7e1d3;fill-opacity:1;stroke-width:0.999999"
       d="m 60.557457,85.036278 c 0,0 3.646161,-14.109955 14.029788,-14.3216 10.383633,-0.211651 10.304368,10.441366 17.358891,10.229716 7.054527,-0.21165 4.121748,-5.714536 14.663914,-6.349482 10.54215,-0.634945 3.05131,5.644947 18.07229,0.8466 7.77956,-2.485135 17.20035,10.582466 17.20035,10.582466"
       id="path13"
       sodipodi:nodetypes="cssssc" /><path
       style="fill:#8cd9bf;fill-opacity:1;stroke-width:0.999999"
       d="m 59.130694,86.590164 c 0,0 5.231453,-9.625236 9.828781,-9.867887 4.597336,-0.24265 6.578945,4.367753 10.145839,4.1251 3.566896,-0.242654 9.98731,-3.963331 13.078628,-4.044216 3.091296,-0.08089 1.347486,0.889729 6.34115,1.375036 4.993638,0.485302 6.578938,-2.669183 10.145818,-2.426531 3.56691,0.242654 4.12175,4.286867 7.84718,4.367751 3.72542,0.08089 7.45085,-2.911833 11.01774,-2.750063 3.5669,0.161777 9.90805,8.250203 14.18832,8.978159"
       id="path14"
       sodipodi:nodetypes="csssssssc" /><path
       style="fill:#19cd92;fill-opacity:1;stroke-width:0.999999"
       d="m 59.051429,85.943094 c 0,0 4.042486,-3.31626 8.719085,-3.397145 4.676594,-0.08089 4.280275,3.397149 7.371583,3.31626 3.091308,-0.08089 5.2881,-4.82999 9.353193,-5.01483 3.642545,-0.165629 0.792646,1.294147 7.292329,1.375032 6.499687,0.08089 4.280265,-2.911831 10.621411,-2.99272 6.34115,-0.08089 7.17348,4.344623 13.71273,4.367758 3.17453,0.01128 7.53012,-4.1251 11.96895,-3.31626 4.43878,0.808846 7.37156,5.338366 7.37156,5.338366 l 1.74383,0.808844"
       id="path15"
       sodipodi:nodetypes="cssssssscc" /><path
       style="fill:#019f67;fill-opacity:1;stroke-width:0.999999"
       d="m 58.813642,86.832818 8.877605,-1.69857 c 0,0 6.182622,-1.86034 9.511724,-1.698571 3.3291,0.161778 4.676599,0 8.084965,0.242654 3.408367,0.242654 3.487631,1.375032 8.322761,0.889725 4.835126,-0.485302 4.835126,-3.073603 8.719063,-3.154487 3.88397,-0.08089 8.08498,4.853061 12.20673,4.933941 4.12173,0.08089 9.19466,-3.073602 11.81039,-2.911833 2.61572,0.161778 10.85922,3.073603 10.85922,3.073603"
       id="path16" /><path
       id="path17"
       style="fill:#0176b4;fill-opacity:1;stroke-width:1"
       d="m 133.3171,84.743777 c -4.16766,0.112188 -8.25799,1.229823 -12.44494,0.912033 -1.51245,-0.143596 -3.01925,-0.34466 -4.54729,-0.311841 -6.17541,-0.121195 -12.35279,-0.04763 -18.523043,0.208401 -4.325907,0.104755 -8.623695,-0.03094 -12.9187,-0.363693 -3.130483,-0.225598 -6.281322,-0.201194 -9.394448,0.19681 -4.714907,0.464902 -9.551887,-0.244838 -14.31002,0.216765 -0.996615,0.211126 -2.086605,0.035 -2.949954,0.617859 -0.714716,0.221418 0.782944,0.589129 1.126129,0.648267 l 83.869826,-0.151943 c 0.37903,-0.221217 1.94785,-0.371697 0.85793,-0.680247 -1.07942,-0.646944 -2.45723,-0.485097 -3.66271,-0.722442 -2.35793,-0.270946 -4.71369,-0.73348 -7.10278,-0.569967 z"
       sodipodi:nodetypes="scccccccccccss" /><g
       id="g8"
       transform="matrix(1.3950862,0,0,1.3950862,-28.288237,-30.211287)"
       style="stroke-width:0.716802"><path
         style="fill:#54585a;stroke-width:0.716802"
         d="m 77.442166,83.830827 c -1.453652,-0.267946 -3.230299,-0.460636 -5.065642,-0.549403 -0.503668,-0.02436 -2.679115,-0.02415 -3.166893,3.88e-4 -0.980886,0.04918 -1.757928,0.1135 -2.568143,0.212586 -0.192844,0.02358 -0.353994,0.03951 -0.358112,0.03539 -0.01475,-0.01476 -0.03083,-0.115952 -0.04027,-0.253506 l -0.0096,-0.139915 0.08133,-0.0087 c 0.04473,-0.0048 0.162403,-0.01806 0.261499,-0.02954 0.209212,-0.02424 0.417097,-0.04438 0.651396,-0.06309 0.09147,-0.0073 0.228681,-0.01932 0.304908,-0.02669 0.152018,-0.0147 0.654117,-0.04646 1.108759,-0.07013 0.964809,-0.05023 2.374803,-0.05035 3.402505,-3.88e-4 0.410075,0.01997 1.145442,0.06533 1.33744,0.08249 0.08385,0.0075 0.233532,0.02034 0.332628,0.02854 0.09909,0.0082 0.226948,0.02061 0.28412,0.02757 0.05717,0.007 0.181905,0.0195 0.277189,0.02788 0.189472,0.01664 0.5673,0.0589 0.81771,0.09145 0.08766,0.01139 0.20616,0.02627 0.26333,0.03307 0.292346,0.03474 1.059886,0.149603 1.392878,0.208439 0.03811,0.0067 0.106717,0.01852 0.152455,0.02619 0.04574,0.0077 0.139019,0.02428 0.207295,0.03692 0.152088,0.02814 0.272079,0.02034 0.328484,-0.02137 l 0.03978,-0.02942 0.06098,0.02698 c 0.110369,0.04882 0.258361,0.141858 0.320768,0.201652 0.09937,0.09521 0.0792,0.157365 -0.0606,0.186718 -0.08791,0.01847 -0.05212,0.02189 -0.356198,-0.03416 z M 64.227145,81.994111 c -0.07242,-0.0074 -0.155471,-0.01974 -0.184567,-0.02755 -0.04773,-0.0128 -0.05218,-0.01784 -0.04552,-0.05152 0.0041,-0.02053 0.01451,-0.08848 0.02322,-0.151006 l 0.01583,-0.113679 0.20986,-0.006 c 0.22735,-0.0065 0.305122,-0.01666 0.326738,-0.04272 0.0076,-0.0092 0.02078,-0.07248 0.02918,-0.140599 0.0084,-0.06812 0.0211,-0.170624 0.0282,-0.227794 0.01978,-0.159104 0.03945,-0.350108 0.05495,-0.533589 0.0077,-0.09147 0.02046,-0.241156 0.02829,-0.33263 0.05048,-0.589219 0.06745,-1.922411 0.03335,-2.619442 -0.03785,-0.77363 -0.05279,-0.98147 -0.117508,-1.635419 -0.0264,-0.266709 -0.0417,-0.405968 -0.0556,-0.505871 -0.008,-0.05717 -0.02018,-0.160078 -0.02716,-0.228683 -0.007,-0.0686 -0.01903,-0.165274 -0.02676,-0.214821 -0.0077,-0.04955 -0.02723,-0.174284 -0.04333,-0.277189 -0.0161,-0.102908 -0.03435,-0.227643 -0.04057,-0.27719 -0.0062,-0.04955 -0.0253,-0.168047 -0.0424,-0.26333 -0.0467,-0.260154 -0.05412,-0.30379 -0.06831,-0.401926 -0.0072,-0.04955 -0.01902,-0.121271 -0.02634,-0.159384 -0.03291,-0.171324 -0.06152,-0.313828 -0.08487,-0.422713 -0.01389,-0.06479 -0.03208,-0.15211 -0.04042,-0.194034 -0.01645,-0.08268 -0.07103,-0.334649 -0.115584,-0.53359 -0.01536,-0.0686 -0.03075,-0.143446 -0.0342,-0.166313 -0.0034,-0.02287 -0.01165,-0.05405 -0.01823,-0.0693 -0.0066,-0.01525 -0.01581,-0.04955 -0.0205,-0.07623 -0.0047,-0.02668 -0.01204,-0.06884 -0.01634,-0.09368 -0.0043,-0.02484 -0.01335,-0.0486 -0.02013,-0.05279 -0.0068,-0.0042 -0.01233,-0.02396 -0.01233,-0.04393 0,-0.03822 -0.0075,-0.06734 -0.0536,-0.207947 l -0.02836,-0.08651 0.03284,-0.0082 c 0.04758,-0.01195 0.26971,0.01794 0.304928,0.04101 0.0349,0.02287 0.08112,0.165633 0.186773,0.576825 0.383413,1.492263 0.674162,3.336316 0.783395,4.968626 0.04427,0.661614 0.05376,0.958134 0.0543,1.697787 6.01e-4,0.836071 -0.01687,1.256042 -0.08193,1.968046 -0.0276,0.302033 -0.09058,0.816872 -0.104541,0.854494 -0.0081,0.02186 -0.03079,0.03428 -0.08469,0.04639 -0.09623,0.02161 -0.550091,0.02948 -0.718077,0.01243 z m 9.777867,-2.176372 c -0.158846,-0.01996 -0.38817,-0.09444 -0.574059,-0.186438 -0.465807,-0.230542 -0.884095,-0.590495 -1.503426,-1.293762 -0.152412,-0.173068 -0.454935,-0.534172 -0.562746,-0.671714 -0.475353,-0.60645 -0.991334,-1.195836 -1.273223,-1.454354 -0.399397,-0.366283 -0.663845,-0.496365 -1.076019,-0.529299 -0.306158,-0.02446 -0.719245,0.084 -1.114352,0.292587 -0.642026,0.338941 -1.442105,1.056373 -2.05836,1.845736 -0.03726,0.04772 -0.07014,0.08437 -0.07307,0.08144 -0.0067,-0.0067 0.117582,-0.290496 0.230489,-0.52656 0.22861,-0.477971 0.604554,-1.082749 0.900543,-1.448694 0.05785,-0.07153 0.114252,-0.142456 0.125332,-0.157622 0.02398,-0.03283 0.340153,-0.27364 0.35927,-0.27364 0.0073,0 0.01535,-0.0047 0.01789,-0.0104 0.0083,-0.0187 0.156693,-0.113083 0.268931,-0.171064 0.06044,-0.03123 0.116132,-0.06104 0.123755,-0.06624 0.02735,-0.0187 0.237251,-0.111177 0.318768,-0.140443 0.04574,-0.01643 0.09399,-0.03559 0.107223,-0.04261 0.01324,-0.007 0.03507,-0.01284 0.04851,-0.01296 0.01344,-1.1e-4 0.0502,-0.0092 0.08168,-0.02015 0.08721,-0.03039 0.310835,-0.06284 0.431159,-0.06256 0.170443,3.88e-4 0.467088,0.05371 0.544133,0.0978 0.01143,0.0065 0.05779,0.0313 0.103013,0.05502 0.04522,0.02372 0.110078,0.06291 0.144124,0.08709 0.150323,0.106778 0.169999,0.120196 0.17625,0.120196 0.01175,0 0.146636,0.126927 0.346122,0.325697 0.229819,0.228997 0.325747,0.334092 0.556617,0.609819 0.04468,0.05336 0.09454,0.112608 0.110801,0.131665 0.04276,0.05011 0.183309,0.224078 0.291126,0.360346 0.05127,0.06479 0.140269,0.173942 0.197787,0.242553 0.05752,0.06861 0.129523,0.155853 0.160013,0.193868 0.03049,0.03802 0.0648,0.07966 0.07623,0.09255 0.03524,0.03971 0.05988,0.0696 0.128973,0.156484 0.03663,0.04606 0.07409,0.08999 0.08324,0.09761 0.0092,0.0076 0.03455,0.03569 0.05644,0.06237 0.129526,0.157855 0.4761,0.525532 0.627071,0.665255 0.150583,0.139362 0.357666,0.316753 0.427856,0.366508 0.186176,0.131973 0.270183,0.187871 0.282339,0.187871 0.0073,0 0.0154,0.0048 0.01794,0.01073 0.0141,0.03273 0.347039,0.179766 0.510492,0.225445 0.473845,0.132422 1.006323,0.07314 1.676998,-0.186692 0.13361,-0.05176 0.161383,-0.06385 0.346486,-0.150765 0.05717,-0.02685 0.125775,-0.05857 0.152455,-0.0705 0.02668,-0.01193 0.05942,-0.02805 0.07276,-0.03583 0.04594,-0.02678 0.07336,-0.04138 0.264869,-0.141007 0.105658,-0.05497 0.199259,-0.107094 0.208003,-0.115838 0.0087,-0.0087 0.0325,-0.02476 0.05279,-0.03559 0.102271,-0.05458 0.271262,-0.160204 0.57235,-0.35775 0.07932,-0.05204 0.370389,-0.256103 0.494577,-0.346735 0.05839,-0.04261 0.142584,-0.103642 0.187103,-0.135628 0.04452,-0.03198 0.09342,-0.06791 0.108663,-0.07983 0.01525,-0.01193 0.124387,-0.09683 0.242541,-0.188694 0.195682,-0.152138 0.598037,-0.478138 0.646158,-0.52354 0.01086,-0.01026 0.07422,-0.06327 0.140784,-0.117804 0.118208,-0.09686 0.193557,-0.161207 0.237814,-0.203104 0.105528,-0.0999 0.395999,-0.343154 0.496493,-0.415785 0.379919,-0.274575 0.540359,-0.392152 0.861481,-0.631322 0.392171,-0.29209 0.877197,-0.66452 1.331611,-1.022481 0.293479,-0.231186 0.352109,-0.271663 0.36902,-0.254753 0.02213,0.02213 -0.166089,0.278456 -0.409183,0.557257 -0.695211,0.797329 -1.825457,1.901029 -2.705281,2.641743 -0.562946,0.473937 -0.7915,0.656964 -1.18372,0.94793 -0.703057,0.521561 -1.264092,0.874262 -1.852013,1.16429 -0.770983,0.380338 -1.395119,0.529711 -1.931627,0.462295 z"
         id="path1" /></g><text
       xml:space="preserve"
       style="font-style:normal;font-variant:normal;font-weight:normal;font-stretch:normal;font-size:14.3059px;line-height:1.25;font-family:Sans;-inkscape-font-specification:'Sans, Normal';font-variant-ligatures:normal;font-variant-caps:normal;font-variant-numeric:normal;font-variant-east-asian:normal;fill:#54585a;fill-opacity:1;stroke-width:0.264583"
       x="64.785461"
       y="81.9832"
       id="text9"><tspan
         sodipodi:role="line"
         id="tspan9"
         x="64.785461"
         y="81.9832"
         style="font-style:normal;font-variant:normal;font-weight:normal;font-stretch:normal;font-size:14.3059px;font-family:Sans;-inkscape-font-specification:'Sans, Normal';font-variant-ligatures:normal;font-variant-caps:normal;font-variant-numeric:normal;font-variant-east-asian:normal;fill:#54585a;fill-opacity:1;stroke-width:0.264583">ODMF</tspan></text><path
       style="fill:#b5cbd1;stroke-width:1"
       d="m 60.917796,83.715484 -0.116015,-0.01283 0.11003,-0.0032 c 0.06052,-0.002 0.115416,0.0054 0.121987,0.01607 0.0066,0.0106 0.0092,0.01786 0.006,0.01607 -0.0033,-0.002 -0.05817,-0.0091 -0.121986,-0.01607 z m -0.304529,-0.03214 c 0.01325,-0.0053 0.03504,-0.0053 0.04834,0 0.01325,0.0053 0.0024,0.0098 -0.02416,0.0098 -0.02659,0 -0.03746,-0.0043 -0.02416,-0.0098 z m -0.134138,-0.01973 c 0.01395,-0.0056 0.03064,-0.0049 0.03705,0.0017 0.0064,0.0064 -0.005,0.01102 -0.02538,0.01018 -0.02253,-8.12e-4 -0.02711,-0.0056 -0.01172,-0.01172 z m -0.140274,-0.02365 c -0.006,-0.0096 0.0066,-0.01297 0.02786,-0.0074 0.04514,0.01186 0.05085,0.02494 0.01088,0.02494 -0.01532,0 -0.03274,-0.008 -0.0387,-0.01754 z m 0.01005,-0.109752 c 9.2e-4,-0.02252 0.0054,-0.02711 0.01172,-0.01172 0.0056,0.01396 0.0049,0.03064 -0.0015,0.03705 -0.0064,0.0064 -0.01102,-0.005 -0.01018,-0.02538 z m 0.02086,-0.143402 c 0,-0.0266 0.0043,-0.03746 0.0098,-0.02416 0.0053,0.01325 0.0053,0.03504 0,0.04834 -0.0053,0.01325 -0.0098,0.0024 -0.0098,-0.02416 z m 0.01782,-0.127288 c 9.21e-4,-0.02252 0.0054,-0.02711 0.01172,-0.01172 0.0056,0.01396 0.0049,0.03064 -0.0015,0.03705 -0.0064,0.0064 -0.01102,-0.005 -0.01018,-0.02538 z m 0.02086,-0.162736 c 0,-0.02661 0.0043,-0.03746 0.0098,-0.02416 0.0053,0.01325 0.0053,0.03504 0,0.04834 -0.0053,0.01325 -0.0098,0.0024 -0.0098,-0.02416 z m 0.01934,-0.154682 c 0,-0.0266 0.0043,-0.03746 0.0098,-0.02416 0.0053,0.01325 0.0053,0.03505 0,0.04834 -0.0053,0.01325 -0.0098,0.0024 -0.0098,-0.02416 z m 0.02005,-0.183684 c 4.06e-4,-0.03191 0.0047,-0.04262 0.0096,-0.02381 0.0049,0.01881 0.0046,0.04492 -7.03e-4,0.05801 -0.0053,0.01311 -0.0093,-0.0024 -0.0089,-0.03421 z m 0.01863,-0.164349 c 0,-0.0266 0.0043,-0.03746 0.0098,-0.02416 0.0053,0.01325 0.0053,0.03504 0,0.04834 -0.0053,0.01325 -0.0098,0.0024 -0.0098,-0.02416 z m 0.01933,-0.193354 c 0,-0.02658 0.0043,-0.03746 0.0098,-0.02416 0.0053,0.01325 0.0053,0.03505 0,0.04834 -0.0053,0.01325 -0.0098,0.0024 -0.0098,-0.02416 z m 0.02005,-0.203018 c 4.06e-4,-0.03191 0.0047,-0.04261 0.0096,-0.02381 0.0049,0.01881 0.0046,0.04491 -7.03e-4,0.05801 -0.0053,0.01311 -0.0093,-0.0024 -0.0089,-0.03421 z m 0.02005,-0.222353 c 0,-0.03722 0.004,-0.05244 0.0088,-0.03383 0.0049,0.01862 0.0049,0.04906 0,0.06767 -0.0049,0.01863 -0.0088,0.0033 -0.0088,-0.03383 z m 0.01934,-0.212688 c 0,-0.03722 0.004,-0.05244 0.0088,-0.03383 0.0049,0.01862 0.0049,0.04906 0,0.06768 -0.0049,0.01861 -0.0088,0.0033 -0.0088,-0.03383 z m 0.01973,-0.28036 c 2.14e-4,-0.04254 0.0042,-0.05766 0.0088,-0.03361 0.0046,0.02405 0.0045,0.05886 -3.8e-4,0.07734 -0.0049,0.01848 -0.0086,-0.0011 -0.0084,-0.04374 z m 0.01973,-0.261024 c 0,-0.04785 0.0038,-0.06743 0.0084,-0.0435 0.0046,0.02393 0.0046,0.06309 0,0.08701 -0.0046,0.02393 -0.0084,0.0043 -0.0084,-0.0435 z m 0.01934,-0.309364 c 0,-0.04785 0.0038,-0.06742 0.0084,-0.0435 0.0046,0.02393 0.0046,0.06309 0,0.08701 -0.0046,0.02393 -0.0084,0.0043 -0.0084,-0.0435 z m 0.01987,-0.348034 c 0,-0.05848 0.0036,-0.08241 0.0081,-0.05317 0.0045,0.02924 0.0045,0.07709 0,0.106347 -0.0045,0.02924 -0.0081,0.0053 -0.0081,-0.05317 z m 0.01988,-0.473712 c 8.7e-5,-0.07444 0.0036,-0.102525 0.0078,-0.0624 0.0042,0.04011 0.0042,0.101018 -1.57e-4,0.135337 -0.0043,0.03432 -0.0077,0.0017 -0.0077,-0.07294 z m 0.02005,-0.580054 c 5.1e-5,-0.106348 0.0033,-0.14738 0.0073,-0.0912 0.0039,0.05619 0.0039,0.143197 -9.2e-5,0.193353 -0.0039,0.05015 -0.0071,0.0042 -0.0071,-0.102162 z m 15.359572,-1.473965 c 0.0452,-0.004 0.119154,-0.004 0.164348,0 0.0452,0.004 0.0082,0.0074 -0.08217,0.0074 -0.09039,0 -0.127371,-0.0033 -0.08217,-0.0074 z m -0.230866,-0.01837 c 0.01396,-0.0056 0.03064,-0.0049 0.03705,0.0017 0.0064,0.0064 -0.005,0.01102 -0.02539,0.01018 -0.02252,-8.1e-4 -0.02711,-0.0056 -0.01172,-0.01172 z m 0.599391,0 c 0.01396,-0.0056 0.03064,-0.0049 0.03705,0.0017 0.0064,0.0064 -0.005,0.01102 -0.02538,0.01018 -0.02252,-8.1e-4 -0.02711,-0.0056 -0.01172,-0.01172 z m -0.7154,-0.01935 c 0.01396,-0.0056 0.03064,-0.0049 0.03705,0.0017 0.0064,0.0064 -0.005,0.01102 -0.02538,0.01018 -0.02252,-8.11e-4 -0.02711,-0.0056 -0.01172,-0.01172 z m -0.212688,-0.03867 c 0.01396,-0.0056 0.03064,-0.0049 0.03705,0.0017 0.0064,0.0064 -0.005,0.01102 -0.02538,0.01018 -0.02252,-8.12e-4 -0.02711,-0.0056 -0.01172,-0.01172 z m 2.053155,-0.257485 c 0.01596,-0.01032 0.03769,-0.01875 0.04834,-0.01875 0.0106,0 0.0063,0.0085 -0.0096,0.01875 -0.01593,0.01032 -0.03769,0.01875 -0.04834,0.01875 -0.0106,0 -0.0063,-0.0085 0.0096,-0.01875 z M 74.48991,77.556173 c -0.03603,-0.02888 -0.0358,-0.02923 0.006,-0.0089 0.02393,0.01158 0.0435,0.02514 0.0435,0.03006 0,0.0148 -0.01004,0.01046 -0.04947,-0.02108 z M 60.663963,77.26721 c 4.3e-5,-0.116978 0.0032,-0.162339 0.0071,-0.100809 0.0039,0.06154 0.0038,0.157246 -8e-5,0.212688 -0.0039,0.05544 -0.007,0.005 -0.007,-0.111886 z m 17.433098,0.183684 c 0.01596,-0.01032 0.03771,-0.01875 0.04834,-0.01875 0.0106,0 0.0063,0.0085 -0.0096,0.01875 -0.01593,0.01032 -0.03769,0.01875 -0.04834,0.01875 -0.0106,0 -0.0063,-0.0085 0.0096,-0.01875 z m -14.791412,-0.0073 c 0,-0.004 0.01522,-0.01924 0.03383,-0.03383 0.03066,-0.02405 0.03135,-0.02338 0.0073,0.0073 -0.02526,0.03221 -0.04114,0.04245 -0.04114,0.02655 z m 10.786564,-0.161838 c -0.02405,-0.03066 -0.02338,-0.03135 0.0073,-0.0073 0.01862,0.01459 0.03383,0.02983 0.03383,0.03383 0,0.0159 -0.01589,0.0057 -0.04114,-0.02655 z m -10.631882,-0.03147 c 0,-0.004 0.01523,-0.01924 0.03383,-0.03384 0.03066,-0.02405 0.03135,-0.02335 0.0073,0.0073 -0.02525,0.03221 -0.04114,0.04245 -0.04114,0.02655 z m 10.554541,-0.02655 c -0.02405,-0.03066 -0.02335,-0.03135 0.0073,-0.0073 0.01862,0.01458 0.03383,0.02983 0.03383,0.03383 0,0.01592 -0.01589,0.0057 -0.04114,-0.02655 z m 4.546235,0.0061 c 0,-0.0053 0.0174,-0.01897 0.03867,-0.03036 0.02128,-0.01144 0.03867,-0.01634 0.03867,-0.01102 0,0.0053 -0.0174,0.01897 -0.03867,0.03036 -0.02128,0.01144 -0.03867,0.01635 -0.03867,0.01102 z m 0.111704,-0.07097 c 0.02649,-0.02904 0.156211,-0.105817 0.289497,-0.171329 0.0452,-0.02221 0.08217,-0.04887 0.08217,-0.05925 0,-0.01032 0.01748,-0.01886 0.03885,-0.01886 0.02137,0 0.05377,-0.0174 0.07197,-0.03867 0.01821,-0.02128 0.0464,-0.03873 0.06265,-0.0388 0.01624,-7e-5 0.05564,-0.018 0.08754,-0.03982 0.03191,-0.02183 0.07758,-0.04766 0.101506,-0.05741 0.02393,-0.0098 0.0435,-0.03001 0.0435,-0.04503 0,-0.01575 0.02775,-0.03253 0.06554,-0.03962 0.04272,-0.008 0.06903,-0.02563 0.07556,-0.05057 0.0059,-0.02238 0.02097,-0.03407 0.03641,-0.02814 0.01454,0.0056 0.06783,-0.01615 0.11847,-0.04826 0.05064,-0.03212 0.0983,-0.05883 0.105901,-0.05938 0.0077,-5.41e-4 0.06603,-0.03982 0.129841,-0.08726 0.0638,-0.04746 0.144287,-0.09934 0.178849,-0.11529 0.03457,-0.01596 0.06285,-0.03758 0.06285,-0.04807 0,-0.01046 0.01396,-0.01907 0.03103,-0.01907 0.01708,0 0.06971,-0.02612 0.116978,-0.05801 0.04727,-0.03191 0.09265,-0.05801 0.100837,-0.05801 0.0082,0 0.04413,-0.02612 0.07985,-0.05801 0.03573,-0.03191 0.07546,-0.05801 0.08827,-0.05801 0.01283,0 0.03754,-0.02176 0.05497,-0.04834 0.01967,-0.03002 0.04982,-0.04834 0.07956,-0.04834 0.02632,0 0.04789,-0.007 0.04789,-0.01547 0,-0.0085 0.03867,-0.03993 0.08594,-0.0698 0.04727,-0.02988 0.100823,-0.07076 0.119001,-0.09086 0.01818,-0.0201 0.04169,-0.03655 0.05222,-0.03655 0.02794,0 0.284228,-0.160916 0.284228,-0.178465 0,-0.0082 0.01172,-0.01489 0.02617,-0.01489 0.0144,0 0.04968,-0.02178 0.07838,-0.04838 0.02871,-0.02661 0.07829,-0.06187 0.110156,-0.07835 0.03188,-0.01648 0.06279,-0.04256 0.06869,-0.05797 0.0059,-0.0154 0.02338,-0.02799 0.03881,-0.02799 0.01546,0 0.06172,-0.02704 0.102846,-0.06009 0.04113,-0.03305 0.08544,-0.05654 0.09845,-0.0522 0.03887,0.01297 -1.170665,0.826934 -1.896332,1.276177 -0.354641,0.219549 -0.735143,0.443074 -0.995761,0.584952 -0.07444,0.04053 -0.183203,0.09996 -0.24169,0.132086 -0.05848,0.03212 -0.09523,0.04622 -0.08164,0.03133 z m -15.096472,-0.0464 c 0.02497,-0.02658 0.04976,-0.04834 0.05508,-0.04834 0.0053,0 -0.01074,0.02176 -0.03574,0.04834 -0.02497,0.0266 -0.04976,0.04834 -0.05508,0.04834 -0.0053,0 0.01074,-0.02176 0.03574,-0.04834 z m 10.313481,0.0049 -0.03683,-0.0435 0.0435,0.03683 c 0.04089,0.03461 0.0523,0.05018 0.03683,0.05018 -0.0036,0 -0.02324,-0.01956 -0.0435,-0.0435 z m -0.125307,-0.106347 -0.04687,-0.05317 0.05317,0.04687 c 0.02924,0.02578 0.05317,0.04971 0.05317,0.05318 0,0.01515 -0.01567,0.0028 -0.05947,-0.04687 z m 4.912599,0.02303 c 0,-0.01659 0.0088,-0.02468 0.01964,-0.018 0.01074,0.0067 0.01463,0.02024 0.0085,0.03015 -0.01659,0.02681 -0.02818,0.02181 -0.02818,-0.01214 z m -14.994431,-0.0472 c 0.01925,-0.02126 0.03934,-0.03867 0.04467,-0.03867 0.0053,0 -0.0061,0.0174 -0.02532,0.03867 -0.01925,0.02128 -0.03934,0.03867 -0.04467,0.03867 -0.0053,0 0.0061,-0.0174 0.02532,-0.03867 z m 15.105609,-0.01283 c 0.01325,-0.0053 0.03504,-0.0053 0.04834,0 0.01325,0.0053 0.0024,0.0098 -0.02416,0.0098 -0.0266,0 -0.03746,-0.0043 -0.02416,-0.0098 z m -5.226242,-0.146713 -0.07644,-0.08217 0.08217,0.07644 c 0.07642,0.07108 0.09106,0.08792 0.07644,0.08792 -0.0032,0 -0.04014,-0.03698 -0.08217,-0.08217 z m 5.405093,0.05156 c 0,-0.01684 0.01032,-0.02716 0.02298,-0.02298 0.03585,0.012 0.0418,0.05357 0.0077,0.05357 -0.01684,0 -0.03061,-0.01381 -0.03061,-0.03062 z M 63.80836,76.841816 c 0.02497,-0.02658 0.04976,-0.04834 0.05508,-0.04834 0.0053,0 -0.01074,0.02176 -0.03574,0.04834 -0.02497,0.02661 -0.04976,0.04834 -0.05508,0.04834 -0.0053,0 0.01074,-0.02175 0.03574,-0.04834 z m -3.164736,-0.145019 c 0,-0.06913 0.0035,-0.0974 0.0078,-0.06283 0.0043,0.03456 0.0043,0.09111 0,0.125684 -0.0043,0.03456 -0.0078,0.0063 -0.0078,-0.06283 z m 18.43957,0.09668 c 0,-0.0106 0.0174,-0.01932 0.03867,-0.01932 0.02128,0 0.03867,0.0086 0.03867,0.01932 0,0.0106 -0.0174,0.01932 -0.03867,0.01932 -0.02126,0 -0.03867,-0.0087 -0.03867,-0.01932 z M 63.963087,76.667815 c 0.02497,-0.0266 0.04976,-0.04834 0.05508,-0.04834 0.0053,0 -0.01074,0.02175 -0.03574,0.04834 -0.02497,0.02661 -0.04976,0.04834 -0.05508,0.04834 -0.0053,0 0.01074,-0.02176 0.03574,-0.04834 z m 9.242215,-0.193349 c -0.04696,-0.04785 -0.08104,-0.08701 -0.07573,-0.08701 0.0053,0 0.04809,0.03915 0.09506,0.08701 0.04696,0.04785 0.08104,0.08701 0.07573,0.08701 -0.0053,0 -0.04809,-0.03915 -0.09506,-0.08701 z M 64.398127,76.21344 c 0.127274,-0.127609 0.235769,-0.232024 0.241087,-0.232024 0.0053,0 -0.09448,0.104408 -0.221751,0.232024 -0.127273,0.127608 -0.235768,0.232022 -0.241086,0.232022 -0.0053,0 0.09448,-0.104408 0.22175,-0.232022 z m -3.774232,0 c 0,-0.0585 0.0036,-0.08242 0.0081,-0.05317 0.0045,0.02924 0.0045,0.07711 0,0.106348 -0.0045,0.02924 -0.0081,0.0053 -0.0081,-0.05317 z m 12.30925,-0.03384 -0.04687,-0.05317 0.05317,0.04687 c 0.02924,0.0258 0.05317,0.04971 0.05317,0.05318 0,0.01515 -0.01567,0.0028 -0.05947,-0.04687 z m -0.145386,-0.164348 -0.03683,-0.0435 0.0435,0.03683 c 0.02393,0.02027 0.0435,0.03983 0.0435,0.0435 0,0.01547 -0.01555,0.004 -0.05018,-0.03683 z m -12.183464,-0.14018 c 1.45e-4,-0.05317 0.0039,-0.07263 0.0084,-0.04323 0.0045,0.02939 0.0043,0.07289 -2.64e-4,0.09668 -0.0046,0.02379 -0.0082,-2.65e-4 -0.0081,-0.05343 z m 4.180536,-0.029 c 0.04153,-0.04254 0.07987,-0.07734 0.08518,-0.07734 0.0053,0 -0.02432,0.03481 -0.06585,0.07734 -0.04153,0.04254 -0.07987,0.07734 -0.08518,0.07734 -0.0053,0 0.02432,-0.03481 0.06585,-0.07734 z m 7.877622,0.02416 -0.04687,-0.05317 0.05318,0.04687 c 0.02924,0.02578 0.05317,0.04971 0.05317,0.05317 0,0.01515 -0.01567,0.0028 -0.05947,-0.04687 z m 9.920411,-0.08605 c 0.01593,-0.01607 0.159514,-0.148844 0.319031,-0.295034 0.159514,-0.146188 0.32408,-0.301878 0.365702,-0.345976 0.04162,-0.0441 0.06562,-0.06632 0.05334,-0.0494 -0.01228,0.01694 -0.01777,0.03535 -0.01214,0.04093 0.0056,0.0056 -0.02275,0.0387 -0.063,0.07361 -0.191294,0.16593 -0.268635,0.244679 -0.261453,0.266223 0.0043,0.01297 -0.0084,0.02349 -0.02815,0.02349 -0.01978,0 -0.04973,0.01524 -0.06655,0.03383 -0.05092,0.05639 -0.213103,0.197829 -0.276301,0.240975 -0.03269,0.02232 -0.04639,0.02741 -0.03043,0.0113 z m -10.036422,-0.04929 -0.04687,-0.05317 0.05317,0.04687 c 0.02924,0.0258 0.05317,0.04971 0.05317,0.05317 0,0.01515 -0.01567,0.0028 -0.05947,-0.04687 z m -7.597261,-0.03383 c 0.02497,-0.02658 0.04976,-0.04834 0.05508,-0.04834 0.0053,0 -0.01074,0.02176 -0.03574,0.04834 -0.02497,0.02661 -0.04976,0.04834 -0.05508,0.04834 -0.0053,0 0.01074,-0.02176 0.03574,-0.04834 z m 7.490544,-0.09184 -0.03683,-0.0435 0.0435,0.03683 c 0.02393,0.02027 0.0435,0.03983 0.0435,0.0435 0,0.01547 -0.01556,0.004 -0.05017,-0.03683 z m -11.855029,-0.05317 c 0,-0.04785 0.0038,-0.06743 0.0084,-0.0435 0.0046,0.02393 0.0046,0.06309 0,0.08701 -0.0046,0.02393 -0.0084,0.0043 -0.0084,-0.0435 z m 4.510412,0.01832 c 0.01829,-0.02021 0.04156,-0.03163 0.05169,-0.02535 0.02319,0.01431 -0.01158,0.05134 -0.05407,0.05757 -0.02716,0.004 -0.02687,1.16e-4 0.0024,-0.03221 z m -0.861329,-0.01832 c 0.01144,-0.02128 0.02504,-0.03867 0.03036,-0.03867 0.0053,0 3.52e-4,0.0174 -0.01102,0.03867 -0.01144,0.02128 -0.02504,0.03867 -0.03037,0.03867 -0.0053,0 -3.51e-4,-0.0174 0.01102,-0.03867 z m 8.098974,-0.0725 c -0.02405,-0.03066 -0.02335,-0.03135 0.0073,-0.0073 0.01863,0.01458 0.03384,0.02983 0.03384,0.03383 0,0.01592 -0.01589,0.0057 -0.04114,-0.02655 z m -0.116016,-0.135353 c -0.02405,-0.03066 -0.02335,-0.03135 0.0073,-0.0073 0.03221,0.02525 0.04245,0.04114 0.02655,0.04114 -0.004,0 -0.01924,-0.01524 -0.03383,-0.03384 z m -11.651379,-0.08217 c 0,-0.04785 0.0038,-0.06744 0.0084,-0.0435 0.0046,0.02393 0.0046,0.06309 0,0.08701 -0.0046,0.02393 -0.0084,0.0043 -0.0084,-0.0435 z m 22.694234,0.01932 c 0,-0.0106 0.0092,-0.01932 0.02048,-0.01932 0.0113,0 0.01509,0.0086 0.0085,0.01932 -0.0066,0.0106 -0.01578,0.01935 -0.02048,0.01935 -0.0047,0 -0.0085,-0.0086 -0.0085,-0.01935 z m -11.139528,-0.05317 c -0.02405,-0.03066 -0.02335,-0.03135 0.0073,-0.0073 0.01862,0.01459 0.03383,0.02983 0.03383,0.03383 0,0.01592 -0.01589,0.0057 -0.04114,-0.02655 z m 9.414829,-0.0667 c 0.01805,-0.01805 0.02836,-0.01805 0.0464,0 0.01805,0.01805 0.01283,0.02319 -0.02319,0.02319 -0.03609,0 -0.04125,-0.0052 -0.02319,-0.02319 z m -16.991755,-0.07348 c 0.02271,-0.03191 0.04565,-0.05801 0.05098,-0.05801 0.0053,0 -0.0089,0.02612 -0.03164,0.05801 -0.02271,0.03191 -0.04565,0.05801 -0.05098,0.05801 -0.0053,0 0.0089,-0.02612 0.03164,-0.05801 z m 7.471209,0.01451 -0.03683,-0.0435 0.0435,0.03683 c 0.04088,0.03461 0.0523,0.05018 0.03683,0.05018 -0.0036,0 -0.02324,-0.01956 -0.0435,-0.0435 z M 60.545243,74.99534 c 0,-0.03722 0.004,-0.05244 0.0088,-0.03383 0.0049,0.01863 0.0049,0.04906 0,0.06768 -0.0049,0.01862 -0.0088,0.0033 -0.0088,-0.03384 z m 11.353094,-0.02416 -0.03683,-0.0435 0.04351,0.03683 c 0.04088,0.03461 0.0523,0.05017 0.03683,0.05017 -0.0036,0 -0.02324,-0.01959 -0.04351,-0.0435 z m 12.115327,-0.565554 c 0.281659,-0.28181 0.51646,-0.512382 0.521777,-0.512382 0.0053,0 -0.220784,0.230572 -0.502442,0.512382 -0.281661,0.281809 -0.51646,0.51238 -0.521776,0.51238 -0.0053,0 0.220781,-0.230571 0.502441,-0.51238 z m -12.221296,0.439876 -0.04687,-0.05318 0.05317,0.04687 c 0.02924,0.02578 0.05317,0.04971 0.05317,0.05317 0,0.01515 -0.01567,0.0028 -0.05947,-0.04687 z m -11.267177,-0.09184 c 4.06e-4,-0.03191 0.0047,-0.04262 0.0096,-0.02381 0.0049,0.01881 0.0046,0.04492 -7.03e-4,0.05801 -0.0053,0.01311 -0.0093,-0.0024 -0.0089,-0.03421 z m 11.141744,-0.05318 -0.05679,-0.06284 0.06283,0.05679 c 0.05858,0.05294 0.07172,0.06889 0.05679,0.06889 -0.0033,0 -0.0316,-0.02828 -0.06284,-0.06284 z m -0.154373,-0.174015 -0.07644,-0.08217 0.08217,0.07644 c 0.07642,0.07108 0.09106,0.08792 0.07644,0.08792 -0.0032,0 -0.04014,-0.03698 -0.08217,-0.08217 z m -11.00599,0.0049 c 0,-0.03722 0.004,-0.05244 0.0088,-0.03383 0.0049,0.01863 0.0049,0.04907 0,0.06768 -0.0049,0.01862 -0.0088,0.0033 -0.0088,-0.03383 z m 4.558616,-0.106347 c 0.02497,-0.02658 0.04976,-0.04834 0.05508,-0.04834 0.0053,0 -0.01074,0.02175 -0.03574,0.04834 -0.02497,0.0266 -0.04976,0.04834 -0.05508,0.04834 -0.0053,0 0.01074,-0.02176 0.03574,-0.04834 z m 6.022908,-0.338366 C 70.928847,73.92714 70.802904,73.79663 70.808222,73.79663 c 0.0053,0 0.139959,0.13051 0.299208,0.290024 0.15925,0.159517 0.285197,0.290029 0.279878,0.290029 -0.0053,0 -0.139963,-0.13051 -0.299212,-0.290029 z M 60.486521,74.30901 c 4.06e-4,-0.03191 0.0047,-0.04262 0.0096,-0.02381 0.0049,0.01881 0.0046,0.04492 -7.03e-4,0.05801 -0.0053,0.01311 -0.0093,-0.0024 -0.0089,-0.03421 z m 4.707093,-0.03083 c 0.02278,-0.02557 0.04752,-0.07531 0.05497,-0.110519 0.0084,-0.03965 0.02941,-0.07021 0.05526,-0.08031 0.06522,-0.02552 0.204353,-0.15344 0.256184,-0.235545 0.02586,-0.04099 0.06098,-0.07451 0.07801,-0.07451 0.01703,0 0.101757,-0.06172 0.188275,-0.137165 0.08651,-0.07545 0.187749,-0.152854 0.224969,-0.172029 0.03722,-0.01918 0.09205,-0.05751 0.121847,-0.08518 0.02979,-0.02768 0.05898,-0.05032 0.06489,-0.05032 0.01005,0 0.07407,-0.04906 0.177522,-0.13609 0.02488,-0.02091 0.06837,-0.04353 0.09668,-0.05025 0.02831,-0.0067 0.06451,-0.0226 0.08047,-0.0353 0.01595,-0.01269 0.08121,-0.04687 0.145014,-0.07596 0.06381,-0.02907 0.129059,-0.06076 0.145013,-0.0704 0.06437,-0.03891 0.201908,-0.09685 0.277503,-0.116908 0.04411,-0.01172 0.106305,-0.03249 0.138197,-0.04618 0.149192,-0.06403 0.651631,-0.147049 0.865122,-0.142939 0.130455,0.0024 0.125376,0.0039 -0.07238,0.01953 -0.953234,0.07542 -1.811345,0.519442 -2.677921,1.385686 -0.143563,0.143511 -0.242386,0.239994 -0.219607,0.214414 z m 18.027307,-0.08281 c 0,-0.004 0.01523,-0.01924 0.03383,-0.03383 0.03066,-0.02405 0.03135,-0.02335 0.0073,0.0073 -0.02525,0.03221 -0.04114,0.04245 -0.04114,0.02655 z M 60.467185,74.11565 c 4.06e-4,-0.03191 0.0047,-0.04261 0.0096,-0.02379 0.0049,0.01881 0.0046,0.04492 -7.05e-4,0.05801 -0.0053,0.01311 -0.0093,-0.0022 -0.0089,-0.03421 z m -0.01934,-0.19335 c 4.04e-4,-0.03191 0.0047,-0.04262 0.0096,-0.02381 0.0049,0.01881 0.0046,0.04492 -7.05e-4,0.05801 -0.0053,0.01311 -0.0093,-0.0024 -0.0089,-0.03421 z m 23.237112,-0.07497 c 0,-0.004 0.01524,-0.01924 0.03384,-0.03383 0.03066,-0.02405 0.03135,-0.02338 0.0073,0.0073 -0.02525,0.03221 -0.04114,0.04245 -0.04114,0.02655 z M 60.428513,73.728923 c 4.06e-4,-0.03191 0.0047,-0.04262 0.0096,-0.02381 0.0049,0.01881 0.0046,0.04492 -7.03e-4,0.05801 -0.0053,0.01311 -0.0093,-0.0022 -0.0089,-0.03421 z m 10.261748,-0.02416 -0.04687,-0.05318 0.05317,0.04687 c 0.02924,0.02578 0.05317,0.04971 0.05317,0.05317 0,0.01515 -0.01567,0.0028 -0.05947,-0.04687 z m 13.149382,0.02679 c 0,-0.0053 0.02612,-0.02825 0.05801,-0.05098 0.03191,-0.02273 0.05801,-0.03696 0.05801,-0.03164 0,0.0053 -0.02612,0.02825 -0.05801,0.05098 -0.0319,0.02273 -0.05801,0.03696 -0.05801,0.03164 z m 0.985288,-0.152481 c 0.08012,-0.08537 0.09749,-0.100711 0.09749,-0.0862 0,0.0031 -0.04132,0.04443 -0.09184,0.09184 l -0.09184,0.0862 z m -14.271021,0.0096 c -0.02405,-0.03066 -0.02335,-0.03135 0.0073,-0.0073 0.01862,0.01459 0.03383,0.02983 0.03383,0.03384 0,0.01592 -0.01588,0.0057 -0.04113,-0.02655 z m 13.440414,0.02655 c 0,-0.004 0.01524,-0.01924 0.03384,-0.03384 0.03066,-0.02405 0.03135,-0.02335 0.0073,0.0073 -0.02525,0.03221 -0.04114,0.04245 -0.04114,0.02655 z m -23.585863,-0.05071 c 0,-0.02658 0.0043,-0.03746 0.0098,-0.02416 0.0053,0.01325 0.0053,0.03504 0,0.04834 -0.0053,0.01325 -0.0098,0.0024 -0.0098,-0.02416 z m 10.048774,-0.05317 c -0.02405,-0.03066 -0.02335,-0.03135 0.0073,-0.0073 0.03221,0.02528 0.04245,0.04114 0.02655,0.04114 -0.004,0 -0.01924,-0.01523 -0.03383,-0.03383 z m -0.09668,-0.07734 c -0.02405,-0.03066 -0.02338,-0.03135 0.0073,-0.0073 0.01863,0.01459 0.03383,0.02983 0.03383,0.03383 0,0.01592 -0.01589,0.0057 -0.04114,-0.02655 z m -9.971435,-0.06284 c 0,-0.02658 0.0043,-0.03746 0.0098,-0.02416 0.0053,0.01325 0.0053,0.03505 0,0.04834 -0.0053,0.01325 -0.0098,0.0024 -0.0098,-0.02416 z m 5.662154,-0.0096 c 0,-0.0161 0.01719,-0.029 0.03867,-0.029 0.04611,0 0.05128,0.02969 0.0081,0.04628 -0.04322,0.01659 -0.04675,0.01526 -0.04675,-0.01727 z m 19.05482,-0.08701 c 0.04153,-0.04254 0.07987,-0.07734 0.08518,-0.07734 0.0053,0 -0.02433,0.03481 -0.06585,0.07734 -0.04153,0.04254 -0.07987,0.07734 -0.08518,0.07734 -0.0053,0 0.02433,-0.03481 0.06585,-0.07734 z m -19.13216,0 c 0,-0.0106 0.0086,-0.01935 0.01933,-0.01935 0.0106,0 0.01934,0.0086 0.01934,0.01935 0,0.0106 -0.0086,0.01932 -0.01934,0.01932 -0.0106,0 -0.01933,-0.0086 -0.01933,-0.01932 z m -5.604148,-0.05801 c 0,-0.0266 0.0043,-0.03746 0.0098,-0.02416 0.0053,0.01325 0.0053,0.03504 0,0.04834 -0.0053,0.01325 -0.0098,0.0024 -0.0098,-0.02416 z m 24.107914,0.03138 c 0,-0.004 0.01523,-0.01924 0.03383,-0.03384 0.03066,-0.02405 0.03135,-0.02335 0.0073,0.0073 -0.02528,0.03221 -0.04114,0.04245 -0.04114,0.02655 z m 0.80241,-0.166718 c 0.01924,-0.02126 0.03934,-0.03867 0.04466,-0.03867 0.0053,0 -0.0061,0.0174 -0.02533,0.03867 -0.01924,0.02128 -0.03934,0.03867 -0.04467,0.03867 -0.0053,0 0.0061,-0.0174 0.02533,-0.03867 z m -24.92966,-0.03867 c 0,-0.02658 0.0043,-0.03746 0.0098,-0.02416 0.0053,0.01325 0.0053,0.03505 0,0.04834 -0.0053,0.01325 -0.0098,0.0024 -0.0098,-0.02416 z m 24.378607,0.012 c 0,-0.004 0.01523,-0.01924 0.03383,-0.03383 0.03066,-0.02405 0.03135,-0.02335 0.0073,0.0073 -0.02525,0.03221 -0.04114,0.04245 -0.04114,0.02655 z m 0.07734,-0.05801 c 0,-0.004 0.01524,-0.01924 0.03383,-0.03383 0.03066,-0.02405 0.03135,-0.02335 0.0073,0.0073 -0.02525,0.03221 -0.04114,0.04245 -0.04114,0.02655 z m 0.60906,-0.07005 c 0.01924,-0.02126 0.03934,-0.03867 0.04466,-0.03867 0.0053,0 -0.0061,0.0174 -0.02532,0.03867 -0.01924,0.02128 -0.03934,0.03867 -0.04467,0.03867 -0.0053,0 0.0061,-0.0174 0.02533,-0.03867 z m -25.084335,-0.01932 c 0,-0.02658 0.0043,-0.03746 0.0098,-0.02416 0.0053,0.01325 0.0053,0.03504 0,0.04834 -0.0053,0.01325 -0.0098,0.0024 -0.0098,-0.02416 z m 24.57196,0.012 c 0,-0.004 0.01523,-0.01924 0.03383,-0.03383 0.03066,-0.02405 0.03135,-0.02338 0.0073,0.0073 -0.02525,0.03221 -0.04113,0.04245 -0.04113,0.02655 z m 0.647728,-0.147381 c 0.01924,-0.02128 0.03934,-0.03867 0.04466,-0.03867 0.0053,0 -0.0061,0.0174 -0.02533,0.03867 -0.01924,0.02127 -0.03934,0.03867 -0.04467,0.03867 -0.0053,0 0.0061,-0.0174 0.02532,-0.03867 z m -25.239024,-0.01928 c 0,-0.0266 0.0043,-0.03746 0.0098,-0.02416 0.0053,0.01325 0.0053,0.03504 0,0.04834 -0.0053,0.01325 -0.0098,0.0024 -0.0098,-0.02416 z m 24.765312,0.03138 c 0,-0.004 0.01524,-0.01924 0.03383,-0.03383 0.03066,-0.02405 0.03135,-0.02338 0.0073,0.0073 -0.02525,0.03221 -0.04114,0.04245 -0.04114,0.02655 z m -17.624016,-0.08937 c 0.0066,-0.0106 0.02448,-0.01932 0.03982,-0.01932 0.01532,0 0.02786,0.0086 0.02786,0.01932 0,0.0106 -0.01791,0.01932 -0.03981,0.01932 -0.02189,0 -0.03443,-0.0086 -0.02786,-0.01932 z m 1.282165,0.0061 c 0.01396,-0.0056 0.03064,-0.0049 0.03705,0.0017 0.0064,0.0064 -0.005,0.01102 -0.02538,0.01018 -0.02252,-8.12e-4 -0.02711,-0.0056 -0.01172,-0.01172 z m -0.155891,-0.01895 c 0.01325,-0.0053 0.03504,-0.0053 0.04834,0 0.01325,0.0053 0.0024,0.0098 -0.02416,0.0098 -0.02661,0 -0.03746,-0.0043 -0.02416,-0.0098 z m -1.367964,-0.02586 c 0,-0.0106 0.01791,-0.01932 0.03982,-0.01932 0.0219,0 0.03443,0.0086 0.02786,0.01932 -0.0066,0.0106 -0.02448,0.01935 -0.03982,0.01935 -0.01533,0 -0.02786,-0.0086 -0.02786,-0.01935 z m 18.426425,0.012 c 0,-0.004 0.01523,-0.01924 0.03383,-0.03383 0.03066,-0.02405 0.03135,-0.02335 0.0073,0.0073 -0.02525,0.03221 -0.04114,0.04245 -0.04114,0.02655 z m -0.386704,-0.01932 c 0,-0.004 0.01523,-0.01924 0.03383,-0.03383 0.03066,-0.02405 0.03135,-0.02338 0.0073,0.0073 -0.02525,0.03221 -0.04114,0.04245 -0.04114,0.02655 z m -24.960187,-0.04265 c 9.19e-4,-0.02252 0.0054,-0.02711 0.01172,-0.01172 0.0056,0.01396 0.0049,0.03064 -0.0015,0.03705 -0.0064,0.0064 -0.01102,-0.005 -0.01018,-0.02538 z m 25.056862,-0.0347 c 0,-0.004 0.01524,-0.01924 0.03384,-0.03385 0.03066,-0.02405 0.03135,-0.02335 0.0073,0.0073 -0.02525,0.03221 -0.04114,0.04245 -0.04114,0.02655 z m 0.386707,-0.01935 c 0,-0.004 0.01523,-0.01924 0.03383,-0.03383 0.03066,-0.02405 0.03135,-0.02335 0.0073,0.0073 -0.02525,0.03221 -0.04114,0.04245 -0.04114,0.02655 z m -0.309366,-0.03867 c 0,-0.004 0.01523,-0.01924 0.03384,-0.03383 0.03066,-0.02405 0.03135,-0.02335 0.0073,0.0073 -0.02525,0.03221 -0.04114,0.04245 -0.04114,0.02655 z M 60.27159,72.451093 c 9.19e-4,-0.02252 0.0054,-0.02711 0.01172,-0.01172 0.0056,0.01396 0.0049,0.03064 -0.0015,0.03705 -0.0064,0.0064 -0.01102,-0.005 -0.01018,-0.02538 z m 25.250217,-0.01535 c 0,-0.004 0.01524,-0.01924 0.03383,-0.03383 0.03066,-0.02405 0.03135,-0.02338 0.0073,0.0073 -0.02528,0.03221 -0.04114,0.04245 -0.04114,0.02655 z M 60.252259,72.315785 c 9.19e-4,-0.02252 0.0054,-0.02711 0.01172,-0.01172 0.0056,0.01396 0.0049,0.03064 -0.0015,0.03705 -0.0064,0.0064 -0.01102,-0.005 -0.01018,-0.02538 z m 25.462903,-0.03469 c 0,-0.004 0.01523,-0.01924 0.03383,-0.03383 0.03066,-0.02405 0.03135,-0.02335 0.0073,0.0073 -0.02525,0.03221 -0.04114,0.04245 -0.04114,0.02655 z M 60.232923,72.180451 c 9.2e-4,-0.02252 0.0054,-0.02711 0.01172,-0.01172 0.0056,0.01396 0.0049,0.03064 -0.0015,0.03705 -0.0064,0.0064 -0.01102,-0.005 -0.01018,-0.02538 z m 25.76864,-0.0986 c 0.01396,-0.0056 0.03064,-0.0049 0.03705,0.0017 0.0064,0.0064 -0.005,0.01102 -0.02538,0.01018 -0.02252,-8.12e-4 -0.02711,-0.0056 -0.01172,-0.01172 z M 60.213587,72.0451 c 9.21e-4,-0.02252 0.0054,-0.02711 0.01172,-0.01172 0.0056,0.01396 0.0049,0.03064 -0.0015,0.03705 -0.0064,0.0064 -0.01102,-0.005 -0.01018,-0.02538 z m -0.03714,-0.240078 c 0,-0.02658 0.0043,-0.03746 0.0098,-0.02416 0.0053,0.01325 0.0053,0.03504 0,0.04834 -0.0053,0.01325 -0.0098,0.0024 -0.0098,-0.02416 z m -0.01934,-0.135351 c 0,-0.02658 0.0043,-0.03746 0.0098,-0.02416 0.0053,0.01325 0.0053,0.03504 0,0.04834 -0.0053,0.01325 -0.0098,0.0024 -0.0098,-0.02416 z m -0.01934,-0.116016 c 0,-0.0266 0.0043,-0.03746 0.0098,-0.02416 0.0053,0.01325 0.0053,0.03505 0,0.04834 -0.0053,0.01325 -0.0098,0.0024 -0.0098,-0.02416 z m -0.02086,-0.127287 c 9.19e-4,-0.02252 0.0054,-0.02711 0.01172,-0.01172 0.0056,0.01396 0.0049,0.03064 -0.0015,0.03705 -0.0064,0.0064 -0.01102,-0.005 -0.01018,-0.02538 z m -0.0178,-0.104729 c 0,-0.02658 0.0043,-0.03746 0.0098,-0.02416 0.0053,0.01325 0.0053,0.03504 0,0.04834 -0.0053,0.01325 -0.0098,0.0024 -0.0098,-0.02416 z m -0.02086,-0.127288 c 9.19e-4,-0.02252 0.0054,-0.02711 0.01172,-0.01172 0.0056,0.01396 0.0049,0.03064 -0.0015,0.03705 -0.0064,0.0064 -0.01102,-0.005 -0.01018,-0.02538 z m -0.01934,-0.116015 c 9.19e-4,-0.02252 0.0054,-0.02711 0.01172,-0.01172 0.0056,0.01396 0.0049,0.03064 -0.0015,0.03705 -0.0064,0.0064 -0.01102,-0.005 -0.01018,-0.02538 z m -0.01934,-0.116016 c 9.2e-4,-0.02252 0.0054,-0.02711 0.01172,-0.01172 0.0056,0.01396 0.0049,0.03064 -0.0015,0.03705 -0.0064,0.0064 -0.01102,-0.005 -0.01018,-0.02538 z m -0.01934,-0.09668 c 9.2e-4,-0.02252 0.0054,-0.02711 0.01172,-0.01172 0.0056,0.01396 0.0049,0.03064 -0.0015,0.03705 -0.0064,0.0064 -0.01102,-0.005 -0.01018,-0.02538 z m -0.01934,-0.116016 c 9.2e-4,-0.02252 0.0054,-0.02711 0.01172,-0.01172 0.0056,0.01396 0.0049,0.03064 -0.0015,0.03705 -0.0064,0.0064 -0.01102,-0.005 -0.01018,-0.02538 z m -0.01934,-0.09668 c 9.19e-4,-0.02252 0.0054,-0.02711 0.01172,-0.01172 0.0056,0.01396 0.0049,0.03064 -0.0015,0.03705 -0.0064,0.0064 -0.01102,-0.005 -0.01018,-0.02538 z m -0.01934,-0.116016 c 9.19e-4,-0.02252 0.0054,-0.02711 0.01172,-0.01172 0.0056,0.01396 0.0049,0.03064 -0.0015,0.03705 -0.0064,0.0064 -0.01102,-0.005 -0.01018,-0.02539 z m -0.01934,-0.09668 c 9.19e-4,-0.02252 0.0054,-0.02711 0.01172,-0.01172 0.0056,0.01396 0.0049,0.03064 -0.0015,0.03705 -0.0064,0.0064 -0.01102,-0.005 -0.01018,-0.02538 z m -0.01934,-0.09668 c 9.19e-4,-0.02252 0.0054,-0.02711 0.01172,-0.01172 0.0056,0.01396 0.0049,0.03064 -0.0015,0.03705 -0.0064,0.0064 -0.01102,-0.005 -0.01018,-0.02538 z m -0.01934,-0.09668 c 9.19e-4,-0.02252 0.0054,-0.02711 0.01172,-0.01172 0.0056,0.01397 0.0049,0.03064 -0.0015,0.03705 -0.0064,0.0064 -0.01102,-0.005 -0.01018,-0.02538 z m -0.07734,-0.386705 c 9.2e-4,-0.02252 0.0054,-0.02711 0.01172,-0.01172 0.0056,0.01396 0.0049,0.03064 -0.0015,0.03705 -0.0064,0.0064 -0.01102,-0.005 -0.01018,-0.02538 z m -0.03867,-0.193351 c 9.19e-4,-0.02252 0.0054,-0.02711 0.01172,-0.01172 0.0056,0.01396 0.0049,0.03064 -0.0015,0.03705 -0.0064,0.0064 -0.01102,-0.005 -0.01018,-0.02538 z m -0.0015,-0.05402 c 0,-0.004 0.01522,-0.01924 0.03383,-0.03384 0.03066,-0.02405 0.03135,-0.02338 0.0073,0.0073 -0.02527,0.03221 -0.04114,0.04245 -0.04114,0.02655 z m 0.872024,-0.03708 c -0.02446,-0.04072 -0.02405,-0.04114 0.0092,-0.0092 0.01917,0.01835 0.03068,0.03754 0.0256,0.04262 -0.005,0.005 -0.02077,-0.0099 -0.03485,-0.03338 z m -0.480474,-0.08584 c 0.05052,-0.004 0.133175,-0.004 0.183686,0 0.05052,0.004 0.0092,0.0073 -0.09184,0.0073 -0.101032,0 -0.142354,-0.0032 -0.09184,-0.0073 z"
       id="path7" /><path
       style="fill:#4b9cb2;stroke-width:1"
       d="m 66.763062,86.061166 c 0.01395,-0.0056 0.03064,-0.0049 0.03705,0.0017 0.0064,0.0064 -0.005,0.01102 -0.02538,0.01018 -0.02252,-8.12e-4 -0.02711,-0.0056 -0.01172,-0.01172 z m 7.463378,0 c 0.01396,-0.0056 0.03064,-0.0049 0.03707,0.0017 0.0064,0.0064 -0.005,0.01102 -0.02538,0.01018 -0.02252,-8.12e-4 -0.02711,-0.0056 -0.01172,-0.01172 z m -6.575168,-0.0576 c 0.01325,-0.0053 0.03504,-0.0053 0.04834,0 0.01325,0.0053 0.0024,0.0098 -0.02416,0.0098 -0.02658,0 -0.03746,-0.0043 -0.02416,-0.0098 z m 5.617238,-5.41e-4 c 0.01881,-0.0049 0.04492,-0.0046 0.05801,8.12e-4 0.01311,0.0053 -0.0022,0.0093 -0.03421,0.0089 -0.03191,-2.71e-4 -0.04262,-0.0047 -0.02381,-0.0096 z m -5.20999,-0.01915 c 0.01396,-0.0056 0.03064,-0.0049 0.03705,0.0017 0.0064,0.0064 -0.005,0.01102 -0.02538,0.01018 -0.02252,-8.12e-4 -0.02711,-0.0056 -0.01172,-0.01172 z m 4.833793,0 c 0.01396,-0.0056 0.03064,-0.0049 0.03705,0.0017 0.0064,0.0064 -0.005,0.01102 -0.02538,0.01018 -0.02252,-8.12e-4 -0.02711,-0.0056 -0.01172,-0.01172 z m -4.408422,-0.01932 c 0.01396,-0.0056 0.03064,-0.0049 0.03707,0.0017 0.0064,0.0064 -0.005,0.01102 -0.02538,0.01018 -0.02252,-8.12e-4 -0.02711,-0.0056 -0.01172,-0.01172 z m 3.944379,0 c 0.01396,-0.0056 0.03064,-0.0049 0.03705,0.0017 0.0064,0.0064 -0.005,0.01102 -0.02538,0.01018 -0.02252,-8.12e-4 -0.02711,-0.0056 -0.01172,-0.01172 z m -3.307526,-0.01895 c 0.01325,-0.0053 0.03504,-0.0053 0.04834,0 0.01325,0.0053 0.0024,0.0098 -0.02416,0.0098 -0.02658,0 -0.03746,-0.0043 -0.02416,-0.0098 z m 2.658956,-5.41e-4 c 0.01881,-0.0049 0.04492,-0.0046 0.05801,8.12e-4 0.01311,0.0053 -0.0024,0.0093 -0.03421,0.0089 -0.0319,-2.71e-4 -0.04262,-0.0047 -0.02381,-0.0096 z M 61.445888,84.185748 c 0.01396,-0.0056 0.03064,-0.0049 0.03705,0.0017 0.0064,0.0064 -0.005,0.01102 -0.02538,0.01018 -0.02253,-8.12e-4 -0.02711,-0.0056 -0.01172,-0.01172 z m -0.745614,-0.502834 c 0.01861,-0.0049 0.04907,-0.0049 0.06768,0 0.01861,0.0049 0.0033,0.0088 -0.03383,0.0088 -0.03722,0 -0.05244,-0.004 -0.03383,-0.0088 z m -0.16314,-0.01921 c 0.01395,-0.0056 0.03064,-0.0049 0.03705,0.0017 0.0064,0.0064 -0.005,0.01102 -0.02538,0.01018 -0.02253,-8.12e-4 -0.02711,-0.0056 -0.01172,-0.01172 z m -0.186673,-0.06413 c 0,-0.02658 0.0043,-0.03746 0.0098,-0.02416 0.0053,0.01325 0.0053,0.03504 0,0.04834 -0.0053,0.01325 -0.0098,0.0024 -0.0098,-0.02416 z m 0.01782,-0.146627 c 9.21e-4,-0.02252 0.0054,-0.02711 0.01172,-0.01172 0.0056,0.01396 0.0049,0.03064 -0.0015,0.03705 -0.0064,0.0064 -0.01102,-0.005 -0.01018,-0.02538 z m 0.01934,-0.135337 c 9.21e-4,-0.02252 0.0054,-0.02711 0.01172,-0.01172 0.0056,0.01396 0.0049,0.03064 -0.0015,0.03705 -0.0064,0.0064 -0.01102,-0.005 -0.01018,-0.02538 z m 0.01934,-0.15468 c 9.19e-4,-0.02252 0.0054,-0.02711 0.01172,-0.01172 0.0056,0.01396 0.0049,0.03064 -0.0015,0.03705 -0.0064,0.0064 -0.01102,-0.005 -0.01018,-0.02538 z m 0.02086,-0.143404 c 0,-0.0266 0.0043,-0.03746 0.0098,-0.02416 0.0053,0.01325 0.0053,0.03505 0,0.04834 -0.0053,0.01325 -0.0098,0.0024 -0.0098,-0.02416 z m 0.01934,-0.174017 c 0,-0.02658 0.0043,-0.03746 0.0098,-0.02416 0.0053,0.01325 0.0053,0.03504 0,0.04834 -0.0053,0.01325 -0.0098,0.0024 -0.0098,-0.02416 z m 0.01934,-0.174016 c 0,-0.0266 0.0043,-0.03746 0.0098,-0.02416 0.0053,0.01325 0.0053,0.03504 0,0.04834 -0.0053,0.01325 -0.0098,0.0024 -0.0098,-0.02416 z m 0.02005,-0.183684 c 4.06e-4,-0.03191 0.0047,-0.04262 0.0096,-0.02379 0.0049,0.01881 0.0046,0.04492 -7.03e-4,0.05801 -0.0053,0.01311 -0.0093,-0.0022 -0.0089,-0.03421 z m 0.01934,-0.193351 c 4.06e-4,-0.03191 0.0047,-0.04262 0.0096,-0.02381 0.0049,0.01881 0.0046,0.04491 -7.03e-4,0.05801 -0.0053,0.01311 -0.0093,-0.0024 -0.0089,-0.03421 z m 2.124627,-0.09828 c 9.2e-4,-0.02252 0.0054,-0.02711 0.01172,-0.01172 0.0056,0.01396 0.0049,0.03064 -0.0015,0.03705 -0.0064,0.0064 -0.01102,-0.005 -0.01018,-0.02538 z m -2.105291,-0.114397 c 4.05e-4,-0.0319 0.0047,-0.04262 0.0096,-0.02381 0.0049,0.01881 0.0046,0.04492 -7.03e-4,0.05801 -0.0053,0.01311 -0.0093,-0.0024 -0.0089,-0.03421 z m 0.01934,-0.212688 c 4.05e-4,-0.0319 0.0047,-0.04262 0.0096,-0.02381 0.0049,0.01881 0.0046,0.04492 -7.03e-4,0.05801 -0.0053,0.01311 -0.0093,-0.0022 -0.0089,-0.03421 z m 2.105291,-0.0017 c 9.2e-4,-0.02252 0.0054,-0.02711 0.01172,-0.01172 0.0056,0.01396 0.0049,0.03064 -0.0015,0.03705 -0.0064,0.0064 -0.01102,-0.005 -0.01018,-0.02538 z m -2.085239,-0.259415 c 0,-0.03722 0.004,-0.05244 0.0088,-0.03383 0.0049,0.01863 0.0049,0.04907 0,0.06768 -0.0049,0.01863 -0.0088,0.0033 -0.0088,-0.03383 z m 2.1061,-0.116015 c 0,-0.02658 0.0043,-0.03746 0.0098,-0.02416 0.0053,0.01325 0.0053,0.03505 0,0.04834 -0.0053,0.01325 -0.0098,0.0024 -0.0098,-0.02416 z m -2.087483,-0.145014 c 4.06e-4,-0.03191 0.0047,-0.04262 0.0096,-0.02381 0.0049,0.01881 0.0046,0.04492 -7.04e-4,0.05801 -0.0053,0.01311 -0.0093,-0.0022 -0.0089,-0.03421 z m 14.455277,-0.196833 c 0.01396,-0.0056 0.03064,-0.0049 0.03705,0.0017 0.0064,0.0064 -0.005,0.01102 -0.02538,0.01018 -0.02252,-8.12e-4 -0.02711,-0.0056 -0.01172,-0.01172 z M 60.603245,81.047312 c 0,-0.03722 0.004,-0.05245 0.0088,-0.03384 0.0049,0.01862 0.0049,0.04906 0,0.06768 -0.0049,0.01862 -0.0088,0.0033 -0.0088,-0.03383 z m 2.088979,-0.135351 c 0,-0.04785 0.0038,-0.06743 0.0084,-0.0435 0.0046,0.02393 0.0046,0.06309 0,0.08701 -0.0046,0.02393 -0.0084,0.0043 -0.0084,-0.04351 z M 60.62336,80.737943 c 0,-0.04785 0.0038,-0.06742 0.0084,-0.0435 0.0046,0.02393 0.0046,0.06309 0,0.08701 -0.0046,0.02393 -0.0084,0.0043 -0.0084,-0.0435 z m 0.0196,-0.435041 c 1.45e-4,-0.05317 0.0039,-0.07263 0.0084,-0.04323 0.0045,0.0294 0.0043,0.07289 -2.64e-4,0.09668 -0.0046,0.02379 -0.0082,-2.67e-4 -0.0081,-0.05343 z M 73.125489,80.18206 c -0.02405,-0.03066 -0.02335,-0.03135 0.0073,-0.0073 0.03221,0.02525 0.04245,0.04114 0.02655,0.04114 -0.004,0 -0.01924,-0.01523 -0.03383,-0.03384 z m -0.212687,-0.193351 c -0.02405,-0.03066 -0.02335,-0.03135 0.0073,-0.0073 0.03221,0.02525 0.04245,0.04114 0.02655,0.04114 -0.004,0 -0.01924,-0.01523 -0.03384,-0.03383 z M 60.663394,79.838863 c 7e-5,-0.08507 0.0035,-0.11748 0.0075,-0.072 0.004,0.04548 0.004,0.11508 -1.28e-4,0.154681 -0.0042,0.03959 -0.0075,0.0024 -0.0074,-0.08269 z m 2.029557,-0.348034 c 1.08e-4,-0.06381 0.0038,-0.08758 0.008,-0.05283 0.0043,0.03475 0.0042,0.08696 -1.98e-4,0.116015 -0.0045,0.02906 -0.008,5.41e-4 -0.0078,-0.06318 z m 9.776145,0.05317 -0.04687,-0.05317 0.05317,0.04687 c 0.02924,0.02578 0.05317,0.04971 0.05317,0.05317 0,0.01515 -0.01567,0.0028 -0.05947,-0.04687 z M 60.684948,78.388725 c 5e-6,-0.446644 0.0025,-0.626598 0.0056,-0.399903 0.0031,0.226695 0.0031,0.592131 -1e-5,0.812079 -0.0031,0.219945 -0.0056,0.03447 -0.0056,-0.412176 z m 11.415778,0.74924 c -0.02405,-0.03066 -0.02335,-0.03135 0.0073,-0.0073 0.01861,0.01458 0.03383,0.02983 0.03383,0.03383 0,0.0159 -0.01589,0.0057 -0.04114,-0.02655 z m -9.431575,-0.325477 c 9.19e-4,-0.02252 0.0054,-0.02711 0.01172,-0.01172 0.0056,0.01396 0.0049,0.03064 -0.0015,0.03705 -0.0064,0.0064 -0.01102,-0.005 -0.01018,-0.02538 z m -0.01781,-0.414096 c 0,-0.02658 0.0043,-0.03746 0.0098,-0.02416 0.0053,0.01325 0.0053,0.03504 0,0.04834 -0.0053,0.01325 -0.0098,0.0024 -0.0098,-0.02416 z M 75.87875,78.03696 c 0.01881,-0.0049 0.04492,-0.0046 0.05801,8.12e-4 0.01311,0.0053 -0.0024,0.0093 -0.03421,0.0089 -0.03191,-2.7e-4 -0.04262,-0.0047 -0.02381,-0.0096 z m 0.40604,0 c 0.01881,-0.0049 0.04492,-0.0046 0.05801,8.12e-4 0.01311,0.0053 -0.0022,0.0093 -0.03421,0.0089 -0.0319,-2.7e-4 -0.04261,-0.0047 -0.02379,-0.0096 z m -0.550214,-0.01913 c 0.01396,-0.0056 0.03064,-0.0049 0.03705,0.0017 0.0064,0.0064 -0.005,0.01102 -0.02539,0.01019 -0.02252,-8.12e-4 -0.02711,-0.0056 -0.01172,-0.01172 z m 0.714194,2.71e-4 c 0.01325,-0.0053 0.03504,-0.0053 0.04834,0 0.01325,0.0053 0.0024,0.0098 -0.02416,0.0098 -0.02658,0 -0.03746,-0.0043 -0.02416,-0.0098 z m -0.830203,-0.01973 c 0.01396,-0.0056 0.03064,-0.0049 0.03705,0.0017 0.0064,0.0064 -0.005,0.01102 -0.02538,0.01018 -0.02252,-8.12e-4 -0.02711,-0.0056 -0.01172,-0.01172 z m 0.947422,0 c 0.01396,-0.0056 0.03064,-0.0049 0.03705,0.0017 0.0064,0.0064 -0.005,0.01102 -0.02538,0.01018 -0.02252,-8.12e-4 -0.02711,-0.0056 -0.01172,-0.01172 z m -1.044098,-0.01932 c 0.01396,-0.0056 0.03064,-0.0049 0.03705,0.0017 0.0064,0.0064 -0.005,0.01102 -0.02538,0.01018 -0.02252,-8.11e-4 -0.02711,-0.0056 -0.01172,-0.01172 z m 1.140776,0 c 0.01396,-0.0056 0.03064,-0.0049 0.03705,0.0017 0.0064,0.0064 -0.005,0.01102 -0.02538,0.01018 -0.02252,-8.11e-4 -0.02711,-0.0056 -0.01172,-0.01172 z m -1.277332,-0.01894 c 0.01325,-0.0053 0.03504,-0.0053 0.04834,0 0.01325,0.0053 0.0024,0.0098 -0.02416,0.0098 -0.02658,0 -0.03746,-0.0043 -0.02416,-0.0098 z m -11.422256,-0.09117 c 0,-0.004 0.01523,-0.01924 0.03384,-0.03383 0.03066,-0.02405 0.03135,-0.02338 0.0073,0.0073 -0.02525,0.03221 -0.04114,0.04245 -0.04114,0.02655 z m -1.35194,-0.100655 c 9.2e-4,-0.02252 0.0054,-0.02711 0.01172,-0.01172 0.0056,0.01396 0.0049,0.03064 -0.0015,0.03705 -0.0064,0.0064 -0.01102,-0.005 -0.01018,-0.02538 z m 11.98145,-0.135128 c -0.07228,-0.03922 -0.06789,-0.05555 0.0049,-0.01794 0.03191,0.0165 0.05801,0.03412 0.05801,0.03916 0,0.01242 -0.0022,0.01172 -0.06283,-0.02122 z M 63.25998,77.460643 c 0.0061,-0.01589 0.01901,-0.02401 0.02871,-0.018 0.02027,0.01256 0.004,0.04689 -0.02221,0.04689 -0.0096,0 -0.01256,-0.01297 -0.0066,-0.02889 z m 1.196148,-0.125795 c 0.05237,-0.05317 0.09957,-0.09668 0.104883,-0.09668 0.0053,0 -0.03317,0.0435 -0.08555,0.09668 -0.05237,0.05317 -0.09957,0.09668 -0.104883,0.09668 -0.0053,0 0.03318,-0.0435 0.08555,-0.09668 z m -1.131108,0.07005 c 0,-0.004 0.01524,-0.01924 0.03384,-0.03384 0.03066,-0.02405 0.03135,-0.02338 0.0073,0.0073 -0.02525,0.03221 -0.04114,0.04245 -0.04114,0.02655 z m 10.883241,-0.02655 c -0.02405,-0.03066 -0.02338,-0.03135 0.0073,-0.0073 0.01862,0.01459 0.03383,0.02983 0.03383,0.03383 0,0.01592 -0.01589,0.0057 -0.04114,-0.02655 z m 7.871882,0.0073 c 0,-0.004 0.01524,-0.01924 0.03383,-0.03383 0.03066,-0.02405 0.03135,-0.02335 0.0073,0.0073 -0.02525,0.03221 -0.04114,0.04245 -0.04114,0.02655 z m -3.731684,-0.03894 c 0,-0.0042 0.01353,-0.01283 0.03001,-0.0191 0.01722,-0.0066 0.02497,-0.0033 0.01819,0.0077 -0.0113,0.01837 -0.0482,0.02718 -0.0482,0.01144 z m -4.27554,-0.0649 c -0.02405,-0.03066 -0.02335,-0.03135 0.0073,-0.0073 0.03221,0.02528 0.04245,0.04114 0.02655,0.04114 -0.004,0 -0.01924,-0.01524 -0.03383,-0.03383 z m -0.10572,-0.08701 -0.03683,-0.0435 0.0435,0.03683 c 0.04089,0.03461 0.0523,0.05017 0.03683,0.05017 -0.0036,0 -0.02324,-0.01956 -0.0435,-0.0435 z m -10.487496,0.01685 c 0,-0.004 0.01522,-0.01924 0.03383,-0.03383 0.03066,-0.02405 0.03135,-0.02335 0.0073,0.0073 -0.02527,0.03221 -0.04114,0.04245 -0.04114,0.02655 z m 15.139444,-0.0011 c 0,-0.0053 0.0174,-0.01897 0.03867,-0.03037 0.02128,-0.01144 0.03867,-0.01634 0.03867,-0.01102 0,0.0053 -0.0174,0.01897 -0.03867,0.03037 -0.02127,0.01144 -0.03867,0.01635 -0.03867,0.01102 z m -13.989001,-0.04969 c 0.01925,-0.02127 0.03934,-0.03867 0.04467,-0.03867 0.0053,0 -0.0061,0.0174 -0.02532,0.03867 -0.01925,0.02128 -0.03934,0.03867 -0.04467,0.03867 -0.0053,0 0.0061,-0.0174 0.02532,-0.03867 z m 9.221044,-0.06283 -0.03683,-0.0435 0.0435,0.03683 c 0.04089,0.03461 0.0523,0.05018 0.03683,0.05018 -0.0036,0 -0.02324,-0.01959 -0.0435,-0.0435 z m 4.912972,0.0296 c 0.0106,-0.01046 0.09764,-0.05996 0.19335,-0.110114 0.09572,-0.05015 0.157623,-0.07794 0.137584,-0.06173 -0.04383,0.03543 -0.358556,0.198882 -0.330936,0.171856 z m -15.158781,-0.06345 c 0.01925,-0.02128 0.03934,-0.03867 0.04467,-0.03867 0.0053,0 -0.0061,0.0174 -0.02533,0.03867 -0.01925,0.02128 -0.03934,0.03867 -0.04467,0.03867 -0.0053,0 0.0061,-0.0174 0.02533,-0.03867 z m 1.131108,-0.0096 c 0.02497,-0.02658 0.04976,-0.04834 0.05508,-0.04834 0.0053,0 -0.01074,0.02176 -0.03574,0.04834 -0.02497,0.0266 -0.04976,0.04834 -0.05508,0.04834 -0.0053,0 0.01074,-0.02176 0.03574,-0.04834 z m -4.073378,-0.116016 c 8.6e-5,-0.07444 0.0036,-0.102524 0.0078,-0.0624 0.0042,0.04012 0.0042,0.101018 -1.55e-4,0.135352 -0.0043,0.03432 -0.0077,0.0017 -0.0077,-0.07294 z m 13.034017,0.02416 -0.05679,-0.06283 0.06283,0.05679 c 0.05858,0.05294 0.07172,0.06889 0.05679,0.06889 -0.0033,0 -0.0316,-0.02828 -0.06283,-0.06284 z m -9.975736,-0.03383 c 0.01925,-0.02128 0.03934,-0.03867 0.04467,-0.03867 0.0053,0 -0.0061,0.0174 -0.02533,0.03867 -0.01925,0.02128 -0.03934,0.03867 -0.04467,0.03867 -0.0053,0 0.0061,-0.0174 0.02533,-0.03867 z m 18.871133,0 c 0.01924,-0.02128 0.03936,-0.03867 0.04467,-0.03867 0.0053,0 -0.0061,0.0174 -0.02533,0.03867 -0.01924,0.02128 -0.03934,0.03867 -0.04467,0.03867 -0.0053,0 0.0061,-0.0174 0.02532,-0.03867 z m -3.315982,-0.08602 c 0,-0.0053 0.02612,-0.02316 0.05801,-0.03966 0.03191,-0.0165 0.05801,-0.02566 0.05801,-0.02033 0,0.0053 -0.02612,0.02316 -0.05801,0.03966 -0.03191,0.0165 -0.05801,0.02566 -0.05801,0.02033 z m -15.468142,-0.0167 c 0,-0.0033 0.02828,-0.03161 0.06283,-0.06283 l 0.06283,-0.05679 -0.05679,0.06283 c -0.05293,0.05858 -0.06889,0.07172 -0.06889,0.05679 z m 9.579976,-0.153466 -0.115402,-0.120842 0.120843,0.115401 c 0.06646,0.06348 0.120842,0.117857 0.120842,0.120842 0,0.01429 -0.01908,-0.0032 -0.126283,-0.115401 z m 9.407171,0.0725 c 0.02497,-0.0266 0.04976,-0.04834 0.05508,-0.04834 0.0053,0 -0.01074,0.02176 -0.03574,0.04834 -0.02497,0.0266 -0.04976,0.04834 -0.05508,0.04834 -0.0053,0 0.01074,-0.02176 0.03574,-0.04834 z m -3.383658,0.02033 c 0,-0.0053 0.02612,-0.02316 0.05801,-0.03966 0.03191,-0.0165 0.05801,-0.02566 0.05801,-0.02033 0,0.0053 -0.02612,0.02316 -0.05801,0.03966 -0.03191,0.0165 -0.05801,0.02566 -0.05801,0.02033 z m -15.814624,-0.04933 c 0.02819,-0.05918 0.03712,-0.07016 0.03712,-0.04559 0,0.01032 -0.01353,0.03576 -0.03006,0.05639 -0.02835,0.03539 -0.02875,0.03476 -0.0071,-0.01074 z m 6.41526,-0.0725 c -0.02405,-0.03066 -0.02335,-0.03135 0.0073,-0.0073 0.01862,0.01458 0.03383,0.02981 0.03383,0.03383 0,0.01592 -0.01589,0.0057 -0.04114,-0.02655 z m 9.631387,-0.01311 c 0,-0.0053 0.0174,-0.01897 0.03867,-0.03036 0.02128,-0.01144 0.03867,-0.01635 0.03867,-0.01102 0,0.0053 -0.0174,0.01897 -0.03867,0.03037 -0.02127,0.01144 -0.03867,0.01635 -0.03867,0.01102 z m -15.565629,-0.0932 c 0.0474,-0.05052 0.08874,-0.09184 0.09184,-0.09184 0.01452,0 -8.38e-4,0.01734 -0.0862,0.09749 l -0.09184,0.0862 z m -0.403678,0.02416 c 0.02818,-0.05919 0.03712,-0.07016 0.03712,-0.04559 0,0.01032 -0.01353,0.03576 -0.03006,0.05639 -0.02835,0.03539 -0.02875,0.03477 -0.0071,-0.01074 z m -3.030986,-0.09668 c 0,-0.06913 0.0035,-0.09741 0.0078,-0.06284 0.0043,0.03456 0.0043,0.09111 0,0.125684 -0.0043,0.03456 -0.0078,0.0063 -0.0078,-0.06284 z m 22.393615,0.05801 c 0.01924,-0.02127 0.03934,-0.03867 0.04467,-0.03867 0.0053,0 -0.0061,0.0174 -0.02532,0.03867 -0.01924,0.02128 -0.03934,0.03867 -0.04467,0.03867 -0.0053,0 0.0061,-0.0174 0.02533,-0.03867 z m -3.238642,0.01102 c 0,-0.0053 0.0174,-0.01897 0.03867,-0.03037 0.02128,-0.01144 0.03867,-0.01635 0.03867,-0.01102 0,0.0053 -0.0174,0.01897 -0.03867,0.03037 -0.02126,0.01144 -0.03867,0.01635 -0.03867,0.01102 z M 73.08929,76.368129 c -0.09635,-0.106961 -0.113044,-0.134165 -0.03899,-0.06353 0.04699,0.04484 0.08151,0.08471 0.07672,0.08862 -0.0047,0.0039 -0.02175,-0.0074 -0.03772,-0.02508 z m 6.960664,0.01032 c 0,-0.005 0.01959,-0.01943 0.0435,-0.03217 0.03945,-0.02102 0.04103,-0.02019 0.01696,0.0089 -0.02471,0.02995 -0.06048,0.04367 -0.06048,0.02319 z m -10.384031,-0.10219 -0.06663,-0.0725 0.0725,0.06663 c 0.06749,0.06201 0.0814,0.07838 0.06663,0.07838 -0.0032,0 -0.03587,-0.03263 -0.0725,-0.0725 z m 13.651679,-0.01451 c 0.02497,-0.02661 0.04976,-0.04834 0.05508,-0.04834 0.0053,0 -0.01074,0.02176 -0.03574,0.04834 -0.02497,0.02658 -0.04976,0.04834 -0.05508,0.04834 -0.0053,0 0.01074,-0.02176 0.03574,-0.04834 z m -3.112967,0.0207 c 0,-0.0053 0.0174,-0.019 0.03867,-0.03037 0.02128,-0.01144 0.03867,-0.01635 0.03867,-0.01102 0,0.0053 -0.0174,0.01897 -0.03867,0.03036 -0.02128,0.01144 -0.03867,0.01635 -0.03867,0.01102 z M 64.427131,76.167384 c 0,-0.004 0.01522,-0.01924 0.03383,-0.03383 0.03066,-0.02405 0.03135,-0.02335 0.0073,0.0073 -0.02526,0.03221 -0.04114,0.04245 -0.04114,0.02655 z m 16.019195,-0.04139 c 0.02128,-0.01731 0.05607,-0.04002 0.07734,-0.05047 l 0.03867,-0.019 -0.03867,0.03149 c -0.02128,0.01731 -0.05607,0.04002 -0.07734,0.05047 l -0.03867,0.019 z m -7.600564,-0.03348 -0.03683,-0.0435 0.0435,0.03683 c 0.04089,0.03461 0.0523,0.05018 0.03683,0.05018 -0.0036,0 -0.02324,-0.01959 -0.0435,-0.0435 z m -12.222396,-0.05317 c 0,-0.04785 0.0038,-0.06744 0.0084,-0.0435 0.0046,0.02393 0.0046,0.06309 0,0.08701 -0.0046,0.02393 -0.0084,0.0043 -0.0084,-0.0435 z m 3.311961,0.03301 c 0.0073,-0.01907 0.01807,-0.0298 0.02402,-0.02384 0.006,0.006 1.2e-5,0.02154 -0.01325,0.03467 -0.0191,0.01895 -0.02132,0.01673 -0.01088,-0.01088 z m 16.704352,-0.06641 c 0.03019,-0.03083 0.725068,-0.490358 0.725068,-0.479499 0,0.0053 -0.15444,0.112598 -0.343201,0.238387 -0.360865,0.240494 -0.414324,0.274246 -0.381867,0.241112 z M 64.707491,75.904006 c 0.04153,-0.04254 0.07987,-0.07734 0.08518,-0.07734 0.0053,0 -0.02432,0.03481 -0.06585,0.07734 -0.04153,0.04254 -0.07987,0.07734 -0.08518,0.07734 -0.0053,0 0.02432,-0.03481 0.06585,-0.07734 z m 8.002927,0.03384 -0.03683,-0.0435 0.04351,0.03683 c 0.04088,0.03461 0.0523,0.05017 0.03683,0.05017 -0.0036,0 -0.02324,-0.01956 -0.0435,-0.0435 z m 11.02289,-0.0725 c 0.01924,-0.02128 0.03934,-0.03867 0.04466,-0.03867 0.0053,0 -0.0061,0.0174 -0.02532,0.03867 -0.01924,0.02128 -0.03934,0.03867 -0.04467,0.03867 -0.0053,0 0.0061,-0.0174 0.02533,-0.03867 z m -1.254678,-0.0043 c 0.01681,-0.03792 0.140096,-0.135156 0.136007,-0.107254 -0.002,0.01353 -0.0106,0.02462 -0.01906,0.02462 -0.0085,0 -0.0239,0.01512 -0.03423,0.03359 -0.02324,0.04154 -0.0994,0.08668 -0.08272,0.04902 z m -9.903559,-0.07779 -0.03683,-0.0435 0.0435,0.03683 c 0.04088,0.03461 0.0523,0.05018 0.03683,0.05018 -0.0036,0 -0.02324,-0.01956 -0.0435,-0.0435 z m 11.225908,0.01685 c 0,-0.004 0.01524,-0.01924 0.03383,-0.03383 0.03066,-0.02405 0.03135,-0.02338 0.0073,0.0073 -0.02525,0.03221 -0.04114,0.04245 -0.04114,0.02655 z m -23.197338,-0.0797 c 2.15e-4,-0.04254 0.0042,-0.05766 0.0088,-0.03361 0.0046,0.02405 0.0045,0.05886 -3.78e-4,0.07734 -0.0049,0.01848 -0.0087,-0.0011 -0.0084,-0.04372 z m 4.30687,0 c 0.02497,-0.0266 0.04976,-0.04834 0.05508,-0.04834 0.0053,0 -0.01074,0.02175 -0.03574,0.04834 -0.02497,0.02658 -0.04976,0.04834 -0.05508,0.04834 -0.0053,0 0.01074,-0.02175 0.03574,-0.04834 z m 17.732624,-0.0049 c 0.0014,-0.008 0.05997,-0.06646 0.13051,-0.129967 l 0.12825,-0.115471 -0.125125,0.129966 c -0.127176,0.132101 -0.137653,0.141159 -0.133635,0.115472 z m -10.193368,-0.07734 -0.04687,-0.05317 0.05317,0.04687 c 0.02924,0.02579 0.05317,0.04971 0.05317,0.05318 0,0.01515 -0.01567,0.0028 -0.05947,-0.04687 z m -7.413579,-0.02416 c 0.01925,-0.02127 0.03934,-0.03867 0.04467,-0.03867 0.0053,0 -0.0061,0.0174 -0.02532,0.03867 -0.01925,0.02128 -0.03934,0.03867 -0.04467,0.03867 -0.0053,0 0.0061,-0.0174 0.02532,-0.03867 z m 7.326196,-0.08217 -0.03683,-0.0435 0.0435,0.03683 c 0.04089,0.03461 0.0523,0.05018 0.03683,0.05018 -0.0036,0 -0.02324,-0.01956 -0.0435,-0.0435 z m -7.206648,0.0106 c -0.01311,-0.02116 0.05741,-0.09623 0.0744,-0.07924 0.0056,0.0056 -0.0061,0.03008 -0.02605,0.05458 -0.02126,0.02626 -0.04113,0.03638 -0.04837,0.02465 z m -4.57143,-0.131403 c 2.14e-4,-0.04254 0.0042,-0.05766 0.0088,-0.03361 0.0046,0.02405 0.0045,0.05886 -3.78e-4,0.07734 -0.0049,0.01848 -0.0086,-0.0011 -0.0084,-0.04374 z m 22.329341,0.05317 c 0.0011,-0.008 0.05117,-0.05772 0.111175,-0.110533 l 0.109096,-0.09604 -0.105678,0.110533 c -0.107771,0.112723 -0.118248,0.121498 -0.114593,0.09604 z m -10.647938,-0.04834 -0.03683,-0.0435 0.0435,0.03683 c 0.04088,0.03461 0.0523,0.05018 0.03683,0.05018 -0.0036,0 -0.02324,-0.01959 -0.0435,-0.0435 z m 9.234383,0.01638 c 0,-0.0053 0.03916,-0.03661 0.08701,-0.06953 0.04785,-0.03292 0.08701,-0.05551 0.08701,-0.0502 0,0.0053 -0.03915,0.03661 -0.08701,0.06953 -0.04785,0.03292 -0.08701,0.05551 -0.08701,0.0502 z m -17.130967,-0.0696 c 0.01144,-0.02128 0.02504,-0.03867 0.03037,-0.03867 0.0053,0 3.52e-4,0.0174 -0.01102,0.03867 -0.01144,0.02128 -0.02504,0.03867 -0.03036,0.03867 -0.0053,0 -3.52e-4,-0.0174 0.01102,-0.03867 z m 3.388858,0.0059 c 0.01881,-0.0049 0.04492,-0.0046 0.05801,8.12e-4 0.01311,0.0053 -0.0022,0.0093 -0.03421,0.0089 -0.03191,-2.7e-4 -0.04261,-0.0047 -0.02381,-0.0096 z m 0.16398,5.41e-4 c 0.01325,-0.0053 0.03504,-0.0053 0.04834,0 0.01325,0.0053 0.0024,0.0098 -0.02416,0.0098 -0.0266,0 -0.03746,-0.0043 -0.02416,-0.0098 z m 4.227734,-0.0887 -0.03683,-0.0435 0.0435,0.03683 c 0.04089,0.03461 0.0523,0.05017 0.03683,0.05017 -0.0036,0 -0.02324,-0.01959 -0.0435,-0.0435 z m 11.00452,-0.04863 c 0.01004,-0.0081 0.04448,-0.03638 0.07638,-0.06276 l 0.05801,-0.04798 -0.05679,0.06276 c -0.03124,0.03451 -0.0656,0.06276 -0.07637,0.06276 -0.01214,0 -0.0127,-0.0056 -0.0014,-0.0148 z m -1.344759,-0.01186 c 0,-0.004 0.01523,-0.01924 0.03383,-0.03383 0.03066,-0.02405 0.03135,-0.02335 0.0073,0.0073 -0.02525,0.03221 -0.04113,0.04245 -0.04113,0.02655 z m -9.756437,-0.05554 -0.03683,-0.0435 0.0435,0.03683 c 0.04089,0.03461 0.0523,0.05018 0.03683,0.05018 -0.0036,0 -0.02324,-0.01956 -0.0435,-0.0435 z m -11.489157,-0.02416 c 4.06e-4,-0.0319 0.0047,-0.04262 0.0096,-0.02381 0.0049,0.01881 0.0046,0.04492 -7.03e-4,0.05801 -0.0053,0.01311 -0.0093,-0.0022 -0.0089,-0.03421 z m 21.322934,0.02224 c 0,-0.0045 0.02281,-0.02308 0.05071,-0.04135 0.0279,-0.01826 0.04481,-0.02367 0.0376,-0.012 -0.01381,0.02232 -0.08831,0.06734 -0.08831,0.05335 z m -9.949789,-0.133412 -0.03683,-0.0435 0.04351,0.03683 c 0.04088,0.03461 0.0523,0.05018 0.03683,0.05018 -0.0036,0 -0.02324,-0.01956 -0.0435,-0.0435 z m 11.50627,-0.0725 c 0.06314,-0.06381 0.119155,-0.116015 0.12447,-0.116015 0.0053,0 -0.04199,0.0522 -0.105134,0.116015 -0.06314,0.06381 -0.119154,0.116016 -0.124469,0.116016 -0.0053,0 0.04199,-0.0522 0.105133,-0.116016 z m -18.842132,0.07003 c 0,-0.004 0.01522,-0.01924 0.03383,-0.03383 0.03066,-0.02405 0.03135,-0.02338 0.0073,0.0073 -0.02527,0.03221 -0.04114,0.04245 -0.04114,0.02655 z m 19.973239,0.0014 c 0,-0.0033 0.02828,-0.03161 0.06283,-0.06283 l 0.06283,-0.05679 -0.05679,0.06284 c -0.05293,0.05858 -0.06889,0.07172 -0.06889,0.05679 z m -2.378226,-0.0792 c 0,-0.0036 0.01297,-0.01754 0.029,-0.03076 0.01673,-0.01395 0.029,-0.01575 0.029,-0.0045 0,0.01074 -0.01297,0.02465 -0.029,0.03076 -0.01595,0.0061 -0.029,0.0081 -0.029,0.0045 z m -21.650524,-0.0791 c 2.15e-4,-0.04254 0.0042,-0.05766 0.0088,-0.03361 0.0046,0.02405 0.0045,0.05886 -3.79e-4,0.07734 -0.0049,0.01848 -0.0087,-0.0011 -0.0084,-0.04372 z m 11.266069,0.01451 -0.04687,-0.05317 0.05317,0.04687 c 0.02924,0.02578 0.05317,0.04971 0.05317,0.05317 0,0.01515 -0.01567,0.0028 -0.05947,-0.04687 z m -7.066758,-0.04986 c 0.02977,-0.03905 0.05805,-0.07098 0.06284,-0.07098 0.01339,0 -0.07027,0.1131 -0.09503,0.128404 -0.01214,0.0075 0.0024,-0.01837 0.0322,-0.05742 z m 17.586557,0.01867 c 0,-0.0053 0.02612,-0.02825 0.05801,-0.05098 0.03191,-0.02273 0.05801,-0.03696 0.05801,-0.03164 0,0.0053 -0.02612,0.02825 -0.05801,0.05098 -0.03191,0.02273 -0.05801,0.03696 -0.05801,0.03164 z m -10.626516,-0.09447 -0.03683,-0.0435 0.0435,0.03683 c 0.02393,0.02027 0.0435,0.03983 0.0435,0.0435 0,0.01547 -0.01556,0.004 -0.05018,-0.03683 z m 10.761863,-0.0024 c 0,-0.004 0.01524,-0.01924 0.03383,-0.03383 0.03066,-0.02405 0.03135,-0.02335 0.0073,0.0073 -0.02525,0.03221 -0.04114,0.04245 -0.04114,0.02655 z M 64.83317,74.717432 c 0,-0.004 0.01522,-0.01924 0.03383,-0.03383 0.03066,-0.02405 0.03135,-0.02335 0.0073,0.0073 -0.02527,0.03221 -0.04114,0.04245 -0.04114,0.02655 z m -4.307259,-0.07003 c 0,-0.03722 0.004,-0.05244 0.0088,-0.03383 0.0049,0.01863 0.0049,0.04907 0,0.06768 -0.0049,0.01862 -0.0088,0.0033 -0.0088,-0.03383 z m 22.076288,0.012 c 0,-0.004 0.01523,-0.01924 0.03383,-0.03383 0.03066,-0.02405 0.03135,-0.02335 0.0073,0.0073 -0.02525,0.03221 -0.04114,0.04245 -0.04114,0.02655 z m -11.060763,-0.08454 -0.06663,-0.0725 0.0725,0.06663 c 0.06748,0.06201 0.0814,0.07838 0.06663,0.07838 -0.0032,0 -0.03585,-0.03263 -0.0725,-0.0725 z m -6.630925,0.04587 c 0,-0.004 0.01522,-0.01924 0.03383,-0.03383 0.03066,-0.02405 0.03135,-0.02338 0.0073,0.0073 -0.02526,0.03221 -0.04114,0.04245 -0.04114,0.02655 z m 20.089251,-0.03867 c 0,-0.004 0.01523,-0.01924 0.03383,-0.03383 0.03066,-0.02405 0.03135,-0.02335 0.0073,0.0073 -0.02525,0.03221 -0.04114,0.04245 -0.04114,0.02655 z m -20.011911,-0.05675 c 0,-0.0033 0.02828,-0.0316 0.06284,-0.06283 l 0.06283,-0.05679 -0.05679,0.06283 c -0.05294,0.05858 -0.06889,0.07174 -0.06889,0.05679 z m 17.856038,-0.05195 c 0.0066,-0.0106 0.01578,-0.01935 0.02048,-0.01935 0.0047,0 0.0085,0.0087 0.0085,0.01935 0,0.0106 -0.0092,0.01932 -0.02048,0.01932 -0.0113,0 -0.01509,-0.0086 -0.0085,-0.01932 z m -22.338031,-0.04834 c 4.06e-4,-0.03191 0.0047,-0.04262 0.0096,-0.02379 0.0049,0.01881 0.0046,0.04492 -7.05e-4,0.05801 -0.0053,0.01311 -0.0093,-0.0024 -0.0089,-0.03421 z m 10.861562,-0.0435 -0.06663,-0.0725 0.0725,0.06663 c 0.03987,0.03665 0.0725,0.06928 0.0725,0.0725 0,0.01477 -0.01638,8.12e-4 -0.07838,-0.06663 z m 11.582812,0.02778 c 0,-0.0047 0.03195,-0.03305 0.07098,-0.06283 0.03903,-0.02977 0.06489,-0.04427 0.05742,-0.0322 -0.01529,0.02476 -0.128404,0.108454 -0.128404,0.09503 z m -17.76903,-0.100276 c 0.03608,-0.03722 0.06994,-0.06768 0.07527,-0.06768 0.0053,0 -0.01985,0.03046 -0.05593,0.06768 -0.03608,0.03722 -0.06994,0.06768 -0.07527,0.06768 -0.0053,0 0.01985,-0.03046 0.05593,-0.06768 z m 20.098919,-0.029 c 0.01924,-0.02128 0.03934,-0.03867 0.04466,-0.03867 0.0053,0 -0.0061,0.0174 -0.02533,0.03867 -0.01924,0.02127 -0.03934,0.03867 -0.04467,0.03867 -0.0053,0 0.0061,-0.0174 0.02533,-0.03867 z m -2.175207,0.01228 c 0,-0.0053 0.02612,-0.02827 0.05801,-0.05098 0.03191,-0.02273 0.05801,-0.03696 0.05801,-0.03164 0,0.0053 -0.02612,0.02825 -0.05801,0.05098 -0.0319,0.0227 -0.05801,0.03696 -0.05801,0.03164 z m -22.619108,-0.07031 c 0,-0.0266 0.0043,-0.03746 0.0098,-0.02416 0.0053,0.01325 0.0053,0.03504 0,0.04834 -0.0053,0.01325 -0.0098,0.0024 -0.0098,-0.02416 z m 4.869413,-0.103627 c 0.05848,-0.06168 0.184651,-0.182641 0.28036,-0.268823 0.204115,-0.183796 0.126604,-0.103529 -0.174016,0.180212 -0.116978,0.110407 -0.164833,0.150284 -0.106348,0.08862 z m -4.888031,-0.09938 c 4.05e-4,-0.03191 0.0047,-0.04262 0.0096,-0.02381 0.0049,0.01881 0.0046,0.04492 -7.05e-4,0.05801 -0.0053,0.01311 -0.0093,-0.0022 -0.0089,-0.03421 z m 23.005095,0.0024 c 0,-0.004 0.01523,-0.01924 0.03383,-0.03383 0.03066,-0.02405 0.03135,-0.02338 0.0073,0.0073 -0.02525,0.03221 -0.04113,0.04245 -0.04113,0.02655 z m -12.655787,-0.190884 -0.07642,-0.08217 0.08217,0.07644 c 0.07642,0.07108 0.09106,0.08792 0.07644,0.08792 -0.0032,0 -0.04014,-0.03698 -0.08217,-0.08217 z m 12.810467,0.07487 c 0,-0.004 0.01523,-0.01924 0.03383,-0.03383 0.03066,-0.02405 0.03135,-0.02338 0.0073,0.0073 -0.02528,0.03221 -0.04114,0.04245 -0.04114,0.02655 z m 0.986095,-0.118373 c 0.06851,-0.06913 0.128906,-0.125683 0.134235,-0.125683 0.0053,0 -0.04639,0.05656 -0.114899,0.125683 -0.06851,0.06913 -0.128906,0.125684 -0.134236,0.125684 -0.0053,0 0.04639,-0.05656 0.1149,-0.125684 z m -24.165922,0.04834 c 0,-0.0266 0.0043,-0.03746 0.0098,-0.02416 0.0053,0.01325 0.0053,0.03504 0,0.04834 -0.0053,0.01325 -0.0098,0.0024 -0.0098,-0.02416 z m 23.257168,0.012 c 0,-0.004 0.01523,-0.01924 0.03383,-0.03383 0.03066,-0.02405 0.03135,-0.02338 0.0073,0.0073 -0.02525,0.03221 -0.04114,0.04245 -0.04114,0.02655 z m 0.07734,-0.05801 c 0,-0.004 0.01523,-0.01924 0.03383,-0.03383 0.03066,-0.02405 0.03135,-0.02335 0.0073,0.0073 -0.02525,0.03221 -0.04114,0.04245 -0.04114,0.02655 z m -13.149385,-0.123214 -0.04687,-0.05317 0.05318,0.04687 c 0.02924,0.0258 0.05317,0.04971 0.05317,0.05317 0,0.01515 -0.01567,0.0028 -0.05947,-0.04687 z m -4.774327,-0.01451 c 0.02497,-0.0266 0.04976,-0.04834 0.05508,-0.04834 0.0053,0 -0.01074,0.02176 -0.03574,0.04834 -0.02497,0.02658 -0.04976,0.04834 -0.05508,0.04834 -0.0053,0 0.01074,-0.02176 0.03574,-0.04834 z m -5.430132,-0.0096 c 0,-0.02658 0.0043,-0.03746 0.0098,-0.02416 0.0053,0.01325 0.0053,0.03504 0,0.04834 -0.0053,0.01325 -0.0098,0.0024 -0.0098,-0.02416 z m 10.097742,-0.06284 -0.03683,-0.0435 0.0435,0.03683 c 0.02393,0.02027 0.04351,0.03983 0.04351,0.0435 0,0.01547 -0.01556,0.004 -0.05018,-0.03683 z m -4.535829,-0.02932 c 0.07687,-0.06928 0.235588,-0.184784 0.235588,-0.171444 0,0.0052 -0.05438,0.05043 -0.120842,0.100488 -0.161649,0.121721 -0.19169,0.140305 -0.114746,0.07096 z m 18.130296,-0.02384 c 0.01924,-0.02128 0.03934,-0.03867 0.04467,-0.03867 0.0053,0 -0.0061,0.0174 -0.02533,0.03867 -0.01924,0.02128 -0.03934,0.03867 -0.04466,0.03867 -0.0053,0 0.0061,-0.0174 0.02533,-0.03867 z m -23.711543,-0.03867 c 0,-0.02658 0.0043,-0.03746 0.0098,-0.02416 0.0053,0.01325 0.0053,0.03505 0,0.04834 -0.0053,0.01325 -0.0098,0.0024 -0.0098,-0.02416 z m 10.010102,0.0049 c -0.02405,-0.03066 -0.02335,-0.03135 0.0073,-0.0073 0.01863,0.01458 0.03383,0.02983 0.03383,0.03383 0,0.0159 -0.01589,0.0057 -0.04113,-0.02655 z m 14.522377,-0.04834 c 0.08012,-0.08536 0.09749,-0.100725 0.09749,-0.0862 0,0.0031 -0.04134,0.04443 -0.09184,0.09184 l -0.09184,0.0862 z m -0.753263,0.03744 c 0,-0.0047 0.03195,-0.03305 0.07098,-0.06284 0.03905,-0.02977 0.06489,-0.04427 0.05742,-0.0322 -0.01529,0.02476 -0.128404,0.108454 -0.128404,0.09503 z m 0.154682,-0.117257 c 0,-0.004 0.01523,-0.01924 0.03383,-0.03383 0.03066,-0.02405 0.03135,-0.02338 0.0073,0.0073 -0.02525,0.03221 -0.04114,0.04245 -0.04114,0.02655 z M 60.38913,73.294031 c 0,-0.02661 0.0043,-0.03746 0.0098,-0.02416 0.0053,0.01325 0.0053,0.03504 0,0.04834 -0.0053,0.01325 -0.0098,0.0024 -0.0098,-0.02416 z m 5.922072,0.02114 c 0.0073,-0.01172 0.04096,-0.03481 0.07485,-0.0512 0.05718,-0.02766 0.05884,-0.02755 0.02295,0.0017 -0.05873,0.04761 -0.113811,0.07559 -0.09778,0.04965 z m 3.797778,-0.0416 -0.04565,-0.03982 0.05317,0.03238 c 0.02924,0.0178 0.05317,0.03573 0.05317,0.03982 0,0.0151 -0.01615,0.0066 -0.0607,-0.03237 z m 15.055127,-0.0762 c 0.04153,-0.04254 0.07987,-0.07734 0.08518,-0.07734 0.0053,0 -0.02433,0.03481 -0.06585,0.07734 -0.04153,0.04254 -0.07987,0.07734 -0.08518,0.07734 -0.0053,0 0.02433,-0.03481 0.06585,-0.07734 z m -0.638059,0.01932 c 0.01924,-0.02127 0.03934,-0.03867 0.04466,-0.03867 0.0053,0 -0.0061,0.0174 -0.02533,0.03867 -0.01924,0.02128 -0.03934,0.03867 -0.04467,0.03867 -0.0053,0 0.0061,-0.0174 0.02533,-0.03867 z m -18.068726,0.01102 c 0,-0.0053 0.0174,-0.01897 0.03867,-0.03036 0.02126,-0.01144 0.03867,-0.01635 0.03867,-0.01102 0,0.0053 -0.0174,0.01897 -0.03867,0.03037 -0.02128,0.01144 -0.03867,0.01635 -0.03867,0.01102 z m -6.087527,-0.08836 c 0,-0.0266 0.0043,-0.03746 0.0098,-0.02416 0.0053,0.01325 0.0053,0.03504 0,0.04834 -0.0053,0.01325 -0.0098,0.0024 -0.0098,-0.02416 z m 6.184204,0.02999 c 0,-0.0053 0.0261,-0.02316 0.05801,-0.03966 0.03191,-0.0165 0.05801,-0.02566 0.05801,-0.02033 0,0.0053 -0.0261,0.02316 -0.05801,0.03966 -0.03191,0.0165 -0.05801,0.02566 -0.05801,0.02033 z m 18.03972,0.0014 c 0,-0.004 0.01523,-0.01924 0.03384,-0.03383 0.03066,-0.02405 0.03135,-0.02335 0.0073,0.0073 -0.02525,0.03221 -0.04114,0.04245 -0.04114,0.02655 z m -14.796245,-0.0811 c -0.07228,-0.03922 -0.06789,-0.05555 0.0049,-0.01794 0.0319,0.0165 0.05801,0.03412 0.05801,0.03917 0,0.01242 -0.0022,0.01172 -0.06283,-0.02122 z m 15.472976,-0.01431 c 0,-0.0033 0.02828,-0.0316 0.06283,-0.06283 l 0.06285,-0.05679 -0.05679,0.06283 c -0.05293,0.05858 -0.06889,0.07172 -0.06889,0.05679 z m -15.642158,-0.07129 c -0.03722,-0.02038 -0.05897,-0.03705 -0.04834,-0.03705 0.0106,0 0.04979,0.01667 0.08701,0.03705 0.03722,0.02038 0.05897,0.03705 0.04834,0.03705 -0.0106,0 -0.04979,-0.01667 -0.08701,-0.03705 z m -9.279359,-0.03061 c 9.2e-4,-0.02252 0.0054,-0.02711 0.01172,-0.01172 0.0056,0.01396 0.0049,0.03064 -0.0015,0.03705 -0.0064,0.0064 -0.01102,-0.005 -0.01018,-0.02538 z m 6.572434,0.0017 c 0.02659,-0.01521 0.05705,-0.02764 0.06768,-0.02764 0.0106,0 -0.0024,0.01242 -0.029,0.02764 -0.02659,0.01521 -0.05703,0.02764 -0.06768,0.02764 -0.0106,0 0.0024,-0.01242 0.029,-0.02764 z m 17.923712,0.0024 c 0,-0.004 0.01523,-0.01924 0.03383,-0.03383 0.03066,-0.02405 0.03135,-0.02335 0.0073,0.0073 -0.02525,0.03221 -0.04114,0.04245 -0.04114,0.02655 z m 0.560718,-0.05675 c 0,-0.0033 0.02828,-0.0316 0.06284,-0.06283 l 0.06283,-0.05679 -0.05679,0.06283 c -0.05293,0.05858 -0.06889,0.07172 -0.06889,0.05679 z m -0.464043,-0.02059 c 0,-0.004 0.01523,-0.01924 0.03383,-0.03383 0.03066,-0.02405 0.03135,-0.02338 0.0073,0.0073 -0.02525,0.03221 -0.04114,0.04245 -0.04114,0.02655 z m -24.610632,-0.06995 c 0,-0.02661 0.0043,-0.03746 0.0098,-0.02416 0.0053,0.01325 0.0053,0.03504 0,0.04834 -0.0053,0.01325 -0.0098,0.0024 -0.0098,-0.02416 z m 6.967278,0 c 0.05315,-0.02284 0.08368,-0.02284 0.04834,0 -0.01596,0.01032 -0.04205,0.01826 -0.05801,0.01767 -0.01913,-8.12e-4 -0.01583,-0.0067 0.0096,-0.01767 z m 17.720692,0.012 c 0,-0.004 0.01523,-0.01924 0.03383,-0.03383 0.03066,-0.02405 0.03135,-0.02338 0.0073,0.0073 -0.02525,0.03221 -0.04114,0.04245 -0.04114,0.02655 z M 67.47846,72.778331 c 0.01396,-0.0056 0.03064,-0.0049 0.03705,0.0017 0.0064,0.0064 -0.005,0.01102 -0.02538,0.01019 -0.02252,-8.12e-4 -0.02711,-0.0056 -0.01172,-0.01172 z m 0.07734,-0.01932 c 0.01396,-0.0056 0.03064,-0.0049 0.03705,0.0017 0.0064,0.0064 -0.005,0.01102 -0.02538,0.01018 -0.02252,-8.12e-4 -0.02711,-0.0056 -0.01172,-0.01172 z m 1.411471,0 c 0.01396,-0.0056 0.03064,-0.0049 0.03705,0.0017 0.0064,0.0064 -0.005,0.01102 -0.02538,0.01018 -0.02252,-8.12e-4 -0.02711,-0.0056 -0.01172,-0.01172 z m 16.148498,0.0059 c 0,-0.004 0.01523,-0.01924 0.03383,-0.03383 0.03066,-0.02405 0.03135,-0.02335 0.0073,0.0073 -0.02525,0.03221 -0.04114,0.04245 -0.04114,0.02655 z m 0.464043,-0.04104 c 0.02497,-0.0266 0.04976,-0.04834 0.05508,-0.04834 0.0053,0 -0.01074,0.02175 -0.03574,0.04834 -0.02497,0.02658 -0.04976,0.04834 -0.05508,0.04834 -0.0053,0 0.01074,-0.02175 0.03574,-0.04834 z m -17.927336,0.01581 c 0.01396,-0.0056 0.03064,-0.0049 0.03707,0.0017 0.0064,0.0064 -0.005,0.01102 -0.02538,0.01018 -0.02252,-8.12e-4 -0.02711,-0.0056 -0.01172,-0.01172 z m 1.237454,0 c 0.01396,-0.0056 0.03064,-0.0049 0.03705,0.0017 0.0064,0.0064 -0.005,0.01102 -0.02539,0.01018 -0.02252,-8.12e-4 -0.02711,-0.0056 -0.01172,-0.01172 z m -1.141986,-0.01895 c 0.01325,-0.0053 0.03504,-0.0053 0.04834,0 0.01325,0.0053 0.0024,0.0098 -0.02416,0.0098 -0.02658,0 -0.03746,-0.0043 -0.02416,-0.0098 z m 1.04531,-2.7e-4 c 0.01396,-0.0056 0.03064,-0.0049 0.03705,0.0017 0.0064,0.0064 -0.005,0.01102 -0.02539,0.01018 -0.02252,-8.12e-4 -0.02711,-0.0056 -0.01172,-0.01172 z m -8.481467,-0.04512 c 0,-0.02661 0.0043,-0.03746 0.0098,-0.02416 0.0053,0.01325 0.0053,0.03504 0,0.04834 -0.0053,0.01325 -0.0098,0.0024 -0.0098,-0.02416 z m 7.5425,0.02533 c 0.01863,-0.0049 0.04907,-0.0049 0.06768,0 0.01863,0.0049 0.0033,0.0088 -0.03383,0.0088 -0.03722,0 -0.05244,-0.004 -0.03383,-0.0088 z m 0.802411,5.4e-4 c 0.01325,-0.0053 0.03504,-0.0053 0.04834,0 0.01325,0.0053 0.0024,0.0098 -0.02416,0.0098 -0.02658,0 -0.03746,-0.0043 -0.02416,-0.0098 z m 16.53641,0.0054 c 0,-0.004 0.01523,-0.01924 0.03385,-0.03383 0.03066,-0.02405 0.03135,-0.02335 0.0073,0.0073 -0.02525,0.03221 -0.04114,0.04245 -0.04114,0.02655 z m -17.135573,-0.02571 c 0.02405,-0.0046 0.05886,-0.0045 0.07734,2.7e-4 0.01848,0.0049 -0.0011,0.0087 -0.04374,0.0084 -0.04254,-2.14e-4 -0.05766,-0.0042 -0.03361,-0.0088 z m 0.155664,5.41e-4 c 0.01396,-0.0056 0.03064,-0.0049 0.03705,0.0017 0.0064,0.0064 -0.005,0.01102 -0.02538,0.01018 -0.02252,-8.12e-4 -0.02711,-0.0056 -0.01172,-0.01172 z m 0.230811,-5.41e-4 c 0.02393,-0.0046 0.06309,-0.0046 0.08701,0 0.02393,0.0046 0.0043,0.0084 -0.0435,0.0084 -0.04785,0 -0.06743,-0.0038 -0.0435,-0.0084 z m 16.845776,-0.05166 c 0,-0.004 0.01523,-0.01924 0.03383,-0.03383 0.03066,-0.02405 0.03135,-0.02335 0.0073,0.0073 -0.02525,0.03221 -0.04114,0.04245 -0.04114,0.02655 z m 0.396369,-0.03138 c 0.01924,-0.02128 0.03934,-0.03867 0.04467,-0.03867 0.0053,0 -0.0061,0.0174 -0.02534,0.03867 -0.01924,0.02128 -0.03934,0.03867 -0.04467,0.03867 -0.0053,0 0.0061,-0.0174 0.02533,-0.03867 z m -25.395228,-0.04994 c 9.19e-4,-0.02252 0.0054,-0.02711 0.01172,-0.01172 0.0056,0.01396 0.0049,0.03064 -0.0015,0.03705 -0.0064,0.0064 -0.01102,-0.005 -0.01018,-0.02538 z m 25.50158,-0.08569 c 0.03369,-0.04254 0.06561,-0.07734 0.07093,-0.07734 0.0053,0 -0.01789,0.03481 -0.05159,0.07734 -0.03369,0.04254 -0.06561,0.07734 -0.07093,0.07734 -0.0053,0 0.01789,-0.03481 0.05159,-0.07734 z m -25.519383,-0.07734 c 0,-0.02658 0.0043,-0.03746 0.0098,-0.02416 0.0053,0.01325 0.0053,0.03504 0,0.04834 -0.0053,0.01325 -0.0098,0.0024 -0.0098,-0.02416 z m 25.28736,0.03226 c 0,-0.0053 0.03481,-0.03724 0.07734,-0.07093 0.04254,-0.03369 0.07734,-0.05691 0.07734,-0.05159 0,0.0053 -0.03481,0.03723 -0.07734,0.07093 -0.04254,0.03369 -0.07734,0.05691 -0.07734,0.05159 z m -25.308225,-0.15941 c 9.19e-4,-0.02252 0.0054,-0.02711 0.01172,-0.01172 0.0056,0.01396 0.0049,0.03064 -0.0015,0.03705 -0.0064,0.0064 -0.01102,-0.005 -0.01018,-0.02538 z m 25.501575,0.004 c 0,-0.004 0.01523,-0.01924 0.03383,-0.03383 0.03066,-0.02405 0.03135,-0.02338 0.0073,0.0073 -0.02528,0.03221 -0.04114,0.04245 -0.04114,0.02655 z M 60.232923,72.122492 c 9.2e-4,-0.02252 0.0054,-0.02711 0.01172,-0.01172 0.0056,0.01396 0.0049,0.03064 -0.0015,0.03705 -0.0064,0.0064 -0.01102,-0.005 -0.01018,-0.02538 z m -0.03715,-0.259412 c 0,-0.02658 0.0043,-0.03746 0.0098,-0.02416 0.0053,0.01325 0.0053,0.03504 0,0.04834 -0.0053,0.01325 -0.0098,0.0024 -0.0098,-0.02416 z m -0.02086,-0.127288 c 9.2e-4,-0.02252 0.0054,-0.02711 0.01172,-0.01172 0.0056,0.01396 0.0049,0.03064 -0.0015,0.03705 -0.0064,0.0064 -0.01102,-0.005 -0.01018,-0.02538 z m -0.01934,-0.135337 c 9.2e-4,-0.02252 0.0054,-0.02711 0.01172,-0.01172 0.0056,0.01396 0.0049,0.03064 -0.0015,0.03705 -0.0064,0.0064 -0.01102,-0.005 -0.01018,-0.02538 z m -0.07734,-0.464046 c 9.21e-4,-0.02252 0.0054,-0.02711 0.01172,-0.01172 0.0056,0.01396 0.0049,0.03064 -0.0015,0.03707 -0.0064,0.0064 -0.01102,-0.005 -0.01018,-0.02538 z m -0.09668,-0.541386 c 9.19e-4,-0.02252 0.0054,-0.02711 0.01172,-0.01172 0.0056,0.01396 0.0049,0.03064 -0.0015,0.03705 -0.0064,0.0064 -0.01102,-0.005 -0.01018,-0.02538 z m -0.09668,-0.502712 c 9.21e-4,-0.02252 0.0056,-0.02711 0.01172,-0.01172 0.0056,0.01396 0.0049,0.03064 -0.0015,0.03705 -0.0064,0.0064 -0.01102,-0.005 -0.01018,-0.02538 z m -0.01934,-0.09668 c 9.21e-4,-0.02252 0.0056,-0.02711 0.01172,-0.01172 0.0056,0.01396 0.0049,0.03064 -0.0015,0.03705 -0.0064,0.0064 -0.01102,-0.005 -0.01018,-0.02539 z m 0.9139,-0.01857 c -0.0063,-0.01639 -0.006,-0.03527 5.95e-4,-0.0419 0.0067,-0.0067 0.012,0.0017 0.012,0.01857 0,0.01683 0.01088,0.035 0.02416,0.04036 0.01893,0.0077 0.01879,0.01004 -5.95e-4,0.0113 -0.01367,8.12e-4 -0.02993,-0.01186 -0.03623,-0.02831 z m -0.933234,-0.07811 c 9.2e-4,-0.02252 0.0054,-0.02711 0.01172,-0.01172 0.0056,0.01396 0.0049,0.03064 -0.0015,0.03705 -0.0064,0.0064 -0.01102,-0.005 -0.01018,-0.02538 z m -0.03053,-0.298084 c 0.01925,-0.02128 0.03934,-0.03867 0.04467,-0.03867 0.0053,0 -0.0061,0.0174 -0.02533,0.03867 -0.01925,0.02128 -0.03934,0.03867 -0.04467,0.03867 -0.0053,0 0.0061,-0.0174 0.02533,-0.03867 z m 0.218729,-0.09055 c 0.01395,-0.0056 0.03064,-0.0049 0.03705,0.0017 0.0064,0.0064 -0.005,0.01102 -0.02538,0.01018 -0.02253,-8.1e-4 -0.02711,-0.0056 -0.01172,-0.01172 z m 0.444709,0 c 0.01395,-0.0056 0.03064,-0.0049 0.03705,0.0017 0.0064,0.0064 -0.005,0.01102 -0.02538,0.01018 -0.02253,-8.1e-4 -0.02711,-0.0056 -0.01172,-0.01172 z"
       id="path5" /><path
       style="fill:#d5881d;stroke-width:1"
       d="m 79.324886,86.286704 c -0.07108,-0.01607 -0.130148,-0.02646 -0.435041,-0.07646 -0.0585,-0.0096 -0.184651,-0.03073 -0.280359,-0.04697 -0.553804,-0.09399 -1.380091,-0.216863 -1.769171,-0.2631 -0.07976,-0.0095 -0.245072,-0.03025 -0.367368,-0.04614 -0.349343,-0.04541 -0.876446,-0.104352 -1.140776,-0.127581 -0.132923,-0.01172 -0.306945,-0.02918 -0.386702,-0.0389 -0.07976,-0.0098 -0.258127,-0.02701 -0.396372,-0.03846 -0.138253,-0.01144 -0.347065,-0.02935 -0.464045,-0.03982 -0.267854,-0.02395 -1.293754,-0.08722 -1.865844,-0.115081 -1.433733,-0.06984 -3.400796,-0.06966 -4.746788,5.42e-4 -0.634263,0.03302 -1.334736,0.07733 -1.546813,0.09784 -0.106347,0.01032 -0.297761,0.02704 -0.425374,0.03723 -0.329192,0.0263 -0.618401,0.05435 -0.908754,0.08817 -0.437916,0.05099 -0.768996,0.08691 -0.910536,0.09879 -0.165407,0.01395 -0.156381,0.02783 -0.182017,-0.281491 -0.03577,-0.431566 -0.0141,-1.052231 0.03785,-1.084338 0.0127,-0.0078 0.102943,-0.01984 0.200535,-0.02666 0.09759,-0.0068 0.277504,-0.0207 0.399798,-0.03089 1.81384,-0.150993 3.876708,-0.217013 5.549197,-0.177591 1.112835,0.02623 1.973292,0.06847 2.784266,0.136663 0.711394,0.05984 0.889678,0.07794 1.546813,0.157155 0.531643,0.06409 0.866384,0.113518 1.575819,0.232717 1.160582,0.194996 2.38623,0.504578 3.151631,0.796059 0.811467,0.309021 1.178471,0.57349 0.992208,0.715008 -0.05958,0.04527 -0.280549,0.0632 -0.412151,0.03343 z"
       id="path4" /><path
       style="fill:#0176b4;stroke-width:1"
       d="m 74.674775,80.137724 c -0.233224,-0.04542 -0.339115,-0.07592 -0.531717,-0.153141 -0.17306,-0.06938 -0.421948,-0.194944 -0.431819,-0.217854 -0.0035,-0.0082 -0.01489,-0.01497 -0.02522,-0.01497 -0.02503,0 -0.235928,-0.142523 -0.348045,-0.235213 -0.04933,-0.04078 -0.09718,-0.07422 -0.106347,-0.0743 -0.01729,-1.57e-4 -0.183344,-0.14354 -0.478564,-0.413223 -0.203331,-0.185743 -0.229108,-0.211169 -0.416077,-0.410405 -0.270989,-0.288765 -0.323903,-0.346286 -0.416127,-0.452346 -0.05085,-0.05848 -0.119531,-0.135867 -0.152603,-0.171956 -0.03308,-0.03609 -0.09958,-0.114774 -0.147788,-0.174847 -0.09856,-0.122823 -0.13125,-0.162079 -0.17818,-0.213989 -0.01789,-0.01978 -0.07009,-0.08315 -0.116016,-0.140805 -0.04591,-0.05766 -0.150627,-0.186587 -0.232685,-0.286507 -0.14708,-0.179097 -0.271359,-0.332039 -0.501127,-0.616715 -0.06437,-0.07976 -0.135617,-0.166766 -0.158302,-0.19335 -0.02267,-0.02661 -0.09226,-0.10925 -0.154584,-0.183684 -0.322084,-0.384663 -0.455911,-0.53128 -0.776529,-0.850751 -0.313654,-0.312528 -0.466691,-0.454375 -0.490225,-0.454375 -0.0091,0 -0.03234,-0.0174 -0.05159,-0.03867 -0.01924,-0.02126 -0.04217,-0.03867 -0.05095,-0.03867 -0.0088,0 -0.05989,-0.03326 -0.113601,-0.07391 -0.05371,-0.04065 -0.151775,-0.101758 -0.217916,-0.135798 -0.06614,-0.03403 -0.1333,-0.06966 -0.149256,-0.07917 -0.101925,-0.06078 -0.519049,-0.135588 -0.759112,-0.136146 -0.167863,-2.71e-4 -0.479837,0.04488 -0.601504,0.08728 -0.04392,0.01532 -0.0952,0.02796 -0.113951,0.02811 -0.01875,1.55e-4 -0.0492,0.0082 -0.06767,0.01808 -0.01847,0.0098 -0.08578,0.03654 -0.149586,0.05943 -0.113727,0.04083 -0.406557,0.169844 -0.444709,0.195929 -0.0106,0.0073 -0.08832,0.04886 -0.17265,0.09242 -0.156582,0.08089 -0.363586,0.212561 -0.37518,0.238649 -0.0035,0.008 -0.01477,0.01451 -0.02496,0.01451 -0.01019,0 -0.12221,0.07831 -0.248958,0.174016 -0.126743,0.0957 -0.235988,0.174018 -0.242764,0.174018 -0.012,0 -0.172418,0.13464 -0.366294,0.307493 -0.442406,0.394432 -1.015601,1.000135 -1.410668,1.490677 -0.169767,0.210793 -0.172593,0.213607 -0.155357,0.154681 0.04188,-0.143186 0.501312,-1.090324 0.620371,-1.278926 0.02561,-0.04057 0.04657,-0.07857 0.04657,-0.08444 0,-0.0174 0.365454,-0.60562 0.480369,-0.773171 0.195252,-0.284687 0.480214,-0.655494 0.661222,-0.860415 0.264073,-0.298961 0.297802,-0.333735 0.535085,-0.551667 0.874403,-0.803082 1.816666,-1.206786 2.745919,-1.176468 1.030298,0.03362 2.009531,0.60885 3.08996,1.815141 0.09524,0.106347 0.177809,0.197705 0.183468,0.203021 0.01575,0.0148 0.558077,0.651651 0.666847,0.783073 0.107965,0.130469 0.321744,0.377478 0.501995,0.580056 0.06624,0.07444 0.145608,0.165801 0.176383,0.203019 0.03078,0.03722 0.19213,0.203395 0.358572,0.369279 0.836165,0.833367 1.507235,1.237334 2.267452,1.364945 0.611405,0.102637 1.107346,0.02647 1.915692,-0.294225 0.487513,-0.193407 1.110275,-0.497204 1.585485,-0.773429 0.350133,-0.203527 0.603163,-0.353078 0.763737,-0.451403 0.09039,-0.05536 0.174811,-0.106836 0.187597,-0.114397 0.246784,-0.146058 1.325399,-0.86339 1.765257,-1.173984 0.111663,-0.07885 0.242172,-0.169578 0.290027,-0.201627 0.04785,-0.03204 0.09572,-0.06526 0.106348,-0.0738 0.0106,-0.0085 0.04979,-0.03669 0.08701,-0.06256 0.03722,-0.02586 0.165133,-0.119154 0.284246,-0.207329 0.119113,-0.08817 0.221249,-0.16031 0.226967,-0.16031 0.0057,0 0.02574,-0.01256 0.04445,-0.02789 0.01872,-0.01535 0.351639,-0.26549 0.739792,-0.555899 0.388154,-0.290411 0.740537,-0.555394 0.783073,-0.588855 0.04254,-0.03345 0.281813,-0.21989 0.531719,-0.414287 0.249906,-0.194399 0.526991,-0.410641 0.615743,-0.480535 0.402217,-0.316766 0.467115,-0.359034 0.466966,-0.304123 -2.38e-4,0.0861 -0.530368,0.727991 -1.160049,1.404584 -0.300322,0.322698 -1.199586,1.228107 -1.52851,1.53896 -0.283613,0.268028 -0.639545,0.59721 -0.74048,0.684822 -0.04288,0.03722 -0.09152,0.08355 -0.108105,0.102972 -0.01659,0.0194 -0.134333,0.128166 -0.261685,0.241687 -0.127343,0.113518 -0.245454,0.219453 -0.262456,0.235404 -0.04759,0.04464 -0.226994,0.197651 -0.366413,0.312483 -0.06913,0.05693 -0.147432,0.122014 -0.174019,0.144617 -0.202814,0.172458 -0.553557,0.460123 -0.657394,0.539169 -0.06913,0.05261 -0.217039,0.167666 -0.328701,0.255662 -0.262932,0.207208 -0.260976,0.205711 -0.393297,0.300763 -0.06211,0.04463 -0.196982,0.142315 -0.299696,0.217096 -0.305926,0.222727 -0.503274,0.357081 -0.5245,0.357081 -0.01102,0 -0.01996,0.0073 -0.01996,0.01607 0,0.0088 -0.04132,0.04149 -0.09184,0.07255 -0.05052,0.03105 -0.105957,0.06515 -0.123214,0.07577 -0.01727,0.0106 -0.117313,0.07632 -0.222354,0.146033 -0.182228,0.120926 -0.356431,0.227946 -0.467897,0.287427 -0.02831,0.0151 -0.06145,0.03744 -0.07365,0.04965 -0.01214,0.01214 -0.14278,0.08492 -0.290183,0.161604 -0.247787,0.128906 -0.293967,0.153553 -0.374349,0.199767 -0.01595,0.0092 -0.05946,0.03029 -0.09668,0.04693 -0.03722,0.01664 -0.132937,0.0609 -0.212688,0.09835 -0.258234,0.121261 -0.29698,0.138113 -0.483377,0.21033 -0.812176,0.314659 -1.535933,0.424504 -2.088202,0.316932 z"
       id="path3" /><text
       xml:space="preserve"
       style="font-style:normal;font-variant:normal;font-weight:normal;font-stretch:normal;font-size:14.3059px;line-height:1.25;font-family:Sans;-inkscape-font-specification:'Sans, Normal';font-variant-ligatures:normal;font-variant-caps:normal;font-variant-numeric:normal;font-variant-east-asian:normal;stroke-width:0.264583"
       x="64.256294"
       y="81.454033"
       id="text8"><tspan
         sodipodi:role="line"
         id="tspan8"
         x="64.256294"
         y="81.454033"
         style="font-style:normal;font-variant:normal;font-weight:normal;font-stretch:normal;font-size:14.3059px;font-family:Sans;-inkscape-font-specification:'Sans, Normal';font-variant-ligatures:normal;font-variant-caps:normal;font-variant-numeric:normal;font-variant-east-asian:normal;stroke-width:0.264583">ODMF</tspan></text><path
       style="fill:#019f67;stroke-width:1"
       d="m 60.665002,83.676809 c -0.07522,-0.0081 -0.174254,-0.02111 -0.220052,-0.02885 l -0.08327,-0.01408 0.01186,-0.109054 c 0.0066,-0.05998 0.02892,-0.239565 0.04976,-0.399079 0.09067,-0.693992 0.168995,-1.642446 0.226767,-2.745596 0.04002,-0.764159 0.04618,-3.049998 0.01018,-3.789695 -0.06875,-1.41404 -0.182524,-2.75122 -0.323775,-3.805092 -0.01597,-0.11914 -0.03711,-0.277531 -0.04699,-0.351972 -0.08634,-0.651081 -0.253627,-1.640882 -0.407899,-2.413499 -0.07634,-0.382346 -0.07686,-0.387785 -0.0401,-0.424545 0.07931,-0.07931 0.455269,-0.118262 0.678758,-0.07034 0.124777,0.02676 0.159542,0.07146 0.213021,0.273832 0.0232,0.08781 0.06013,0.2075 0.08204,0.265988 0.03941,0.105134 0.06657,0.206357 0.08559,0.319032 0.0054,0.0319 0.01724,0.0754 0.02635,0.09668 0.0168,0.03923 0.03319,0.107645 0.05096,0.212687 0.0054,0.03191 0.01733,0.0754 0.02651,0.09668 0.0092,0.02128 0.02063,0.06477 0.02543,0.09668 0.0047,0.03191 0.02627,0.136314 0.04771,0.232023 0.06217,0.27754 0.138308,0.629057 0.161249,0.744403 0.01158,0.05848 0.03701,0.180299 0.05639,0.270694 0.03257,0.151905 0.07249,0.35071 0.118401,0.589722 0.01018,0.05317 0.02674,0.153231 0.03675,0.222353 0.0198,0.136914 0.03015,0.197786 0.0953,0.560722 0.02386,0.132923 0.05049,0.298244 0.05915,0.367369 0.0087,0.06913 0.03414,0.243138 0.0566,0.386703 0.02246,0.143562 0.04966,0.317581 0.06045,0.386704 0.01074,0.06913 0.0276,0.203983 0.03733,0.299693 0.0098,0.0957 0.0268,0.239274 0.03789,0.319031 0.01939,0.13937 0.04074,0.333652 0.07757,0.705734 0.09029,0.912315 0.111132,1.20227 0.163933,2.281551 0.04757,0.972418 0.0239,2.832336 -0.04651,3.654348 -0.01088,0.127609 -0.0287,0.336434 -0.03947,0.464046 -0.02162,0.255974 -0.04906,0.522441 -0.07666,0.744403 -0.0099,0.07976 -0.02762,0.222766 -0.03934,0.317792 -0.01172,0.09503 -0.03005,0.183295 -0.04071,0.196149 -0.0106,0.01283 -0.05172,0.02974 -0.09122,0.03754 -0.101702,0.02008 -0.876159,0.02695 -1.040025,0.0092 z"
       id="path2" /><text
       xml:space="preserve"
       style="font-size:4.22245px;line-height:1.25;font-family:sans-serif;stroke-width:0.264583"
       x="107.50215"
       y="73.548683"
       id="text10"><tspan
         sodipodi:role="line"
         id="tspan10"
         style="stroke-width:0.264583"
         x="107.50215"
         y="73.548683">observatory</tspan><tspan
         sodipodi:role="line"
         style="stroke-width:0.264583"
         x="107.50215"
         y="78.826744"
         id="tspan12">data management</tspan><tspan
         sodipodi:role="line"
         style="stroke-width:0.264583"
         x="107.50215"
         y="84.104805"
         id="tspan13">framework</tspan></text></g></svg>
