<?xml version="1.0" encoding="UTF-8" standalone="no"?>
<!-- Created with Inkscape (http://www.inkscape.org/) -->

<svg
   xmlns:dc="http://purl.org/dc/elements/1.1/"
   xmlns:cc="http://creativecommons.org/ns#"
   xmlns:rdf="http://www.w3.org/1999/02/22-rdf-syntax-ns#"
   xmlns:svg="http://www.w3.org/2000/svg"
   xmlns="http://www.w3.org/2000/svg"
   xmlns:sodipodi="http://sodipodi.sourceforge.net/DTD/sodipodi-0.dtd"
   xmlns:inkscape="http://www.inkscape.org/namespaces/inkscape"
   width="210mm"
   height="297mm"
   id="svg2"
   version="1.1"
   inkscape:version="0.48.4 r9939"
   sodipodi:docname="schwingbachlogo.svg"
   inkscape:export-filename="C:\Users\kraft-p.UNI-GIESSEN\Documents\Code\schwingbach\webpage\media\schwingbachlogo-gross.png"
   inkscape:export-xdpi="1200.3656"
   inkscape:export-ydpi="1200.3656">
  <defs
     id="defs4" />
  <sodipodi:namedview
     id="base"
     pagecolor="#ffffff"
     bordercolor="#666666"
     borderopacity="1.0"
     inkscape:pageopacity="0.0"
     inkscape:pageshadow="2"
     inkscape:zoom="5.6990802"
     inkscape:cx="232.34852"
     inkscape:cy="845.76482"
     inkscape:document-units="px"
     inkscape:current-layer="layer1"
     showgrid="false"
     inkscape:window-width="1858"
     inkscape:window-height="1058"
     inkscape:window-x="54"
     inkscape:window-y="-8"
     inkscape:window-maximized="1" />
  <metadata
     id="metadata7">
    <rdf:RDF>
      <cc:Work
         rdf:about="">
        <dc:format>image/svg+xml</dc:format>
        <dc:type
           rdf:resource="http://purl.org/dc/dcmitype/StillImage" />
        <dc:title></dc:title>
      </cc:Work>
    </rdf:RDF>
  </metadata>
  <g
     inkscape:label="Ebene 1"
     inkscape:groupmode="layer"
     id="layer1">
    <rect
       style="fill:#ffffff;fill-opacity:1;stroke:#ffffff;stroke-width:0.5;stroke-linecap:butt;stroke-miterlimit:4;stroke-opacity:1;stroke-dasharray:none;stroke-dashoffset:0"
       id="rect3788"
       width="178.42435"
       height="18.10742"
       x="143.37256"
       y="190.42938"
       inkscape:export-filename="C:\Users\kraft-p.UNI-GIESSEN\Documents\Code\schwingbach\webpage\media\schwingbachlogo.png"
       inkscape:export-xdpi="90.177719"
       inkscape:export-ydpi="90.177719" />
    <g
       id="g3806"
       transform="matrix(1.147667,0,0,1.1549817,-31.521703,-201.94335)"
       inkscape:export-filename="C:\Users\kraft-p.UNI-GIESSEN\Documents\Code\schwingbach\webpage\media\schwingbachlogo.png"
       inkscape:export-xdpi="90.177719"
       inkscape:export-ydpi="90.177719">
      <path
         inkscape:export-ydpi="299.47141"
         inkscape:export-xdpi="299.47141"
         inkscape:export-filename="D:\Code\schwingbach\webpage\media\schwingbachlogo-gross.png"
         inkscape:connector-curvature="0"
         id="path3002"
         d="m 165.5625,332.1875 c -6.45571,0.62292 -14.69692,4.24006 -16.1875,11.15625 1.45173,4.85456 7.79504,1.33948 10.5625,-0.28125 2.7582,-0.36236 7.10751,0.0638 6.3125,3.71875 5.3308,6.36039 15.37662,5.40699 22.78125,3.84375 3.56573,-0.55281 11.34681,-2.87399 8.25,-7.75 -8.01517,-6.43248 -18.6018,-9.2355 -28.65625,-10.65625 -1.01792,-0.10083 -2.04246,-0.0716 -3.0625,-0.0312 z"
         style="fill:#abc837;stroke:#ffffff;stroke-width:0.86856937px;stroke-linecap:butt;stroke-linejoin:miter;stroke-opacity:1" />
      <path
         inkscape:export-ydpi="299.47141"
         inkscape:export-xdpi="299.47141"
         inkscape:export-filename="D:\Code\schwingbach\webpage\media\schwingbachlogo-gross.png"
         sodipodi:nodetypes="zzzczz"
         inkscape:connector-curvature="0"
         id="path3004"
         d="m 161.375,341.46875 c -4.32893,1.03622 -13.89769,2.91838 -15.53125,8.59375 -1.63356,5.67537 4.5142,5.45267 10.78125,5.5625 6.26705,0.10983 17.55241,-0.30678 26.0625,-2.375 -4.39324,-2.69222 -12.86561,-2.15002 -14.39286,-6.21875 -1.52724,-4.06873 -2.59071,-6.59872 -6.91964,-5.5625 z"
         style="fill:#a05a2c;stroke:#ffffff;stroke-width:0.86856937px;stroke-linecap:butt;stroke-linejoin:miter;stroke-opacity:1" />
      <path
         inkscape:export-ydpi="299.47141"
         inkscape:export-xdpi="299.47141"
         inkscape:export-filename="D:\Code\schwingbach\webpage\media\schwingbachlogo-gross.png"
         inkscape:connector-curvature="0"
         id="path3006"
         d="m 196.84375,345.4375 c -4.57201,1.27315 -8.49471,4.69841 -13.5625,4.28125 -3.23039,0.34985 -11.08527,0.77933 -10.77369,2.90614 9.76022,4.75415 21.72022,1.36038 31.21119,6.87511 4.95918,1.80821 10.57058,-5.71538 5.65625,-8.96875 -2.64024,-1.72583 -6.36216,-0.4869 -8.09375,-3.625 -1.20226,-1.07113 -2.8183,-1.68092 -4.4375,-1.46875 z"
         style="fill:#37abc8;stroke:#ffffff;stroke-width:0.86856937px;stroke-linecap:butt;stroke-linejoin:miter;stroke-opacity:1" />
    </g>
    <text
       xml:space="preserve"
       style="font-size:14.64222336px;font-style:normal;font-variant:normal;font-weight:normal;font-stretch:normal;text-align:justify;line-height:125%;letter-spacing:0px;word-spacing:0px;writing-mode:lr-tb;text-anchor:start;fill:#32739d;fill-opacity:1;stroke:none;font-family:Segoe Print;-inkscape-font-specification:Segoe Print"
       x="250.92445"
       y="205.35101"
       id="text2996"
       sodipodi:linespacing="125%"
       transform="matrix(1,0,-0.23184033,1,0,0)"
       inkscape:export-filename="C:\Users\kraft-p.UNI-GIESSEN\Documents\Code\schwingbach\webpage\media\schwingbachlogo.png"
       inkscape:export-xdpi="90.177719"
       inkscape:export-ydpi="90.177719"><tspan
         sodipodi:role="line"
         id="tspan2998"
         x="250.92445"
         y="205.35101">Schwingbachtal</tspan></text>
    <path
       style="font-size:15.74440861000000100px;font-style:normal;font-variant:normal;font-weight:bold;font-stretch:normal;text-align:justify;line-height:125%;letter-spacing:0px;word-spacing:0px;writing-mode:lr-tb;text-anchor:start;fill:#000000;fill-opacity:1;stroke:none;font-family:Times New Roman;-inkscape-font-specification:'Times New Roman, Bold';opacity:1"
       d="m 146.65625,210.6875 c -3.22072,0.22139 -5.59644,3.98389 -4.125,6.9375 -1.23949,3.53359 -1.17795,9.83312 4.09375,7.8125 2.1995,0.69971 4.89755,-0.79441 5.9375,-2.125 0.0187,4.85433 14.97185,1.49927 7.96875,-2.28125 -0.70563,-5.07907 2.49833,-3.38547 1.875,0.25 0.60575,4.35491 6.60143,5.51623 9.75,3.0625 1.74503,1.70392 7.21553,1.31777 10.46875,0.28125 1.67396,0.0472 5.54671,1.26036 9.125,0.6875 5.375,0 10.75,0 16.125,0 -0.969,-4.87199 5.41869,3.0653 9.75,0 7.84375,0 15.6875,0 23.53125,0 -0.9757,-4.90155 5.94357,3.23538 10.375,0 1.86554,0.046 3.79224,-0.42339 5.28125,-1.59375 -0.16842,3.34031 4.27481,1.2888 6.78125,1.75 2.40599,0.0537 3.41359,-3.60586 5.25,-0.96875 2.28915,1.28822 5.26796,1.46028 7.625,0.28125 7.5307,1.18805 17.22938,0.20812 25.625,0.53125 6.46528,1.04861 9.59149,-1.24185 8.8125,-7.4375 6.93982,-0.9543 -4.53827,9.34289 4.96875,7.4375 9.28252,2.16233 2.38815,-5.57094 5.15625,-7.59375 6.60966,-2.77792 -0.19479,-9.79736 -6.71875,-6.8125 -4.424,1.076 -13.51576,-2.51576 -14.21875,2.28125 3.32362,7.61677 0.11636,5.80783 -2.47087,-2.22532 -4.84641,-3.41307 -6.04795,11.85206 -6.99788,6.94407 2.77585,-4.70015 1.35651,-8.61738 -5.96875,-7 -5.59805,0.73265 -11.09857,-1.91822 -16.25,1.3125 -1.60709,1.66913 -1.73741,-3.44631 -5.375,-1.5 -2.20151,-0.60407 -4.54758,1.01249 -5.65625,2.3125 -4.43384,-4.04717 -11.19964,-1.32371 -16.59375,-2.125 -3.76232,-1.06525 -10.57214,1.09773 -5.78125,6.28125 -0.69161,6.64869 -1.74526,-9.1002 -6.75,-6.5 -0.67521,5.6923 -4.99715,6.34251 -7.375,8.96875 -1.5357,4.03097 -2.3737,-5.24409 -0.28125,-4.46875 3.54204,-5.92286 -5.74241,-4.07678 -9.96875,-4.28125 -3.8863,0.7152 -8.14479,-0.35271 -13.4375,0 -4.24674,0.64665 -11.49643,-1.36399 -13.6875,1.125 -6.64061,-2.72617 -14.45441,-0.29653 -21.5,-1.125 -5.45752,0.11016 -10.32421,-0.20367 -15.34375,-0.21875 z m 22.90625,4.5 c -0.31875,0.68582 0.69656,6.47299 -0.75,5.21875 0.49389,-1.34096 -1.00882,-5.22242 0.75,-5.21875 z m 104,0.15625 c 2.14368,-0.0745 0.88171,3.88749 3.25,2.9375 -1.10041,2.924 -5.62897,3.66426 -4.65625,-0.46875 0.0539,-0.98693 0.19081,-2.33722 1.40625,-2.46875 z m -120.65625,2.375 c 2.79772,-0.0846 0.21437,5.76216 0.34375,1.34375 -0.0699,-0.43708 -0.57775,-0.9781 -0.34375,-1.34375 z m 47.59375,0.25 c 5.36471,-0.0807 -1.6326,0.1009 0,0 z m 6.21875,3.0625 c -0.87394,0.60055 -0.40633,-1.67393 0,0 z m 33.25,0 c -0.81629,0.55759 -0.37368,-1.5705 0,0 z m 57.21875,1.3125 c -0.0859,0.0356 0.0356,-0.0859 0,0 z"
       id="text3832"
       inkscape:connector-curvature="0"
       inkscape:export-filename="C:\Users\kraft-p.UNI-GIESSEN\Documents\Code\schwingbach\webpage\media\schwingbachlogo.png"
       inkscape:export-xdpi="90.177719"
       inkscape:export-ydpi="90.177719" />
    <text
       xml:space="preserve"
       style="font-size:15.74440861px;font-style:normal;font-variant:normal;font-weight:bold;font-stretch:normal;text-align:justify;line-height:125%;letter-spacing:0px;word-spacing:0px;writing-mode:lr-tb;text-anchor:start;fill:#ffffff;fill-opacity:1;stroke:none;font-family:Times New Roman;-inkscape-font-specification:'Times New Roman, Bold'"
       x="143.28799"
       y="223.31978"
       id="text3008"
       sodipodi:linespacing="125%"
       inkscape:export-filename="C:\Users\kraft-p.UNI-GIESSEN\Documents\Code\schwingbach\webpage\media\schwingbachlogo.png"
       inkscape:export-xdpi="90.177719"
       inkscape:export-ydpi="90.177719"><tspan
         sodipodi:role="line"
         id="tspan3010"
         x="143.28799"
         y="223.31978"
         style="stroke:none">STUDIENLANDSCHAFT</tspan></text>
  </g>
</svg>
