<?xml version="1.0" encoding="UTF-8" standalone="no"?>
<!-- Created with Inkscape (http://www.inkscape.org/) -->

<svg
   width="187.20029mm"
   height="177.50412mm"
   viewBox="0 0 187.20029 177.50412"
   version="1.1"
   id="svg1"
   xml:space="preserve"
   inkscape:version="1.3 (0e150ed6c4, 2023-07-21)"
   sodipodi:docname="dataset.svg"
   xmlns:inkscape="http://www.inkscape.org/namespaces/inkscape"
   xmlns:sodipodi="http://sodipodi.sourceforge.net/DTD/sodipodi-0.dtd"
   xmlns="http://www.w3.org/2000/svg"
   xmlns:svg="http://www.w3.org/2000/svg"><sodipodi:namedview
     id="namedview1"
     pagecolor="#505050"
     bordercolor="#eeeeee"
     borderopacity="1"
     inkscape:showpageshadow="0"
     inkscape:pageopacity="0"
     inkscape:pagecheckerboard="0"
     inkscape:deskcolor="#505050"
     inkscape:document-units="mm"
     inkscape:zoom="0.97890839"
     inkscape:cx="375.92895"
     inkscape:cy="210.94926"
     inkscape:window-width="2400"
     inkscape:window-height="1411"
     inkscape:window-x="-5"
     inkscape:window-y="-9"
     inkscape:window-maximized="1"
     inkscape:current-layer="layer1" /><defs
     id="defs1"><marker
       style="overflow:visible"
       id="Triangle"
       refX="0"
       refY="0"
       orient="auto-start-reverse"
       inkscape:stockid="Triangle arrow"
       markerWidth="1"
       markerHeight="1"
       viewBox="0 0 1 1"
       inkscape:isstock="true"
       inkscape:collect="always"
       preserveAspectRatio="xMidYMid"><path
         transform="scale(0.5)"
         style="fill:context-stroke;fill-rule:evenodd;stroke:context-stroke;stroke-width:1pt"
         d="M 5.77,0 -2.88,5 V -5 Z"
         id="path135" /></marker></defs><g
     inkscape:label="Ebene 1"
     inkscape:groupmode="layer"
     id="layer1"
     transform="translate(-69.512253,-33.09169)"><rect
       style="opacity:0.5;fill:#999999;fill-opacity:1;stroke:#4d4d4d;stroke-width:1;stroke-dasharray:none;stroke-opacity:1"
       id="rect20"
       width="186.20029"
       height="176.50412"
       x="70.012253"
       y="33.59169"
       rx="2.6458333"
       ry="2.645833" /><rect
       style="fill:#ffffff;fill-opacity:1;stroke-width:0.499999"
       id="rect1"
       width="40.837761"
       height="84.439911"
       x="79.962212"
       y="76.254303"
       rx="2.645833"
       ry="2.6458333" /><text
       xml:space="preserve"
       style="font-style:normal;font-variant:normal;font-weight:normal;font-stretch:normal;font-size:6.35px;font-family:Arial;-inkscape-font-specification:'Arial, Normal';font-variant-ligatures:normal;font-variant-caps:normal;font-variant-numeric:normal;font-variant-east-asian:normal;fill:#000000;fill-opacity:1;stroke-width:0.499999"
       x="95.254288"
       y="84.392319"
       id="text1"><tspan
         sodipodi:role="line"
         id="tspan1"
         style="font-style:normal;font-variant:normal;font-weight:normal;font-stretch:normal;font-size:6.35px;font-family:Arial;-inkscape-font-specification:'Arial, Normal';font-variant-ligatures:normal;font-variant-caps:normal;font-variant-numeric:normal;font-variant-east-asian:normal;fill:#000000;stroke-width:0.5"
         x="95.254288"
         y="84.392319">dataset</tspan></text><rect
       style="fill:#ffffff;fill-opacity:1;stroke-width:0.499999"
       id="rect2"
       width="48.33934"
       height="16.757616"
       x="139.50873"
       y="42.796089"
       rx="2.645833"
       ry="2.6458333" /><text
       xml:space="preserve"
       style="font-style:normal;font-variant:normal;font-weight:normal;font-stretch:normal;font-size:6.35px;font-family:Arial;-inkscape-font-specification:'Arial, Normal';font-variant-ligatures:normal;font-variant-caps:normal;font-variant-numeric:normal;font-variant-east-asian:normal;fill:#000000;fill-opacity:1;stroke-width:0.499999"
       x="156.07588"
       y="53.410419"
       id="text2"><tspan
         sodipodi:role="line"
         id="tspan2"
         style="font-style:normal;font-variant:normal;font-weight:normal;font-stretch:normal;font-size:6.35px;font-family:Arial;-inkscape-font-specification:'Arial, Normal';font-variant-ligatures:normal;font-variant-caps:normal;font-variant-numeric:normal;font-variant-east-asian:normal;stroke-width:0.5"
         x="156.07588"
         y="53.410419">site</tspan></text><text
       xml:space="preserve"
       style="font-size:4.9389px;font-family:Arial;-inkscape-font-specification:'Arial, Normal';fill:#000000;fill-opacity:1;stroke-width:0.499999"
       x="157.97926"
       y="73.719139"
       id="text5"><tspan
         sodipodi:role="line"
         id="tspan5"
         style="stroke-width:0.5"
         x="157.97926"
         y="73.719139">installed at</tspan></text><path
       style="fill:#000000;fill-opacity:1;stroke:#ffffff;stroke-width:1;stroke-dasharray:none;stroke-opacity:1;marker-end:url(#Triangle)"
       d="M 155.2466,81.761243 V 63.525362"
       id="path5" /><path
       d="m 149.78137,48.879433 c 0,0.947914 -1.2691,2.637146 -1.82639,3.333325 -0.13368,0.166666 -0.38194,0.166666 -0.51389,0 -0.55729,-0.696179 -1.82638,-2.385411 -1.82638,-3.333325 0,-1.151039 0.93229,-2.083328 2.08333,-2.083328 1.15104,0 2.08333,0.932289 2.08333,2.083328 z m 0.13889,1.39583 c 0.0607,-0.119791 0.11632,-0.239583 0.16666,-0.357638 0.009,-0.02083 0.0174,-0.0434 0.0261,-0.06424 l 2.01389,-0.805554 c 0.27431,-0.109374 0.57118,0.09201 0.57118,0.387152 v 4.701378 c 0,0.170137 -0.10417,0.322918 -0.26216,0.387149 l -2.51561,1.00521 z m -4.83333,-1.078122 c 0.0417,0.244791 0.125,0.491318 0.22223,0.720484 0.0504,0.118055 0.1059,0.237847 0.16666,0.357638 v 4.36457 l -2.20659,0.883679 c -0.27431,0.109374 -0.57118,-0.09201 -0.57118,-0.387149 v -4.701378 c 0,-0.170139 0.10417,-0.322916 0.26216,-0.387152 l 2.12846,-0.850692 z m 3.30208,3.362839 c 0.24132,-0.302083 0.61979,-0.793402 0.97569,-1.336803 v 4.328116 l -3.33332,-0.953123 v -3.374993 c 0.3559,0.543401 0.73437,1.03472 0.97569,1.336803 0.3559,0.444443 1.02604,0.444443 1.38194,0 z m -0.69097,-3.124993 a 0.694443,0.694443 0 1 0 0,-1.388886 0.694443,0.694443 0 1 0 0,1.388886 z"
       id="path1"
       style="stroke-width:0.264583" /><path
       d="m 86.739591,77.783531 c -0.816406,0 -1.511719,0.521484 -1.767578,1.25 h -0.732422 c -0.689454,0 -1.250001,0.560548 -1.250001,1.250001 v 6.250001 c 0,0.689455 0.560547,1.249998 1.250001,1.249998 h 5.000002 c 0.689453,0 1.25,-0.560543 1.25,-1.249998 v -6.250001 c 0,-0.689453 -0.560547,-1.250001 -1.25,-1.250001 H 88.50717 c -0.255859,-0.728516 -0.951172,-1.25 -1.767579,-1.25 z m 0,1.25 a 0.6250005,0.6250005 0 1 1 0,1.250001 0.6250005,0.6250005 0 1 1 0,-1.250001 z m -1.5625,2.500001 h 3.125001 c 0.171875,0 0.3125,0.140625 0.3125,0.3125 0,0.171876 -0.140625,0.312501 -0.3125,0.312501 h -3.125001 c -0.171875,0 -0.3125,-0.140625 -0.3125,-0.312501 0,-0.171875 0.140625,-0.3125 0.3125,-0.3125 z"
       id="path1-1"
       style="stroke-width:0.264583" /><rect
       style="fill:#ffffff;fill-opacity:1;stroke-width:0.499999"
       id="rect3"
       width="49.471344"
       height="17.29818"
       x="138.37685"
       y="81.761246"
       rx="2.645833"
       ry="2.6458333" /><text
       xml:space="preserve"
       style="font-style:normal;font-variant:normal;font-weight:normal;font-stretch:normal;font-size:6.35px;font-family:Arial;-inkscape-font-specification:'Arial, Normal';font-variant-ligatures:normal;font-variant-caps:normal;font-variant-numeric:normal;font-variant-east-asian:normal;fill:#000000;fill-opacity:1;stroke-width:0.499999"
       x="154.48273"
       y="92.645859"
       id="text3"><tspan
         sodipodi:role="line"
         id="tspan3"
         style="font-style:normal;font-variant:normal;font-weight:normal;font-stretch:normal;font-size:6.35px;font-family:Arial;-inkscape-font-specification:'Arial, Normal';font-variant-ligatures:normal;font-variant-caps:normal;font-variant-numeric:normal;font-variant-east-asian:normal;stroke-width:0.5"
         x="154.48273"
         y="92.645859">instrument</tspan></text><path
       d="m 143.35294,92.873154 v -1.73467 c 0,-0.29107 0.11526,-0.56846 0.32037,-0.77357 l 0.53329,-0.5333 1.11347,1.11348 c 0.12112,0.12111 0.32037,0.12111 0.44149,0 0.12111,-0.12112 0.12111,-0.32037 0,-0.44148 l -1.11348,-1.11348 0.80874,-0.80873 1.11347,1.11347 c 0.12111,0.12112 0.32036,0.12112 0.44148,0 0.12111,-0.12111 0.12111,-0.32036 0,-0.44148 l -1.11347,-1.11347 0.80873,-0.80873 1.11347,1.11347 c 0.12112,0.12112 0.32037,0.12112 0.44148,0 0.12112,-0.12111 0.12112,-0.32037 0,-0.44148 l -1.11347,-1.11347 0.88882,-0.88883 c 0.37898,-0.37897 0.89078,-0.59189 1.42603,-0.59189 1.11347,0 2.01597,0.9025 2.01597,2.01596 0,0.53526 -0.21293,1.04706 -0.58995,1.42603 l -4.36598,4.36403 c -0.20511,0.20511 -0.4825,0.32037 -0.77356,0.32037 h -1.73468 l -1.73662,1.73857 c -0.18363,0.18363 -0.48055,0.18363 -0.66222,0 -0.18167,-0.18362 -0.18363,-0.48055 0,-0.66222 l 1.73857,-1.73858 z"
       id="path1-6"
       style="stroke-width:0.264583" /><path
       style="fill:#000000;fill-opacity:1;stroke:#ffffff;stroke-width:0.999998;stroke-dasharray:none;stroke-opacity:1;marker-end:url(#Triangle)"
       d="M 120.80001,78.072095 136.80742,62.064689"
       id="path6" /><rect
       style="fill:#ffffff;fill-opacity:1;stroke-width:0.499999"
       id="rect6"
       width="49.471344"
       height="17.29818"
       x="138.37672"
       y="140.00575"
       rx="2.645833"
       ry="2.6458333" /><text
       xml:space="preserve"
       style="font-style:normal;font-variant:normal;font-weight:normal;font-stretch:normal;font-size:6.35px;font-family:Arial;-inkscape-font-specification:'Arial, Normal';font-variant-ligatures:normal;font-variant-caps:normal;font-variant-numeric:normal;font-variant-east-asian:normal;fill:#000000;fill-opacity:1;stroke-width:0.499999"
       x="154.49478"
       y="150.30125"
       id="text6"><tspan
         sodipodi:role="line"
         id="tspan6"
         style="font-style:normal;font-variant:normal;font-weight:normal;font-stretch:normal;font-size:6.35px;font-family:Arial;-inkscape-font-specification:'Arial, Normal';font-variant-ligatures:normal;font-variant-caps:normal;font-variant-numeric:normal;font-variant-east-asian:normal;stroke-width:0.5"
         x="154.49478"
         y="150.30125">user</tspan></text><path
       d="m 146.47933,148.65484 a 2.857143,2.857143 0 1 0 0,-5.71428 2.857143,2.857143 0 1 0 0,5.71428 z m -1.02009,1.07143 c -2.19866,0 -3.97991,1.78125 -3.97991,3.97991 0,0.36608 0.29688,0.66295 0.66295,0.66295 h 8.6741 c 0.36608,0 0.66295,-0.29687 0.66295,-0.66295 0,-2.19866 -1.78125,-3.97991 -3.97991,-3.97991 z"
       id="path1-3"
       style="stroke-width:0.264583" /><rect
       style="fill:#ffffff;fill-opacity:1;stroke-width:0.499999"
       id="rect7"
       width="49.471344"
       height="17.29818"
       x="138.37672"
       y="101.17609"
       rx="2.645833"
       ry="2.6458333" /><path
       d="m 144.93186,114.54792 c -0.37099,0.371 -0.9741,0.371 -1.34708,0 l -1.8272,-1.82918 c -0.371,-0.371 -0.371,-0.97411 0,-1.34709 l 1.00585,-1.00585 0.95229,0.95228 c 0.123,0.12301 0.32536,0.12301 0.44836,0 0.12301,-0.123 0.12301,-0.32536 0,-0.44836 l -0.95228,-0.95229 0.82134,-0.82135 0.95229,0.95229 c 0.123,0.123 0.32537,0.123 0.44837,0 0.123,-0.123 0.123,-0.32536 0,-0.44837 l -0.95229,-0.95229 0.82135,-0.82134 0.95229,0.95228 c 0.123,0.12301 0.32536,0.12301 0.44836,0 0.12301,-0.123 0.12301,-0.32536 0,-0.44836 l -0.95228,-0.95229 0.82135,-0.82135 0.95228,0.95229 c 0.12301,0.123 0.32537,0.123 0.44837,0 0.123,-0.123 0.123,-0.32537 0,-0.44837 l -0.95229,-0.95229 1.00586,-1.00585 c 0.37099,-0.37099 0.97411,-0.37099 1.34709,0 l 1.8272,1.8272 c 0.37099,0.371 0.37099,0.97411 0,1.34709 z"
       id="path1-8"
       style="stroke-width:0.264583" /><text
       xml:space="preserve"
       style="font-style:normal;font-variant:normal;font-weight:normal;font-stretch:normal;font-size:6.35px;font-family:Arial;-inkscape-font-specification:'Arial, Normal';font-variant-ligatures:normal;font-variant-caps:normal;font-variant-numeric:normal;font-variant-east-asian:normal;fill:#000000;fill-opacity:1;stroke-width:0.499999"
       x="154.748"
       y="111.42973"
       id="text7"><tspan
         sodipodi:role="line"
         id="tspan7"
         style="font-style:normal;font-variant:normal;font-weight:normal;font-stretch:normal;font-size:6.35px;font-family:Arial;-inkscape-font-specification:'Arial, Normal';font-variant-ligatures:normal;font-variant-caps:normal;font-variant-numeric:normal;font-variant-east-asian:normal;stroke-width:0.5"
         x="154.748"
         y="111.42973">value type</tspan></text><rect
       style="fill:#ffffff;fill-opacity:1;stroke:#808080;stroke-width:0.499999"
       id="rect8"
       width="36.086021"
       height="13.216788"
       x="86.720116"
       y="184.98737"
       rx="2.645833"
       ry="2.6458335" /><rect
       style="fill:#ffffff;fill-opacity:1;stroke:#808080;stroke-width:0.499999"
       id="rect4"
       width="36.086021"
       height="13.216788"
       x="85.661781"
       y="183.39989"
       rx="2.645833"
       ry="2.6458335" /><rect
       style="fill:#ffffff;fill-opacity:1;stroke:#808080;stroke-width:0.499999"
       id="rect9"
       width="36.086021"
       height="13.216788"
       x="84.07428"
       y="181.81241"
       rx="2.645833"
       ry="2.6458335" /><rect
       style="fill:#ffffff;fill-opacity:1;stroke:#808080;stroke-width:0.499999"
       id="rect10"
       width="36.086021"
       height="13.216788"
       x="82.486778"
       y="180.22493"
       rx="2.645833"
       ry="2.6458335" /><rect
       style="fill:#ffffff;fill-opacity:1;stroke:#808080;stroke-width:0.499999"
       id="rect11"
       width="36.086021"
       height="13.216788"
       x="80.899277"
       y="178.63745"
       rx="2.645833"
       ry="2.6458335" /><text
       xml:space="preserve"
       style="font-style:normal;font-variant:normal;font-weight:normal;font-stretch:normal;font-size:6.35px;font-family:Arial;-inkscape-font-specification:'Arial, Normal';font-variant-ligatures:normal;font-variant-caps:normal;font-variant-numeric:normal;font-variant-east-asian:normal;fill:#000000;fill-opacity:1;stroke-width:0.499999"
       x="96.492203"
       y="186.79613"
       id="text4"><tspan
         sodipodi:role="line"
         id="tspan4"
         style="font-style:normal;font-variant:normal;font-weight:normal;font-stretch:normal;font-size:6.35px;font-family:Arial;-inkscape-font-specification:'Arial, Normal';font-variant-ligatures:normal;font-variant-caps:normal;font-variant-numeric:normal;font-variant-east-asian:normal;fill:#000000;stroke-width:0.5"
         x="96.492203"
         y="186.79613">record</tspan></text><path
       d="m 93.78041,185.26662 a 4.0625,4.0625 0 1 1 -8.125,0 4.0625,4.0625 0 1 1 8.125,0 z m -9.0625,0 a 5,5 0 1 0 10,0 5,5 0 1 0 -10,0 z m 4.53125,-2.65625 v 2.65625 c 0,0.15625 0.07813,0.30273 0.208984,0.39063 l 1.875,1.25 c 0.214844,0.14453 0.505859,0.0859 0.650391,-0.13086 0.144531,-0.2168 0.08594,-0.50586 -0.13086,-0.65039 l -1.666015,-1.10938 v -2.40625 c 0,-0.25976 -0.208985,-0.46875 -0.46875,-0.46875 -0.259766,0 -0.46875,0.20899 -0.46875,0.46875 z"
       id="path1-5"
       style="stroke-width:0.264583" /><rect
       style="fill:#ffffff;fill-opacity:1;stroke-width:0.499999"
       id="rect12"
       width="49.471344"
       height="17.29818"
       x="138.37672"
       y="120.59091"
       rx="2.645833"
       ry="2.6458333" /><text
       xml:space="preserve"
       style="font-style:normal;font-variant:normal;font-weight:normal;font-stretch:normal;font-size:6.35px;font-family:Arial;-inkscape-font-specification:'Arial, Normal';font-variant-ligatures:normal;font-variant-caps:normal;font-variant-numeric:normal;font-variant-east-asian:normal;fill:#000000;fill-opacity:1;stroke-width:0.499999"
       x="154.63707"
       y="130.84456"
       id="text12"><tspan
         sodipodi:role="line"
         id="tspan12"
         style="font-style:normal;font-variant:normal;font-weight:normal;font-stretch:normal;font-size:6.35px;font-family:Arial;-inkscape-font-specification:'Arial, Normal';font-variant-ligatures:normal;font-variant-caps:normal;font-variant-numeric:normal;font-variant-east-asian:normal;stroke-width:0.5"
         x="154.63707"
         y="130.84456">quality</tspan></text><path
       d="m 147.02337,124.73234 c -0.10037,-0.20831 -0.31247,-0.34087 -0.5454,-0.34087 -0.23293,0 -0.44313,0.13256 -0.54539,0.34087 l -1.21768,2.50542 -2.7194,0.40147 c -0.22725,0.0341 -0.41662,0.19316 -0.48669,0.41094 -0.0701,0.21778 -0.0133,0.45828 0.1496,0.61925 l 1.97328,1.95244 -0.46586,2.75918 c -0.0379,0.22725 0.0568,0.45828 0.24429,0.59274 0.18748,0.13445 0.43556,0.1515 0.64008,0.0436 l 2.42967,-1.29721 2.42966,1.29721 c 0.20452,0.10794 0.4526,0.0928 0.64008,-0.0436 0.18748,-0.13635 0.28217,-0.36549 0.24429,-0.59274 l -0.46775,-2.75918 1.97328,-1.95244 c 0.16286,-0.16097 0.22156,-0.40147 0.1496,-0.61925 -0.072,-0.21778 -0.25944,-0.37686 -0.48669,-0.41094 l -2.7213,-0.40147 z"
       id="path1-86"
       style="stroke-width:0.264583" /><path
       style="fill:#000000;fill-opacity:1;stroke:#ffffff;stroke-width:0.999998;stroke-dasharray:none;stroke-opacity:1;marker-end:url(#Triangle)"
       d="m 120.97563,90.181551 h 13.64672"
       id="path12"
       sodipodi:nodetypes="cc" /><text
       xml:space="preserve"
       style="font-size:4.9389px;font-family:Arial;-inkscape-font-specification:'Arial, Normal';fill:#000000;fill-opacity:1;stroke:none;stroke-width:1;stroke-dasharray:none;stroke-opacity:1"
       x="92.288933"
       y="98.638672"
       id="text13"><tspan
         sodipodi:role="line"
         id="tspan13"
         style="stroke:none;stroke-width:1"
         x="92.288933"
         y="98.638672">- start</tspan><tspan
         sodipodi:role="line"
         style="stroke:none;stroke-width:1"
         x="92.288933"
         y="104.81229"
         id="tspan14">- end</tspan><tspan
         sodipodi:role="line"
         style="stroke:none;stroke-width:1"
         x="92.288933"
         y="110.98592"
         id="tspan15">- access</tspan><tspan
         sodipodi:role="line"
         style="stroke:none;stroke-width:1"
         x="92.288933"
         y="117.15955"
         id="tspan16">- calibration</tspan><tspan
         sodipodi:role="line"
         style="stroke:none;stroke-width:1"
         x="92.288933"
         y="123.33318"
         id="tspan17">- comment</tspan></text><path
       style="fill:#000000;fill-opacity:1;stroke:#ffffff;stroke-width:0.999998;stroke-dasharray:none;stroke-opacity:1;marker-end:url(#Triangle)"
       d="m 120.97563,109.58443 h 13.64672"
       id="path17"
       sodipodi:nodetypes="cc" /><path
       style="fill:#000000;fill-opacity:1;stroke:#ffffff;stroke-width:0.999998;stroke-dasharray:none;stroke-opacity:1;marker-end:url(#Triangle)"
       d="m 120.97563,128.98731 h 13.64672"
       id="path18"
       sodipodi:nodetypes="cc" /><path
       style="fill:#000000;fill-opacity:1;stroke:#ffffff;stroke-width:0.999998;stroke-dasharray:none;stroke-opacity:1;marker-end:url(#Triangle)"
       d="m 120.97563,148.39019 h 13.64672"
       id="path19"
       sodipodi:nodetypes="cc" /><path
       style="fill:#000000;fill-opacity:1;stroke:#ffffff;stroke-width:0.999998;stroke-dasharray:none;stroke-opacity:1;marker-end:url(#Triangle)"
       d="M 104.76316,178.66888 V 165.02215"
       id="path20"
       sodipodi:nodetypes="cc" /><rect
       style="fill:#ffffff;fill-opacity:1;stroke-width:0.499999"
       id="rect21"
       width="48.33934"
       height="16.757616"
       x="205.51216"
       y="42.796089"
       rx="2.645833"
       ry="2.6458333" /><path
       d="m 209.59991,47.17784 v 3.417533 c 0,0.388616 0.15316,0.76123 0.42748,1.035547 l 4.02331,4.023317 c 0.5715,0.571494 1.49732,0.571494 2.06881,0 l 3.05178,-3.051778 c 0.57149,-0.571493 0.57149,-1.497313 0,-2.068808 l -4.02332,-4.023316 c -0.27432,-0.274318 -0.64693,-0.427478 -1.03555,-0.427478 l -3.41524,-0.0023 c -0.60579,0 -1.09727,0.491485 -1.09727,1.097268 z m 2.56029,0.731512 a 0.73151224,0.73151224 0 1 1 0,1.463024 0.73151224,0.73151224 0 1 1 0,-1.463024 z"
       id="path1-63"
       style="stroke-width:0.264583" /><text
       xml:space="preserve"
       style="font-style:normal;font-variant:normal;font-weight:normal;font-stretch:normal;font-size:6.35px;font-family:Arial;-inkscape-font-specification:'Arial, Normal';font-variant-ligatures:normal;font-variant-caps:normal;font-variant-numeric:normal;font-variant-east-asian:normal;fill:#000000;fill-opacity:1;stroke-width:0.499999"
       x="223.03435"
       y="53.410419"
       id="text21"><tspan
         sodipodi:role="line"
         id="tspan21"
         style="font-style:normal;font-variant:normal;font-weight:normal;font-stretch:normal;font-size:6.35px;font-family:Arial;-inkscape-font-specification:'Arial, Normal';font-variant-ligatures:normal;font-variant-caps:normal;font-variant-numeric:normal;font-variant-east-asian:normal;stroke-width:0.5"
         x="223.03435"
         y="53.410419">log book</tspan></text><path
       style="fill:#000000;fill-opacity:1;stroke:#ffffff;stroke-width:0.999998;stroke-dasharray:none;stroke-opacity:1;marker-end:url(#Triangle)"
       d="M 205.23011,51.081707 H 191.58339"
       id="path21"
       sodipodi:nodetypes="cc" /><path
       style="fill:none;fill-opacity:1;stroke:#ffffff;stroke-width:1;stroke-dasharray:none;stroke-opacity:1;marker-end:url(#Triangle)"
       d="m 212.14759,54.402623 c 0,0 0.0275,91.029537 -21.05464,91.570107"
       id="path22"
       sodipodi:nodetypes="cc" /></g></svg>
