<?xml version="1.0" encoding="UTF-8" standalone="no"?>
<!-- Created with Inkscape (http://www.inkscape.org/) -->

<svg
   xmlns:dc="http://purl.org/dc/elements/1.1/"
   xmlns:cc="http://creativecommons.org/ns#"
   xmlns:rdf="http://www.w3.org/1999/02/22-rdf-syntax-ns#"
   xmlns:svg="http://www.w3.org/2000/svg"
   xmlns="http://www.w3.org/2000/svg"
   xmlns:sodipodi="http://sodipodi.sourceforge.net/DTD/sodipodi-0.dtd"
   xmlns:inkscape="http://www.inkscape.org/namespaces/inkscape"
   width="210mm"
   height="297mm"
   id="svg2"
   version="1.1"
   inkscape:version="0.48.2 r9819"
   sodipodi:docname="mapicons.svg">
  <defs
     id="defs4" />
  <sodipodi:namedview
     id="base"
     pagecolor="#ffffff"
     bordercolor="#666666"
     borderopacity="1.0"
     inkscape:pageopacity="0.0"
     inkscape:pageshadow="2"
     inkscape:zoom="5.6"
     inkscape:cx="76.206887"
     inkscape:cy="38.988036"
     inkscape:document-units="px"
     inkscape:current-layer="layer1"
     showgrid="false"
     inkscape:window-width="1378"
     inkscape:window-height="878"
     inkscape:window-x="54"
     inkscape:window-y="-8"
     inkscape:window-maximized="1" />
  <metadata
     id="metadata7">
    <rdf:RDF>
      <cc:Work
         rdf:about="">
        <dc:format>image/svg+xml</dc:format>
        <dc:type
           rdf:resource="http://purl.org/dc/dcmitype/StillImage" />
        <dc:title></dc:title>
      </cc:Work>
    </rdf:RDF>
  </metadata>
  <g
     inkscape:label="Ebene 1"
     inkscape:groupmode="layer"
     id="layer1">
    <path
       style="fill:#d7eef4;fill-opacity:1;stroke:#000000;stroke-width:0.99999994000000003;stroke-linecap:butt;stroke-miterlimit:4;stroke-opacity:1;stroke-dasharray:none;stroke-dashoffset:0"
       d="M 12.4375 1028.4062 C 6.0862254 1028.4062 0.9375 1033.555 0.9375 1039.9062 C 0.9375 1042.4331 1.7747814 1044.7586 3.15625 1046.6562 L 0.53125 1051.8125 L 5.75 1049.2188 C 7.6400112 1050.5815 9.9294401 1051.4062 12.4375 1051.4062 C 18.788775 1051.4062 23.9375 1046.2575 23.9375 1039.9062 C 23.9375 1033.555 18.788775 1028.4062 12.4375 1028.4062 z "
       id="path2985"
       inkscape:export-filename="D:\Code\schwingbach\webpage\media\mapicons\piezometer.png"
       inkscape:export-xdpi="86.292137"
       inkscape:export-ydpi="86.292137" />
    <path
       style="fill:#c87137;fill-opacity:1;stroke:#000000;stroke-width:0.99999994000000003;stroke-linecap:butt;stroke-miterlimit:4;stroke-opacity:1;stroke-dasharray:none;stroke-dashoffset:0"
       d="M 0.96875 1039.375 C 0.96078066 1039.5507 0.9375 1039.7286 0.9375 1039.9062 C 0.9375 1042.4332 1.7747814 1044.7586 3.15625 1046.6562 L 0.53125 1051.8125 L 5.75 1049.2188 C 7.6400112 1050.5814 9.9294401 1051.4062 12.4375 1051.4062 C 18.788775 1051.4062 23.9375 1046.2576 23.9375 1039.9062 C 23.9375 1039.7286 23.914219 1039.5507 23.90625 1039.375 L 0.96875 1039.375 z "
       id="path3768"
       inkscape:export-filename="D:\Code\schwingbach\webpage\media\mapicons\piezometer.png"
       inkscape:export-xdpi="86.292137"
       inkscape:export-ydpi="86.292137" />
    <path
       style="fill:#ffffff;fill-opacity:1;stroke:#000000;stroke-width:1;stroke-linecap:butt;stroke-miterlimit:4;stroke-opacity:1;stroke-dasharray:none;stroke-dashoffset:0"
       d="m 9.6160715,1036.4554 0,11.875 c -0.00264,0.018 0,0.044 0,0.062 0,0.5192 1.0890065,0.9375 2.4374995,0.9375 1.348493,0 2.4375,-0.4183 2.4375,-0.9375 0,-0.018 0.0026,-0.045 0,-0.062 l 0,-11.875 -4.8749995,0 z"
       id="rect3760"
       inkscape:connector-curvature="0"
       inkscape:export-filename="D:\Code\schwingbach\webpage\media\mapicons\piezometer.png"
       inkscape:export-xdpi="86.292137"
       inkscape:export-ydpi="86.292137" />
    <path
       style="fill:#0000ff;fill-opacity:1;stroke:none"
       d="m 10.111608,1042.9872 1.947088,0 1.93684,0 0,5.4018 c 0,0 -0.613523,0.4705 -1.95319,0.4688 -1.339667,0 -1.930738,-0.4688 -1.930738,-0.4688 z"
       id="rect3779"
       inkscape:connector-curvature="0"
       sodipodi:nodetypes="cccczcc"
       inkscape:export-filename="D:\Code\schwingbach\webpage\media\mapicons\piezometer.png"
       inkscape:export-xdpi="86.292137"
       inkscape:export-ydpi="86.292137" />
    <path
       style="fill:#ffffff;fill-opacity:1;stroke:#000000;stroke-width:1;stroke-linecap:butt;stroke-miterlimit:4;stroke-opacity:1;stroke-dasharray:none;stroke-dashoffset:0"
       d="m 12.053571,1035.4241 c -1.348493,0 -2.4374995,0.4496 -2.4374995,0.9688 0,0.5192 1.0890065,0.9375 2.4374995,0.9375 1.348493,0 2.4375,-0.4183 2.4375,-0.9375 0,-0.5192 -1.089007,-0.9688 -2.4375,-0.9688 z"
       id="path3764"
       inkscape:connector-curvature="0"
       inkscape:export-filename="D:\Code\schwingbach\webpage\media\mapicons\piezometer.png"
       inkscape:export-xdpi="86.292137"
       inkscape:export-ydpi="86.292137" />
    <path
       id="path3782"
       d="m 38.4375,1028.4062 c -6.351275,0 -11.5,5.1488 -11.5,11.5 0,2.5269 0.837281,4.8524 2.21875,6.75 l -2.625,5.1563 5.21875,-2.5937 c 1.890011,1.3627 4.17944,2.1874 6.6875,2.1874 6.351275,0 11.5,-5.1487 11.5,-11.5 0,-6.3512 -5.148725,-11.5 -11.5,-11.5 z"
       style="fill:#b3ff80;fill-opacity:1;stroke:#000000;stroke-width:0.99999994000000003;stroke-linecap:butt;stroke-miterlimit:4;stroke-opacity:1;stroke-dasharray:none;stroke-dashoffset:0"
       inkscape:connector-curvature="0"
       inkscape:export-filename="D:\Code\schwingbach\webpage\media\mapicons\weir.png"
       inkscape:export-xdpi="86.292137"
       inkscape:export-ydpi="86.292137" />
    <path
       style="fill:#c87137;fill-opacity:1;stroke:#000000;stroke-opacity:1.0"
       d="M 26.96875 1040.9375 C 27.162781 1043.0649 27.964995 1045.0199 29.15625 1046.6562 L 26.53125 1051.8125 L 31.75 1049.2188 C 33.640011 1050.5814 35.92944 1051.4062 38.4375 1051.4062 C 44.443907 1051.4062 49.357222 1046.8094 49.875 1040.9375 L 26.96875 1040.9375 z "
       id="rect3792"
       inkscape:export-filename="D:\Code\schwingbach\webpage\media\mapicons\weir.png"
       inkscape:export-xdpi="86.292137"
       inkscape:export-ydpi="86.292137" />
    <path
       style="fill:none;stroke:#000000;stroke-width:1px;stroke-linecap:butt;stroke-linejoin:miter;stroke-opacity:1"
       d="m 27.410714,1040.9336 8.482143,0 3.129264,5.4201 3.177755,-5.5041 7.353696,0"
       id="path3784"
       inkscape:connector-curvature="0"
       inkscape:export-filename="D:\Code\schwingbach\webpage\media\mapicons\weir.png"
       inkscape:export-xdpi="86.292137"
       inkscape:export-ydpi="86.292137" />
    <path
       style="fill:#0000ff;stroke:none"
       d="m 36.222667,1041.38 2.705904,4.9108 2.705905,-4.9108 z"
       id="path3786"
       inkscape:connector-curvature="0"
       sodipodi:nodetypes="cccc"
       inkscape:export-filename="D:\Code\schwingbach\webpage\media\mapicons\weir.png"
       inkscape:export-xdpi="86.292137"
       inkscape:export-ydpi="86.292137" />
    <path
       style="fill:#0000ff;stroke:none"
       d="m 36.785714,1041.8264 c 0,0 1.875,-1.0714 2.410714,-3.2142 0.535715,-2.1429 0.357143,-2.5 -1.25,-3.9286 -1.607142,-1.4286 -4.107142,-0.8929 -3.214285,-2.5893 0.892857,-1.6964 4.642857,-3.4821 4.642857,-3.4821 0,0 -3.035714,1.875 -2.946429,2.9464 0.08929,1.0714 3.303572,2.0536 3.928572,3.2143 0.625,1.1607 1.964285,3.5714 1.517857,4.375 -0.446429,0.8035 -0.714286,2.7678 -0.714286,2.7678 z"
       id="path3788"
       inkscape:connector-curvature="0"
       inkscape:export-filename="D:\Code\schwingbach\webpage\media\mapicons\weir.png"
       inkscape:export-xdpi="86.292137"
       inkscape:export-ydpi="86.292137" />
    <path
       id="path3797"
       d="m 66.4375,1028.4062 c -6.351275,0 -11.5,5.1488 -11.5,11.5 0,2.5269 0.837281,4.8524 2.21875,6.75 l -2.625,5.1563 5.21875,-2.5937 c 1.890011,1.3627 4.17944,2.1874 6.6875,2.1874 6.351275,0 11.5,-5.1487 11.5,-11.5 0,-6.3512 -5.148725,-11.5 -11.5,-11.5 z"
       style="fill:#d7eef4;fill-opacity:1;stroke:#000000;stroke-width:0.99999994;stroke-linecap:butt;stroke-miterlimit:4;stroke-opacity:1;stroke-dasharray:none;stroke-dashoffset:0"
       inkscape:connector-curvature="0"
       inkscape:export-filename="D:\Code\schwingbach\webpage\media\mapicons\climate.png"
       inkscape:export-xdpi="86.292137"
       inkscape:export-ydpi="86.292137" />
    <rect
       style="fill:#ffff00;fill-opacity:1;stroke:#000000;stroke-width:1;stroke-linecap:butt;stroke-miterlimit:4;stroke-opacity:1;stroke-dasharray:none;stroke-dashoffset:0"
       id="rect3799"
       width="7.5892859"
       height="18.571428"
       x="62.67857"
       y="1030.4872"
       ry="3.7946429"
       inkscape:export-filename="D:\Code\schwingbach\webpage\media\mapicons\climate.png"
       inkscape:export-xdpi="86.292137"
       inkscape:export-ydpi="86.292137" />
    <path
       style="fill:none;stroke:#000000;stroke-width:1px;stroke-linecap:butt;stroke-linejoin:miter;stroke-opacity:1"
       d="m 70.178572,1033.88 -5.089286,0"
       id="path3803"
       inkscape:connector-curvature="0"
       inkscape:export-filename="D:\Code\schwingbach\webpage\media\mapicons\climate.png"
       inkscape:export-xdpi="86.292137"
       inkscape:export-ydpi="86.292137" />
    <path
       inkscape:connector-curvature="0"
       id="path3809"
       d="m 70.178572,1035.88 -2.630656,0"
       style="fill:none;stroke:#000000;stroke-width:1px;stroke-linecap:butt;stroke-linejoin:miter;stroke-opacity:1"
       inkscape:export-filename="D:\Code\schwingbach\webpage\media\mapicons\climate.png"
       inkscape:export-xdpi="86.292137"
       inkscape:export-ydpi="86.292137" />
    <path
       style="fill:none;stroke:#000000;stroke-width:1px;stroke-linecap:butt;stroke-linejoin:miter;stroke-opacity:1"
       d="m 70.178572,1037.88 -2.630656,0"
       id="path3811"
       inkscape:connector-curvature="0"
       inkscape:export-filename="D:\Code\schwingbach\webpage\media\mapicons\climate.png"
       inkscape:export-xdpi="86.292137"
       inkscape:export-ydpi="86.292137" />
    <path
       inkscape:connector-curvature="0"
       id="path3813"
       d="m 70.178572,1039.88 -2.630656,0"
       style="fill:none;stroke:#000000;stroke-width:1px;stroke-linecap:butt;stroke-linejoin:miter;stroke-opacity:1"
       inkscape:export-filename="D:\Code\schwingbach\webpage\media\mapicons\climate.png"
       inkscape:export-xdpi="86.292137"
       inkscape:export-ydpi="86.292137" />
    <path
       inkscape:connector-curvature="0"
       id="path3815"
       d="m 70.178572,1041.88 -5.089286,0"
       style="fill:none;stroke:#000000;stroke-width:1px;stroke-linecap:butt;stroke-linejoin:miter;stroke-opacity:1"
       inkscape:export-filename="D:\Code\schwingbach\webpage\media\mapicons\climate.png"
       inkscape:export-xdpi="86.292137"
       inkscape:export-ydpi="86.292137" />
    <path
       style="fill:none;stroke:#000000;stroke-width:1px;stroke-linecap:butt;stroke-linejoin:miter;stroke-opacity:1"
       d="m 70.178572,1043.88 -2.630656,0"
       id="path3817"
       inkscape:connector-curvature="0"
       inkscape:export-filename="D:\Code\schwingbach\webpage\media\mapicons\climate.png"
       inkscape:export-xdpi="86.292137"
       inkscape:export-ydpi="86.292137" />
    <path
       inkscape:export-ydpi="86.292137"
       inkscape:export-xdpi="86.292137"
       inkscape:export-filename="D:\Code\schwingbach\webpage\media\mapicons\rainbucket.png"
       inkscape:connector-curvature="0"
       style="fill:#d7eef4;fill-opacity:1;stroke:#000000;stroke-width:0.99999994;stroke-linecap:butt;stroke-miterlimit:4;stroke-opacity:1;stroke-dasharray:none;stroke-dashoffset:0"
       d="m 94.4375,1028.4062 c -6.351275,0 -11.5,5.1488 -11.5,11.5 0,2.5269 0.837281,4.8524 2.21875,6.75 l -2.625,5.1563 5.21875,-2.5937 c 1.890011,1.3627 4.17944,2.1874 6.6875,2.1874 6.35128,0 11.5,-5.1487 11.5,-11.5 0,-6.3512 -5.14872,-11.5 -11.5,-11.5 z"
       id="path3819" />
    <path
       sodipodi:type="arc"
       style="fill:#ffffff;fill-opacity:1;stroke:#000000;stroke-width:0.6005919;stroke-opacity:1"
       id="path3894"
       sodipodi:cx="114.93642"
       sodipodi:cy="1038.6304"
       sodipodi:rx="6.5344243"
       sodipodi:ry="2.7463522"
       d="m 121.47084,1038.6304 a 6.5344243,2.7463522 0 1 1 -13.06885,0 6.5344243,2.7463522 0 1 1 13.06885,0 z"
       transform="matrix(0.85454269,0,0,0.81104936,-5.9796026,198.3027)"
       inkscape:export-filename="D:\Code\schwingbach\webpage\media\mapicons\rainbucket.png"
       inkscape:export-xdpi="86.292137"
       inkscape:export-ydpi="86.292137" />
    <path
       style="fill:none;stroke:#000000;stroke-width:0.5;stroke-linecap:butt;stroke-linejoin:miter;stroke-opacity:1"
       d="m 89.587904,1037.2099 -0.795677,2.9695"
       id="path3870"
       inkscape:connector-curvature="0"
       inkscape:export-filename="D:\Code\schwingbach\webpage\media\mapicons\rainbucket.png"
       inkscape:export-xdpi="86.292137"
       inkscape:export-ydpi="86.292137" />
    <path
       inkscape:connector-curvature="0"
       id="path3872"
       d="m 91.587904,1037.2099 -0.795677,2.9695"
       style="fill:none;stroke:#000000;stroke-width:0.5;stroke-linecap:butt;stroke-linejoin:miter;stroke-opacity:1"
       inkscape:export-filename="D:\Code\schwingbach\webpage\media\mapicons\rainbucket.png"
       inkscape:export-xdpi="86.292137"
       inkscape:export-ydpi="86.292137" />
    <path
       style="fill:none;stroke:#000000;stroke-width:0.5;stroke-linecap:butt;stroke-linejoin:miter;stroke-opacity:1"
       d="m 93.587904,1037.2099 -0.795677,2.9695"
       id="path3874"
       inkscape:connector-curvature="0"
       inkscape:export-filename="D:\Code\schwingbach\webpage\media\mapicons\rainbucket.png"
       inkscape:export-xdpi="86.292137"
       inkscape:export-ydpi="86.292137" />
    <path
       style="fill:#b7bec8;fill-opacity:1;stroke:#000000;stroke-width:1;stroke-linecap:butt;stroke-miterlimit:4;stroke-opacity:1;stroke-dasharray:none;stroke-dashoffset:0"
       d="M 97.25 1029.0312 C 96.419272 1029.0312 95.675505 1029.4642 95.28125 1030.125 C 94.877382 1029.755 94.343404 1029.5312 93.75 1029.5312 C 93.168337 1029.5312 92.65113 1029.7679 92.25 1030.125 C 91.84887 1029.7679 91.331663 1029.5312 90.75 1029.5312 C 89.733521 1029.5312 88.880554 1030.2112 88.59375 1031.125 C 87.671647 1031.4092 87 1032.2426 87 1033.25 C 87 1034.2574 87.671647 1035.122 88.59375 1035.4062 C 88.880554 1036.3201 89.733521 1037 90.75 1037 C 91.331663 1037 91.84887 1036.7634 92.25 1036.4062 C 92.65113 1036.7634 93.168337 1037 93.75 1037 C 94.343404 1037 94.877382 1036.7763 95.28125 1036.4062 C 95.675505 1037.067 96.419272 1037.5 97.25 1037.5 C 98.428396 1037.5 99.391513 1036.6085 99.5 1035.4688 C 100.62611 1035.3386 101.5 1034.4009 101.5 1033.25 C 101.5 1032.0991 100.62611 1031.1926 99.5 1031.0625 C 99.399742 1029.9145 98.434371 1029.0312 97.25 1029.0312 z "
       id="path3821"
       inkscape:export-filename="D:\Code\schwingbach\webpage\media\mapicons\rainbucket.png"
       inkscape:export-xdpi="86.292137"
       inkscape:export-ydpi="86.292137" />
    <path
       inkscape:connector-curvature="0"
       id="path3876"
       d="m 95.587904,1037.2099 -0.795677,2.9695"
       style="fill:none;stroke:#000000;stroke-width:0.5;stroke-linecap:butt;stroke-linejoin:miter;stroke-opacity:1"
       inkscape:export-filename="D:\Code\schwingbach\webpage\media\mapicons\rainbucket.png"
       inkscape:export-xdpi="86.292137"
       inkscape:export-ydpi="86.292137" />
    <path
       style="fill:none;stroke:#000000;stroke-width:0.5;stroke-linecap:butt;stroke-linejoin:miter;stroke-opacity:1"
       d="m 97.587904,1037.2099 -0.795677,2.9695"
       id="path3878"
       inkscape:connector-curvature="0"
       inkscape:export-filename="D:\Code\schwingbach\webpage\media\mapicons\rainbucket.png"
       inkscape:export-xdpi="86.292137"
       inkscape:export-ydpi="86.292137" />
    <path
       inkscape:connector-curvature="0"
       id="path3880"
       d="m 88.724326,1040.8311 -0.795677,2.9695"
       style="fill:none;stroke:#000000;stroke-width:0.5;stroke-linecap:butt;stroke-linejoin:miter;stroke-opacity:1"
       inkscape:export-filename="D:\Code\schwingbach\webpage\media\mapicons\rainbucket.png"
       inkscape:export-xdpi="86.292137"
       inkscape:export-ydpi="86.292137" />
    <path
       style="fill:none;stroke:#000000;stroke-width:0.5;stroke-linecap:butt;stroke-linejoin:miter;stroke-opacity:1"
       d="m 90.724326,1040.8311 -0.795677,2.9695"
       id="path3882"
       inkscape:connector-curvature="0"
       inkscape:export-filename="D:\Code\schwingbach\webpage\media\mapicons\rainbucket.png"
       inkscape:export-xdpi="86.292137"
       inkscape:export-ydpi="86.292137" />
    <path
       inkscape:connector-curvature="0"
       id="path3884"
       d="m 92.724326,1040.8311 -0.795677,2.9695"
       style="fill:none;stroke:#000000;stroke-width:0.5;stroke-linecap:butt;stroke-linejoin:miter;stroke-opacity:1"
       inkscape:export-filename="D:\Code\schwingbach\webpage\media\mapicons\rainbucket.png"
       inkscape:export-xdpi="86.292137"
       inkscape:export-ydpi="86.292137" />
    <path
       style="fill:none;stroke:#000000;stroke-width:0.5;stroke-linecap:butt;stroke-linejoin:miter;stroke-opacity:1"
       d="m 94.724326,1040.8311 -0.795677,2.9695"
       id="path3886"
       inkscape:connector-curvature="0"
       inkscape:export-filename="D:\Code\schwingbach\webpage\media\mapicons\rainbucket.png"
       inkscape:export-xdpi="86.292137"
       inkscape:export-ydpi="86.292137" />
    <path
       inkscape:connector-curvature="0"
       id="path3888"
       d="m 96.724326,1040.8311 -0.795677,2.9695"
       style="fill:none;stroke:#000000;stroke-width:0.5;stroke-linecap:butt;stroke-linejoin:miter;stroke-opacity:1"
       inkscape:export-filename="D:\Code\schwingbach\webpage\media\mapicons\rainbucket.png"
       inkscape:export-xdpi="86.292137"
       inkscape:export-ydpi="86.292137" />
    <path
       inkscape:connector-curvature="0"
       id="rect3892"
       d="m 86.65581,1040.6927 0,4.4549 c 0,1.2302 2.500014,2.2274 5.583945,2.2274 3.08393,0 5.583944,-0.9972 5.583944,-2.2274 l 0,-4.4549 c 0,1.2302 -2.500017,2.2275 -5.583944,2.2275 -3.083928,0 -5.583945,-0.9973 -5.583945,-2.2275 z"
       style="fill:#ffffff;fill-opacity:1;stroke:#000000;stroke-width:0.5;stroke-opacity:1"
       inkscape:export-filename="D:\Code\schwingbach\webpage\media\mapicons\rainbucket.png"
       inkscape:export-xdpi="86.292137"
       inkscape:export-ydpi="86.292137" />
    <path
       style="fill:#0000ff;fill-opacity:1;stroke:#000000;stroke-width:0.5;stroke-opacity:1"
       d="m 86.65581,1042.6927 0,4.4549 c 0,1.2302 2.500014,2.2274 5.583945,2.2274 3.08393,0 5.583944,-0.9972 5.583944,-2.2274 l 0,-4.4549 c 0,1.2302 -2.500017,2.2275 -5.583944,2.2275 -3.083928,0 -5.583945,-0.9973 -5.583945,-2.2275 z"
       id="path3927"
       inkscape:connector-curvature="0"
       inkscape:export-filename="D:\Code\schwingbach\webpage\media\mapicons\rainbucket.png"
       inkscape:export-xdpi="86.292137"
       inkscape:export-ydpi="86.292137" />
    <path
       id="path3929"
       d="m 120.4375,1028.4062 c -6.35127,0 -11.5,5.1488 -11.5,11.5 0,2.5269 0.83728,4.8524 2.21875,6.75 l -2.625,5.1563 5.21875,-2.5937 c 1.89001,1.3627 4.17944,2.1874 6.6875,2.1874 6.35128,0 11.5,-5.1487 11.5,-11.5 0,-6.3512 -5.14872,-11.5 -11.5,-11.5 z"
       style="fill:#d7eef4;fill-opacity:1;stroke:#000000;stroke-width:0.99999994;stroke-linecap:butt;stroke-miterlimit:4;stroke-opacity:1;stroke-dasharray:none;stroke-dashoffset:0"
       inkscape:connector-curvature="0"
       inkscape:export-filename="D:\Code\schwingbach\webpage\media\mapicons\raingauge.png"
       inkscape:export-xdpi="86.292137"
       inkscape:export-ydpi="86.292137" />
    <path
       inkscape:connector-curvature="0"
       id="path3933"
       d="m 115.5879,1037.2099 -0.79567,2.9695"
       style="fill:none;stroke:#000000;stroke-width:0.5;stroke-linecap:butt;stroke-linejoin:miter;stroke-opacity:1"
       inkscape:export-filename="D:\Code\schwingbach\webpage\media\mapicons\raingauge.png"
       inkscape:export-xdpi="86.292137"
       inkscape:export-ydpi="86.292137" />
    <path
       style="fill:none;stroke:#000000;stroke-width:0.5;stroke-linecap:butt;stroke-linejoin:miter;stroke-opacity:1"
       d="m 117.5879,1037.2099 -0.79567,2.9695"
       id="path3935"
       inkscape:connector-curvature="0"
       inkscape:export-filename="D:\Code\schwingbach\webpage\media\mapicons\raingauge.png"
       inkscape:export-xdpi="86.292137"
       inkscape:export-ydpi="86.292137" />
    <path
       inkscape:connector-curvature="0"
       id="path3937"
       d="m 119.5879,1037.2099 -0.79567,2.9695"
       style="fill:none;stroke:#000000;stroke-width:0.5;stroke-linecap:butt;stroke-linejoin:miter;stroke-opacity:1"
       inkscape:export-filename="D:\Code\schwingbach\webpage\media\mapicons\raingauge.png"
       inkscape:export-xdpi="86.292137"
       inkscape:export-ydpi="86.292137" />
    <path
       id="path3939"
       d="m 123.25,1029.0312 c -0.83073,0 -1.57449,0.433 -1.96875,1.0938 -0.40387,-0.37 -0.93785,-0.5938 -1.53125,-0.5938 -0.58166,0 -1.09887,0.2367 -1.5,0.5938 -0.40113,-0.3571 -0.91834,-0.5938 -1.5,-0.5938 -1.01648,0 -1.86945,0.68 -2.15625,1.5938 -0.9221,0.2842 -1.59375,1.1176 -1.59375,2.125 0,1.0074 0.67165,1.872 1.59375,2.1562 0.2868,0.9139 1.13977,1.5938 2.15625,1.5938 0.58166,0 1.09887,-0.2366 1.5,-0.5938 0.40113,0.3572 0.91834,0.5938 1.5,0.5938 0.5934,0 1.12738,-0.2237 1.53125,-0.5938 0.39426,0.6608 1.13802,1.0938 1.96875,1.0938 1.1784,0 2.14151,-0.8915 2.25,-2.0312 1.12611,-0.1302 2,-1.0679 2,-2.2188 0,-1.1509 -0.87389,-2.0574 -2,-2.1875 -0.10026,-1.148 -1.06563,-2.0313 -2.25,-2.0313 z"
       style="fill:#b7bec8;fill-opacity:1;stroke:#000000;stroke-width:1;stroke-linecap:butt;stroke-miterlimit:4;stroke-opacity:1;stroke-dasharray:none;stroke-dashoffset:0"
       inkscape:connector-curvature="0"
       inkscape:export-filename="D:\Code\schwingbach\webpage\media\mapicons\raingauge.png"
       inkscape:export-xdpi="86.292137"
       inkscape:export-ydpi="86.292137" />
    <path
       style="fill:none;stroke:#000000;stroke-width:0.5;stroke-linecap:butt;stroke-linejoin:miter;stroke-opacity:1"
       d="m 121.5879,1037.2099 -0.79567,2.9695"
       id="path3941"
       inkscape:connector-curvature="0"
       inkscape:export-filename="D:\Code\schwingbach\webpage\media\mapicons\raingauge.png"
       inkscape:export-xdpi="86.292137"
       inkscape:export-ydpi="86.292137" />
    <path
       inkscape:connector-curvature="0"
       id="path3943"
       d="m 123.5879,1037.2099 -0.79567,2.9695"
       style="fill:none;stroke:#000000;stroke-width:0.5;stroke-linecap:butt;stroke-linejoin:miter;stroke-opacity:1"
       inkscape:export-filename="D:\Code\schwingbach\webpage\media\mapicons\raingauge.png"
       inkscape:export-xdpi="86.292137"
       inkscape:export-ydpi="86.292137" />
    <path
       style="fill:none;stroke:#000000;stroke-width:0.5;stroke-linecap:butt;stroke-linejoin:miter;stroke-opacity:1"
       d="m 114.72433,1040.8311 -0.79568,2.9695"
       id="path3945"
       inkscape:connector-curvature="0"
       inkscape:export-filename="D:\Code\schwingbach\webpage\media\mapicons\raingauge.png"
       inkscape:export-xdpi="86.292137"
       inkscape:export-ydpi="86.292137" />
    <path
       inkscape:connector-curvature="0"
       id="path3947"
       d="m 116.72433,1040.8311 -0.79568,2.9695"
       style="fill:none;stroke:#000000;stroke-width:0.5;stroke-linecap:butt;stroke-linejoin:miter;stroke-opacity:1"
       inkscape:export-filename="D:\Code\schwingbach\webpage\media\mapicons\raingauge.png"
       inkscape:export-xdpi="86.292137"
       inkscape:export-ydpi="86.292137" />
    <path
       style="fill:none;stroke:#000000;stroke-width:0.5;stroke-linecap:butt;stroke-linejoin:miter;stroke-opacity:1"
       d="m 118.72433,1040.8311 -0.79568,2.9695"
       id="path3949"
       inkscape:connector-curvature="0"
       inkscape:export-filename="D:\Code\schwingbach\webpage\media\mapicons\raingauge.png"
       inkscape:export-xdpi="86.292137"
       inkscape:export-ydpi="86.292137" />
    <path
       inkscape:connector-curvature="0"
       id="path3951"
       d="m 120.72433,1040.8311 -0.79568,2.9695"
       style="fill:none;stroke:#000000;stroke-width:0.5;stroke-linecap:butt;stroke-linejoin:miter;stroke-opacity:1"
       inkscape:export-filename="D:\Code\schwingbach\webpage\media\mapicons\raingauge.png"
       inkscape:export-xdpi="86.292137"
       inkscape:export-ydpi="86.292137" />
    <path
       style="fill:none;stroke:#000000;stroke-width:0.5;stroke-linecap:butt;stroke-linejoin:miter;stroke-opacity:1"
       d="m 122.72433,1040.8311 -0.79568,2.9695"
       id="path3953"
       inkscape:connector-curvature="0"
       inkscape:export-filename="D:\Code\schwingbach\webpage\media\mapicons\raingauge.png"
       inkscape:export-xdpi="86.292137"
       inkscape:export-ydpi="86.292137" />
    <g
       id="g3963"
       transform="matrix(0.3729553,0,0,0.3729553,67.8357,657.25602)"
       inkscape:export-filename="D:\Code\schwingbach\webpage\media\mapicons\raingauge.png"
       inkscape:export-xdpi="86.292137"
       inkscape:export-ydpi="86.292137">
      <path
         sodipodi:type="arc"
         style="fill:#ffffff;fill-opacity:1;stroke:#000000;stroke-width:1.61035895;stroke-opacity:1"
         id="path3959"
         sodipodi:cx="114.93642"
         sodipodi:cy="1038.6304"
         sodipodi:rx="6.5344243"
         sodipodi:ry="2.7463522"
         d="m 121.47084,1038.6304 c 0,1.5167 -2.92556,2.7463 -6.53442,2.7463 -3.60887,0 -6.53443,-1.2296 -6.53443,-2.7463 0,-1.5168 2.92556,-2.7464 6.53443,-2.7464 3.60886,0 6.53442,1.2296 6.53442,2.7464 z"
         transform="matrix(0.85454269,0,0,0.81104936,26.020397,198.3027)" />
      <path
         inkscape:connector-curvature="0"
         id="path3961"
         d="m 118.65581,1040.6927 0,4.4549 c 0,1.2302 2.50001,2.2274 5.58395,2.2274 3.08392,0 5.58394,-0.9972 5.58394,-2.2274 l 0,-4.4549 c 0,1.2302 -2.50002,2.2275 -5.58394,2.2275 -3.08393,0 -5.58395,-0.9973 -5.58395,-2.2275 z"
         style="fill:#ffffff;fill-opacity:1;stroke:#000000;stroke-width:1.34064329;stroke-opacity:1" />
    </g>
    <g
       transform="matrix(0.3729553,0,0,0.3729553,77.8357,655.25602)"
       id="g3967"
       inkscape:export-filename="D:\Code\schwingbach\webpage\media\mapicons\raingauge.png"
       inkscape:export-xdpi="86.292137"
       inkscape:export-ydpi="86.292137">
      <path
         transform="matrix(0.85454269,0,0,0.81104936,26.020397,198.3027)"
         d="m 121.47084,1038.6304 c 0,1.5167 -2.92556,2.7463 -6.53442,2.7463 -3.60887,0 -6.53443,-1.2296 -6.53443,-2.7463 0,-1.5168 2.92556,-2.7464 6.53443,-2.7464 3.60886,0 6.53442,1.2296 6.53442,2.7464 z"
         sodipodi:ry="2.7463522"
         sodipodi:rx="6.5344243"
         sodipodi:cy="1038.6304"
         sodipodi:cx="114.93642"
         id="path3969"
         style="fill:#ffffff;fill-opacity:1;stroke:#000000;stroke-width:1.61035895;stroke-opacity:1"
         sodipodi:type="arc" />
      <path
         style="fill:#ffffff;fill-opacity:1;stroke:#000000;stroke-width:1.34064329;stroke-opacity:1"
         d="m 118.65581,1040.6927 0,4.4549 c 0,1.2302 2.50001,2.2274 5.58395,2.2274 3.08392,0 5.58394,-0.9972 5.58394,-2.2274 l 0,-4.4549 c 0,1.2302 -2.50002,2.2275 -5.58394,2.2275 -3.08393,0 -5.58395,-0.9973 -5.58395,-2.2275 z"
         id="path3971"
         inkscape:connector-curvature="0" />
    </g>
    <path
       style="fill:none;stroke:#000000;stroke-width:0.5;stroke-linecap:butt;stroke-linejoin:miter;stroke-opacity:1"
       d="m 123.86996,1045.7962 -9.53332,2.2097"
       id="path3973"
       inkscape:connector-curvature="0"
       inkscape:export-filename="D:\Code\schwingbach\webpage\media\mapicons\raingauge.png"
       inkscape:export-xdpi="86.292137"
       inkscape:export-ydpi="86.292137" />
    <path
       sodipodi:type="star"
       style="fill:#ffffff;fill-opacity:1;stroke:#000000;stroke-width:0.5;stroke-linecap:butt;stroke-miterlimit:4;stroke-opacity:1;stroke-dasharray:none;stroke-dashoffset:0"
       id="path3977"
       sodipodi:sides="3"
       sodipodi:cx="116.42008"
       sodipodi:cy="1056.9709"
       sodipodi:r1="2.0680778"
       sodipodi:r2="1.0340388"
       sodipodi:arg1="0.52359878"
       sodipodi:arg2="1.5707963"
       inkscape:flatsided="false"
       inkscape:rounded="0"
       inkscape:randomized="0"
       d="m 118.21109,1058.005 -1.79101,0 -1.79101,0 0.89551,-1.5511 0.8955,-1.551 0.89551,1.551 z"
       inkscape:transform-center-y="-0.51701941"
       transform="translate(3.3461303,-8.0180858)"
       inkscape:export-filename="D:\Code\schwingbach\webpage\media\mapicons\raingauge.png"
       inkscape:export-xdpi="86.292137"
       inkscape:export-ydpi="86.292137" />
    <path
       sodipodi:type="star"
       style="fill:#0000ff;fill-opacity:1;stroke:none"
       id="path3981"
       sodipodi:sides="3"
       sodipodi:cx="11.332649"
       sodipodi:cy="1041.2505"
       sodipodi:r1="0.50900692"
       sodipodi:r2="0.25450343"
       sodipodi:arg1="1.5707963"
       sodipodi:arg2="2.6179939"
       inkscape:flatsided="false"
       inkscape:rounded="0"
       inkscape:randomized="0"
       d="m 11.332649,1041.7595 -0.220406,-0.3818 -0.220407,-0.3817 0.440813,0 0.440813,0 -0.220406,0.3817 z"
       inkscape:transform-center-y="0.21675045"
       transform="matrix(1.7028635,0,0,1.7028635,-7.2450991,-730.95198)" />
    <path
       inkscape:export-ydpi="86.292137"
       inkscape:export-xdpi="86.292137"
       inkscape:export-filename="D:\Code\schwingbach\webpage\media\mapicons\unknown.png"
       inkscape:connector-curvature="0"
       style="fill:none;fill-opacity:1;stroke:#000000;stroke-width:0.99999994000000003;stroke-linecap:butt;stroke-miterlimit:4;stroke-opacity:1;stroke-dasharray:none;stroke-dashoffset:0"
       d="m 148.4375,1028.4062 c -6.35127,0 -11.5,5.1488 -11.5,11.5 0,2.5269 0.83728,4.8524 2.21875,6.75 l -2.625,5.1563 5.21875,-2.5937 c 1.89001,1.3627 4.17944,2.1874 6.6875,2.1874 6.35128,0 11.5,-5.1487 11.5,-11.5 0,-6.3512 -5.14872,-11.5 -11.5,-11.5 z"
       id="path3036" />
    <text
       xml:space="preserve"
       style="font-size:15.0753212px;font-style:normal;font-variant:normal;font-weight:normal;font-stretch:normal;text-align:justify;line-height:125%;letter-spacing:0px;word-spacing:0px;writing-mode:lr-tb;text-anchor:start;fill:#000000;fill-opacity:1;stroke:none;font-family:Calibri;-inkscape-font-specification:Calibri"
       x="144.66243"
       y="1036.0024"
       id="text3038"
       sodipodi:linespacing="125%"
       transform="scale(0.9881545,1.0119875)"
       inkscape:export-filename="D:\Code\schwingbach\webpage\media\mapicons\unknown.png"
       inkscape:export-xdpi="86.292137"
       inkscape:export-ydpi="86.292137"><tspan
         sodipodi:role="line"
         id="tspan3040"
         x="144.66243"
         y="1036.0024"
         style="font-size:25.12553596px;font-style:normal;font-variant:normal;font-weight:normal;font-stretch:normal;font-family:Comic Sans MS;-inkscape-font-specification:Comic Sans MS">?</tspan></text>
  </g>
</svg>
